<?xml version="1.0" standalone="no"?>
<!DOCTYPE svg PUBLIC "-//W3C//DTD SVG 1.1//EN" "http://www.w3.org/Graphics/SVG/1.1/DTD/svg11.dtd" >
<svg>
<metadata>
Created by FontForge 20090622 at Mon Nov  5 21:46:14 2018
 By deploy user
Visit http://ttf.eosnet.com/ for more free fonts
</metadata>
<defs>
<font id="Sixty" horiz-adv-x="0" >
  <font-face 
    font-family="Sixty"
    font-weight="700"
    font-stretch="normal"
    units-per-em="1000"
    panose-1="0 0 0 0 0 0 0 0 0 0"
    ascent="800"
    descent="-200"
    x-height="406"
    cap-height="693"
    bbox="-90.1489 -243 766 800"
    underline-thickness="20"
    underline-position="-90"
    unicode-range="U+0020-U+F002"
  />
<missing-glyph horiz-adv-x="500" 
d="M63 0v800h375v-800h-375zM125 63h250v675h-250v-675z" />
    <glyph glyph-name=".notdef" horiz-adv-x="500" 
d="M63 0v800h375v-800h-375zM125 63h250v675h-250v-675z" />
    <glyph glyph-name=".null" 
 />
    <glyph glyph-name="nonmarkingreturn" horiz-adv-x="270" 
 />
    <glyph glyph-name="space" unicode=" " horiz-adv-x="270" 
 />
    <glyph glyph-name="caron" unicode="&#x2c7;" 
 />
    <glyph glyph-name="dotlessi" unicode="&#x131;" 
 />
    <glyph glyph-name="exclam" unicode="!" horiz-adv-x="231" 
d="M107 700q86 -21 86 -50q14 -21 -36 -271q7 -150 -21 -165q-79 15 -72 86l22 93l-36 178q-29 108 57 129zM107 171q64 29 100 -85q-14 -79 -86 -100q-78 -15 -100 85q-7 50 15 65z" />
    <glyph glyph-name="quotedbl" unicode="&#x22;" horiz-adv-x="374" 
d="M64 757q79 36 122 -136h14q29 122 86 108l35 -29q0 -86 36 -114q29 -29 -64 -143q-43 -22 -86 50q14 28 -7 93h-14l-7 -22q14 -50 -8 -71l-42 -43l-43 14q-7 100 -50 143q0 150 28 150z" />
    <glyph glyph-name="numbersign" unicode="#" horiz-adv-x="679" 
d="M343 729l50 -22q7 -57 -43 -164l14 -29q50 -7 79 15l64 164q64 71 100 -7l-50 -150l14 -22q93 0 100 -50q-14 -43 -114 -57l-36 -64l8 -14q92 -22 78 -72t-150 -36l-21 -28q14 -100 0 -114l-93 -100q-57 7 -79 50q-7 50 43 150l-14 21q-36 7 -50 -14l-57 -165
q-15 -35 -79 -21q-28 7 -36 43l29 128q7 22 -21 50q-92 15 -79 50l43 43q100 22 121 50l-7 29q-86 14 -93 64q7 57 79 86l64 -7q36 0 43 85l100 108h-7zM300 321q79 -14 86 65l-22 35q-50 22 -78 -42q-7 -36 14 -58z" />
    <glyph glyph-name="dollar" unicode="$" horiz-adv-x="500" 
d="M143 693q36 7 100 -22q14 15 57 0l114 -85l22 -50q7 -36 -22 -72q-78 -7 -78 -43l7 -42q128 -93 114 -208l-50 -107q-93 -57 -107 -93l-79 15l-28 -22l-129 93l-35 50q-15 64 35 100l65 -7l28 -29l14 22q0 71 -28 114q-79 22 -107 57l-15 86l50 171zM350 150l21 14l-7 43
l-21 -14zM136 79l35 14l-14 36q-21 7 -28 -22z" />
    <glyph glyph-name="percent" unicode="%" horiz-adv-x="25" 
 />
    <glyph glyph-name="ampersand" unicode="&#x26;" horiz-adv-x="688" 
d="M307 736q122 7 122 -15q114 -92 114 -135l-7 -122q21 -21 135 -28l8 -36l-43 -71q-15 -86 -57 -150v-43l50 -72l35 -21q15 -36 -28 -43q-143 -7 -172 14q-64 -35 -107 -21q-43 -43 -64 -29q-22 29 -129 36q-128 50 -143 157q-7 36 22 122l71 78q72 29 93 64l-36 108
q-7 35 22 92l86 100zM286 86q57 -15 100 28q-15 65 -86 157l-57 58l-36 -8l-28 -35q7 -136 107 -200zM350 486l21 7l29 78q7 8 -21 50q-8 15 -79 -28q-21 -22 50 -107zM514 279q43 -15 72 64l-15 36q-71 -15 -64 64q-28 14 -71 -36q-7 -43 78 -128z" />
    <glyph glyph-name="quotesingle" unicode="'" horiz-adv-x="178" 
d="M79 729q57 7 78 -50l-21 -186l-15 -36l-50 7l-28 179q0 71 36 86z" />
    <glyph glyph-name="parenleft" unicode="(" horiz-adv-x="291" 
d="M264 671l22 -14l-93 -171q-36 -107 -22 -336l43 -64q-14 -72 7 -115l43 -42l15 -108q-22 -14 -65 29l-150 150l-21 57l7 7l-21 193l35 93v121l65 58q21 57 71 92z" />
    <glyph glyph-name="parenright" unicode=")" horiz-adv-x="275" 
d="M29 671q121 -71 178 -207q57 -143 64 -293q0 -64 -35 -150l-65 -57l-50 -121q-64 -7 -71 -22h-29l8 43q85 115 92 200q15 172 0 372q-7 78 -107 214z" />
    <glyph glyph-name="asterisk" unicode="*" horiz-adv-x="410" 
d="M50 614l50 -7q43 -64 64 -43l-7 100l29 29q64 7 71 -50l-14 -79h28l36 43q57 22 79 -21q14 -50 -29 -72q-78 -7 -71 -43q78 -7 100 -50q0 -64 -29 -64l-50 7l-50 43l-14 -7l7 -93l-29 -28q-64 -8 -71 50q29 64 7 78h-14l-64 -50q-43 0 -58 29q8 64 22 64l71 21l7 29
q-78 7 -100 50q0 64 29 64z" />
    <glyph glyph-name="plus" unicode="+" horiz-adv-x="23" 
 />
    <glyph glyph-name="comma" unicode="," horiz-adv-x="256" 
d="M129 157q57 7 57 -14q28 -57 64 -86q-79 -186 -129 -193l-28 7v36l57 79l-7 21q-129 -21 -122 50q22 107 108 100z" />
    <glyph glyph-name="hyphen" unicode="-" horiz-adv-x="415" 
d="M105 313h186q36 -7 43 -43q-7 -78 -43 -71h-186q-36 7 -43 43q7 78 43 71z" />
    <glyph glyph-name="hyphen" unicode="&#x2010;" horiz-adv-x="415" 
d="M105 313h186q36 -7 43 -43q-7 -78 -43 -71h-186q-36 7 -43 43q7 78 43 71z" />
    <glyph glyph-name="period" unicode="." horiz-adv-x="232" 
d="M86 143q100 0 107 -64q-7 -58 -50 -79q-100 0 -107 64q7 57 50 79z" />
    <glyph glyph-name="slash" unicode="/" horiz-adv-x="16" 
 />
    <glyph glyph-name="zero" unicode="0" horiz-adv-x="501" 
d="M236 671q214 -35 250 -278l-7 -164q-36 -100 -43 -172l-43 -21l-64 -57q-179 28 -215 92q-50 50 -78 193q-7 172 50 279q71 107 150 128zM229 50q50 -7 50 14l42 93q8 43 -14 43l36 86v178l-29 36q0 57 -35 93q-36 7 -43 -14q-36 -79 -57 -79q-8 -14 21 -93l7 -150
q-64 -114 22 -207z" />
    <glyph glyph-name="one" unicode="1" horiz-adv-x="309" 
d="M131 664q93 -14 72 -143q50 -42 43 -57l-29 -135l22 -58l-22 -85q14 -93 0 -107l72 -22l7 -50l-15 -7h-214l-36 21l22 58q-29 28 -29 57l15 35v143q-29 72 7 93l-7 107l21 65l-64 28l-7 29l28 21z" />
    <glyph glyph-name="two" unicode="2" horiz-adv-x="485" 
d="M121 557l15 -28l50 -29q28 -79 -29 -100q-86 -21 -114 71q-7 143 164 193q207 0 236 -150q21 -135 -279 -364l15 -29h171l36 43q14 15 50 -7q7 -150 -50 -157h-322q-35 7 -43 43v28l15 29l200 193q85 93 64 214q-21 72 -71 93q-22 21 -108 -43z" />
    <glyph glyph-name="three" unicode="3" horiz-adv-x="453" 
d="M243 664q143 -7 193 -135l-15 -86l-78 -86v-14q78 -36 107 -86q29 -71 0 -143l-107 -143l-179 8l-107 35q-36 29 -43 65q-27 100 86 135q64 0 93 -64l-14 -71l14 -15q50 -7 71 15l50 85v57q-21 58 -50 65l-135 21l-8 43l36 21q122 0 136 115l-7 93l-65 42h-14l-21 -28
l14 -57l-36 -57q-78 -15 -93 57q29 135 172 128z" />
    <glyph glyph-name="four" unicode="4" horiz-adv-x="509" 
d="M297 664l42 -14l43 -86q15 -21 -28 -93v-114q21 -7 21 -86l29 8l-7 14l21 21q50 7 64 -21q15 -36 -35 -157q-15 -22 -36 -15l-43 -42l14 -58q0 -21 -35 -21h-165l-35 36l42 93l-14 28l-171 22q-22 21 -15 64l158 236q0 100 28 121zM82 229h122l14 21l-7 200
q-43 7 -57 -21l-86 -150q-7 -36 14 -50z" />
    <glyph glyph-name="five" unicode="5" horiz-adv-x="453" 
d="M250 679l71 -8l29 22q64 14 71 -57l-7 -65l-93 -64q-28 -7 -85 22h-93l-36 -50l-36 7v114q15 50 58 50h71zM79 436q42 7 85 -43l-35 -36q-50 -14 -65 36zM207 414q43 -14 114 0l93 -71l29 -100q7 -193 -164 -243l-93 7v22l85 57q50 71 22 200l-14 35l-100 58v21zM86 200
q64 -7 71 -43t-21 -93l14 -35l-7 -15q-79 0 -122 93q0 79 65 93z" />
    <glyph glyph-name="six" unicode="6" horiz-adv-x="477" 
d="M329 650l50 -7l-8 -36q-185 -71 -171 -178q207 42 271 -172l-21 -186q-79 -50 -79 -78l-21 -7l-179 21q-128 57 -150 207v115l50 135q143 179 258 186zM214 50l50 7l15 57l50 57q28 172 -65 208q-57 7 -100 -79q-21 -179 50 -250z" />
    <glyph glyph-name="seven" unicode="7" horiz-adv-x="421" 
d="M71 650h300l29 -21v-43l-143 -315l-7 -92q43 -158 29 -172q-8 -43 -100 -36q-65 -14 -93 93l7 72l78 135v22l72 93l50 114l-14 29h-193l-50 -58h-36v65q29 100 71 114z" />
    <glyph glyph-name="eight" unicode="8" horiz-adv-x="525" 
d="M186 693q114 -14 135 0q165 -114 158 -172l-8 -71l-28 -50l-57 -57l7 -22q50 -21 128 -114q29 -50 8 -71l-86 -107q-43 -43 -150 -58h-143q-114 79 -143 165v57l50 78l93 72v14q-57 7 -93 79l-28 85q21 115 157 172zM250 386q43 -7 64 14q-14 50 0 164l-28 29
q-22 14 -57 -29l7 -171zM293 71q57 -7 64 100q7 93 -50 136q-100 14 -121 -64q-7 -136 107 -172z" />
    <glyph glyph-name="nine" unicode="9" horiz-adv-x="485" 
d="M236 686q28 14 114 -29l71 -36q50 -64 72 -185q7 -122 -14 -129l-72 -136q-57 -71 -121 -114l-122 -50l-50 7l7 36q186 71 172 179q-207 -43 -272 171q-14 107 58 186l57 50l64 21zM229 279q28 -15 92 64q0 186 -64 264q-43 7 -64 -14l-29 -57v-193q15 -43 65 -64z" />
    <glyph glyph-name="colon" unicode=":" horiz-adv-x="224" 
d="M107 450q64 -29 93 -64l14 -43q-14 -64 -93 -72q-78 8 -92 72q21 86 78 107zM79 143q100 0 107 -64q-7 -58 -50 -79q-100 0 -107 64q7 57 50 79z" />
    <glyph glyph-name="semicolon" unicode=";" horiz-adv-x="235" 
d="M79 421q100 0 107 -64q-7 -57 -50 -78q-100 0 -107 64q7 57 50 78zM86 150q93 -7 121 -100q0 -136 -93 -186l-28 22l57 93q7 21 -14 28q-100 -36 -115 50q7 79 72 93z" />
    <glyph glyph-name="less" unicode="&#x3c;" 
 />
    <glyph glyph-name="equal" unicode="=" horiz-adv-x="29" 
 />
    <glyph glyph-name="greater" unicode="&#x3e;" 
 />
    <glyph glyph-name="question" unicode="?" horiz-adv-x="363" 
d="M100 629l14 -100l-28 -29q-72 -14 -86 57v29q36 107 207 107q100 -22 143 -136q14 -143 -179 -250l-28 -64q-43 -7 -50 14v100l43 79l107 100q28 35 0 78l-64 43q-50 14 -79 -28zM100 143q100 0 107 -64q-7 -58 -50 -79q-100 0 -107 64q7 57 50 79z" />
    <glyph glyph-name="at" unicode="@" 
 />
    <glyph glyph-name="A" unicode="A" horiz-adv-x="534" 
d="M240 693q57 14 79 -64l193 -543l35 -36q15 -36 -28 -43q-164 -7 -186 14l22 79q-15 64 -58 107l-171 -7l-43 -79v-50l22 -42l-43 -22q-57 -7 -79 14v36q43 22 64 100l172 507zM169 264q107 -7 114 22l-57 164q-29 7 -36 -14l-43 -129q-7 -14 22 -43z" />
    <glyph glyph-name="B" unicode="B" horiz-adv-x="612" 
d="M75 736l57 -7q43 -36 122 -43l14 -15q0 -42 -29 -57q-7 -107 15 -193q43 15 93 -7q35 0 57 150l-7 50l-72 36q-7 36 22 43q192 7 235 -136v-57l-21 -50q-36 -43 -79 -57l-21 -29q128 -57 143 -150v-121l-86 -86q-100 14 -164 0l-36 14q-14 -50 -64 -42l-250 7l-7 14l7 36
l43 64l14 107v393q-57 21 -57 64q21 50 71 72zM311 43q14 -14 64 36q0 42 36 64l-14 71q35 50 21 72l-79 50q-85 7 -100 -22l8 -243zM568 -171l-14 -36q-79 0 -93 36l21 28q72 0 86 -28z" />
    <glyph glyph-name="C" unicode="C" horiz-adv-x="566" 
d="M254 700l57 -14l-100 -72l-22 -64l15 -29q14 -114 -36 -164v-157q7 -71 43 -114l100 -57l-29 -22q-121 0 -214 122q-43 64 -64 164l14 264l50 43l36 57l57 7q28 29 93 36zM347 700l114 -21q71 21 86 -22v-136l-22 -21l-36 7q-14 50 -64 107l-107 65zM518 221q21 8 43 -21
v-150q-14 -29 -36 -29q-21 36 -157 -14l-50 14l86 50l71 72l29 71z" />
    <glyph glyph-name="D" unicode="D" horiz-adv-x="583" 
d="M80 721l143 -7l50 -28q85 0 142 -36l122 -79l64 -157l-21 -71q0 -250 -257 -329l-72 7v22l100 50q86 57 64 378q-14 86 -35 115l-79 50q-121 0 -107 -93q21 -164 -21 -193v-271q28 -22 28 -43l-36 -29q-164 -7 -178 14q-14 22 28 72v528q-42 43 -28 58z" />
    <glyph glyph-name="E" unicode="E" horiz-adv-x="482" 
d="M329 693q150 21 157 -43q7 -121 -14 -129l-43 8q-14 71 -57 92l-50 15l-15 14q-7 36 22 43zM22 693q178 7 178 -22q0 -42 -28 -57v-207l14 -14h50q36 21 57 71h43l7 -14l-7 -193h-43q-43 100 -121 57v-235l21 -22l86 36l43 -7l85 21l22 22l28 78l29 7l21 -21l-7 -143
q-7 -36 -43 -43q-14 14 -85 -28q-57 14 -115 0l-64 35q-200 -14 -207 7q-14 22 29 65v535q-43 43 -29 58z" />
    <glyph glyph-name="F" unicode="F" horiz-adv-x="550" 
d="M74 693q179 7 179 -22q0 -42 -29 -57v-207l15 -14h50l42 36l22 42q21 8 43 -21l-7 -193h-43q-43 100 -122 57v-235q50 -43 22 -65l-93 -7l-57 -28l-86 14q-36 -7 -43 21q-7 43 22 57q42 0 57 36v279q-29 143 7 150l14 43v42q-43 43 -28 58zM374 693q136 7 150 -14
q22 -15 22 -93q7 -86 -22 -86l-35 14q0 50 -65 107q-64 15 -71 36q7 36 21 36z" />
    <glyph glyph-name="G" unicode="G" horiz-adv-x="681" 
d="M285 700l28 -7l29 36q93 14 157 -58l64 8l14 -22v-107l15 -29l-7 -57q-50 0 -72 29q-36 43 -43 93q-28 28 -64 35q-21 50 -100 43l-71 -50l-29 -64q-14 -14 36 -93v-36l-36 -71v-29q29 -21 36 -85l-7 -65q21 -35 14 -78l71 -57q100 7 129 100v78q-50 43 -22 65
q72 0 93 28l100 7q50 15 65 -28l-8 -57l-50 -50q0 -65 -28 -72q-114 -93 -172 -100l-178 7q-79 29 -136 86l-107 164q-14 107 29 265l157 142z" />
    <glyph glyph-name="H" unicode="H" horiz-adv-x="678" 
d="M482 721q65 -14 150 0l50 -42v-43q-57 -72 -35 -515l-15 -21v-29q36 -35 22 -50l-36 -14q-164 -7 -179 14q-14 22 29 72v221l-21 22h-122l-50 -29l-7 -186l-21 -21v-29q35 -35 21 -50l-36 -14q-164 -7 -178 14v29l28 50l-7 421l-28 86q-65 64 -43 100l93 7l28 15h29
q43 -36 114 -50v-29l-29 -50l36 -179l36 -28h136l21 21v207q-64 65 14 100z" />
    <glyph glyph-name="I" unicode="I" horiz-adv-x="269" 
d="M73 693q164 7 178 -14q14 -22 -28 -65v-535q50 -43 21 -65l-143 -7l-50 -28l-64 35q-22 57 71 79l7 528q-42 43 -28 58z" />
    <glyph glyph-name="J" unicode="J" horiz-adv-x="358" 
d="M151 693q164 7 178 -14q14 -22 -28 -72v-421l28 -43l7 -43l-28 -86l-122 -71l-43 -43l-121 14l-71 57l-36 8q-22 28 50 114l43 21q57 -7 78 -50q-14 -50 7 -78h29l21 35q15 15 -35 122q14 143 0 250l35 64v164q-42 43 -28 58z" />
    <glyph glyph-name="K" unicode="K" horiz-adv-x="561" 
d="M1 707l79 -14h93l42 28q43 8 86 -42q7 -58 -14 -58l-64 8l-8 -15v-157l15 -21q64 14 85 121l65 43v36q-43 35 -7 78q21 7 64 -21q93 7 100 -14l-7 -43q-50 -15 -79 -115q-57 -21 -86 -78q-14 -7 0 -43l93 -121l22 -65l150 -164q7 -36 -22 -43h-171l-36 14l7 65l-150 193
q-28 14 -43 -29v-171q43 -43 29 -58l-36 -14q-164 -7 -178 14v29l28 50l-7 279l-28 78l14 150q-14 22 -64 29q-15 50 28 71z" />
    <glyph glyph-name="L" unicode="L" horiz-adv-x="538" 
d="M61 693q164 7 178 -14q15 -22 -28 -72v-528q28 -15 28 -43l-35 -29h-79l-57 -28q-93 14 -93 35v36l50 50q-7 21 22 100l7 421q-43 43 -29 58zM-25 14v36l50 50q-7 21 22 100l7 421q-43 43 -29 58l36 14q164 7 178 -14q15 -22 -28 -72v-528q28 -15 28 -43l-35 -29h-79
l-57 -28q-93 14 -93 35zM61 693q164 7 178 -14q15 -22 -28 -72v-528q28 -15 28 -43l-35 -29h-79l-57 -28q-93 14 -93 35v36l50 50q-7 21 22 100l7 421q-43 43 -29 58zM482 229h43l7 -15q7 -207 -50 -207h-135l-22 14l7 29l15 14q21 -14 100 65z" />
    <glyph glyph-name="M" unicode="M" horiz-adv-x="733" 
d="M565 729l64 -15l57 -28l7 -15l-14 -64q14 -21 -7 -128q21 -193 -22 -222v-178q43 -43 29 -58l-36 -14q-164 -7 -178 14q-15 22 28 65l-7 421l-21 -14q-8 -200 -29 -200l-50 -57l-64 -207q-65 -22 -72 21l-128 443q-7 28 -29 7v-414q29 -29 29 -57l-36 -22l-79 14
q-14 22 29 72v450l-29 57q-99 71 -28 121l200 -7l64 -35l29 -36l14 -193q50 -57 43 -93l21 -7l36 157q43 36 64 107q-14 72 0 86z" />
    <glyph glyph-name="N" unicode="N" horiz-adv-x="624" 
d="M108 207l15 -128l35 -36q22 -64 -43 -72q-50 15 -128 0l-29 43q-7 65 79 72v43q36 64 21 78l-21 122q36 42 21 57v221q-28 29 -28 57l35 22q179 7 186 -22l193 -300l50 -28l14 21v250q-28 29 -28 57l35 22l79 -15v-28l-29 -57v-479l15 -50q0 -50 -57 -71h-58l-14 14
l-14 57q-43 0 -114 229l-15 7l-164 264v7l-29 -7z" />
    <glyph glyph-name="O" unicode="O" horiz-adv-x="632" 
d="M180 543v-64l28 -50q-28 -58 0 -308q29 -28 65 -35l28 -72l-21 -14q-200 29 -200 64l-36 100q-79 107 -71 129v136q57 78 64 164l50 14l93 64l64 15q29 35 64 43q279 -43 350 -343v-57l-35 -50q0 -58 -36 -122q-86 -136 -207 -157q-36 -7 -43 14l100 100q36 57 14 429
q-36 78 -100 107q-121 21 -171 -107z" />
    <glyph glyph-name="P" unicode="P" horiz-adv-x="551" 
d="M73 714l300 -7l42 -36q129 -42 150 -150q8 -200 -221 -228q-129 21 -143 -22v-200q43 -42 29 -57l-36 -14q-164 -7 -179 14v29l29 50v521q-43 43 -29 57zM244 371q100 -28 157 122l-14 86l-72 35q-71 7 -92 -21v-200z" />
    <glyph glyph-name="Q" unicode="Q" horiz-adv-x="632" 
d="M274 693q36 7 43 -14l-21 -36q-93 -29 -100 -150v-307q21 -122 107 -143q93 -7 107 21q7 65 50 107v229l-21 36l35 71q7 29 -21 93l-86 57l-7 22l14 14q122 0 207 -114q50 -58 72 -179l-7 -150q-50 -136 -79 -157l-128 -129q-8 -50 14 -78l36 -29q78 -7 100 -28
q21 -65 -43 -72h-50q-115 14 -207 64l-36 50l-57 15l-15 43l15 7l21 -7l29 21v43l-36 28l-86 22l-14 43l-71 85q-50 136 -43 193l35 150l72 93l21 50q72 0 150 36z" />
    <glyph glyph-name="R" unicode="R" horiz-adv-x="564" 
d="M147 729h92l50 -22q58 -7 86 14q14 8 150 -107l29 -64q7 -36 -22 -150q-35 -36 -50 -21l-21 -22q-7 -14 21 -36q36 0 43 -35l7 -200q22 -36 50 -50q7 -36 -21 -43q-100 0 -143 36q-21 0 -50 85l-7 143q-29 79 -86 72l-14 -8l-43 -85v-165q43 -42 29 -57l-36 -14
q-164 -7 -179 14q-14 22 29 72v300l-43 100l36 78v43l-65 36l-7 43l43 21q114 -7 122 22zM275 393q93 -14 86 150l-7 50q-93 0 -107 36l-29 -22q-14 -171 57 -214z" />
    <glyph glyph-name="S" unicode="S" horiz-adv-x="394" 
d="M137 693l136 -7l42 -15q50 22 72 -21v-121l-14 -22l-43 7q-15 65 -57 100l-72 50h-36l-64 -43l-28 -50v-35l35 -50q236 -72 250 -100q93 -93 43 -272l-64 -78l-72 -29l-57 -43l-71 7l-43 50l-71 -14q-43 22 -58 79q0 107 36 128l50 -14q57 -150 143 -157q86 -22 150 100
q7 57 -14 86l-29 28l-221 79q-50 35 -79 100q-36 214 136 257z" />
    <glyph glyph-name="T" unicode="T" horiz-adv-x="558" 
d="M-49 493l7 150q7 36 43 43h157l86 43l121 -50l150 7q65 -22 50 -136q8 -71 -21 -79l-36 8q-50 171 -135 150l-15 -329l-21 -36v-193q28 -14 28 -50l-35 -21q-165 -7 -179 14q0 50 29 65v485q-15 43 -57 65l-58 -22q-21 -7 -57 -128q-43 -22 -57 14z" />
    <glyph glyph-name="U" unicode="U" horiz-adv-x="560" 
d="M31 694q165 7 179 -15q14 -21 -29 -64v-464l15 -50l35 -36q50 0 72 -36l-36 -28q-193 7 -236 136l-7 478l-28 36q0 50 35 43zM481 694l79 -15q14 -21 -29 -71v-436q-35 -157 -164 -150l-7 7l-21 -7l35 22l72 64q43 93 28 100v407q-28 29 -28 57z" />
    <glyph glyph-name="V" unicode="V" horiz-adv-x="563" 
d="M21 686q165 7 186 -15l-14 -71l7 -43l114 -300h29l50 136q-14 93 0 100l50 128q-29 58 36 65q57 7 78 -15v-35q-43 -22 -28 -100l-72 -115l-114 -314q21 -86 -43 -114l-50 14l-79 93l-7 21q15 36 -7 93q-86 257 -114 272l7 78l-50 79v36z" />
    <glyph glyph-name="W" unicode="W" horiz-adv-x="730" 
d="M16 714q122 -14 129 7l78 -35h65l57 28l7 -7l121 7l72 -43q7 -50 -22 -71v-79l-42 -78q-15 -22 28 -79q-7 -114 14 -121q36 -7 43 43l100 293l-7 92l22 15q85 7 85 -15v-35l-43 -57l-192 -558l-22 -21l-50 7l-78 207q-15 29 -36 7l-72 -207q-71 -43 -85 36l-193 550
l-43 50v14q7 22 64 50zM273 250l29 7l21 57l-7 93l-71 193l-22 14q-50 -7 -50 -21l29 -93q36 -36 50 -107q-7 -114 21 -143z" />
    <glyph glyph-name="X" unicode="X" horiz-adv-x="506" 
d="M22 686h171l29 -15q7 -50 -15 -64l79 -128h29l85 114l-7 78l36 15q57 7 86 -15l-8 -42l-57 -50l-107 -172l7 -43l186 -293l36 -28v-36l-22 -7h-171l-36 21l14 65l-92 150l-50 -7l-93 -143l14 -65l-14 -14l-57 -7l-58 -29l-57 36q-14 50 36 72q71 -22 86 21l128 193l-7 64
l-157 250l-43 43q0 36 29 36z" />
    <glyph glyph-name="Y" unicode="Y" horiz-adv-x="608" 
d="M183 721q43 -21 108 -14l28 -14v-29l-50 -43v-21l79 -57q14 -79 35 -100l29 7l14 43q50 28 79 86l-14 42q-58 43 -36 65q14 21 86 21l35 22q22 14 65 -36v-36l-72 -71q-86 -143 -57 -172l-7 -21q-50 -22 -50 -72v-185l14 -15v-50q29 -14 7 -57l-43 -14q-164 -7 -185 14
l28 79v214q0 50 -93 107q8 36 -100 186l-78 21q-14 22 36 65q57 0 142 35z" />
    <glyph glyph-name="Z" unicode="Z" horiz-adv-x="539" 
d="M181 721l78 -28l29 -29q0 -43 -36 -57q-64 14 -93 0q-100 -64 -93 -100q-43 -14 -50 7q-14 136 29 179l14 14h93zM352 686h136q28 0 35 -29q8 -28 -50 -114q-150 -222 -157 -272l-64 -71l-71 -114l7 -72l-36 -14q-157 -14 -164 29l21 71l114 179q29 57 36 121
q64 43 107 150l57 50l-7 71zM481 214h42l8 -21l-15 -157l-14 -22l-29 -14h-128l-22 14l8 29l14 14q57 0 93 57z" />
    <glyph glyph-name="bracketleft" unicode="[" 
 />
    <glyph glyph-name="backslash" unicode="\" 
 />
    <glyph glyph-name="bracketright" unicode="]" 
 />
    <glyph glyph-name="asciicircum" unicode="^" 
 />
    <glyph glyph-name="underscore" unicode="_" horiz-adv-x="23" 
 />
    <glyph glyph-name="grave" unicode="`" 
 />
    <glyph glyph-name="a" unicode="a" horiz-adv-x="375" 
d="M113 150q-8 -57 42 -71q43 0 72 57q7 57 -22 71h-35q-36 -14 -57 -57zM198 436q136 -15 150 -65l7 -264l43 -43v-28l-57 -36q-21 -14 -100 36h-28q-172 -100 -229 57v43q21 71 71 93l58 28q100 0 114 29q21 64 -50 107h-14q-29 -14 -36 -93q-29 -43 -79 -29l-28 29
q-15 129 178 136z" />
    <glyph glyph-name="b" unicode="b" horiz-adv-x="493" 
d="M40 715q107 14 129 -28l7 -250l29 -22l71 22q86 21 171 -79q65 -100 50 -143q15 -71 -85 -193q-136 -7 -136 -21q-243 -22 -286 50l29 93q-36 43 21 93v21q-43 43 -28 93l7 264l-36 36v28zM262 79q21 -21 78 72v193q0 21 -64 57q-57 -7 -100 -107l7 -122l43 -71z" />
    <glyph glyph-name="c" unicode="c" horiz-adv-x="383" 
d="M173 464q42 0 135 -64l22 -21l21 -50q-14 -72 -64 -79q-93 21 -100 50q14 14 0 57q-36 7 -43 -14q7 -43 -29 -93l8 -164l64 -50l43 7l85 93l29 -7q-7 -108 -157 -122q-164 -14 -214 172q-15 50 28 150l72 107l78 14z" />
    <glyph glyph-name="d" unicode="d" horiz-adv-x="431" 
d="M153 464l86 -21l35 64l-14 100l-57 29q0 78 143 64q64 0 71 -36v-578l22 -29q21 -36 -43 -71q-79 -7 -100 21h-36l-50 -28l-43 21q-136 0 -193 179q-7 107 43 178l114 100zM139 71l100 22l28 50l-21 186l-50 35q-57 -14 -57 -35l-22 -179q-7 -50 22 -79z" />
    <glyph glyph-name="e" unicode="e" horiz-adv-x="383" 
d="M140 449h57l136 -57q50 -43 72 -93q7 -50 -15 -71l-135 -7q-108 -50 -79 -108l21 -35l50 -29l43 7l72 72l28 -7q-21 -108 -164 -129q-86 7 -171 50l-50 150l-22 36l7 50l65 85zM233 292l29 14q14 15 -36 43q-36 7 -50 -21l7 -29z" />
    <glyph glyph-name="f" unicode="f" horiz-adv-x="317" 
d="M131 714l128 -7q72 -21 86 -78v-15l-36 -50h-57l-36 22l-14 -107l7 -29q50 -43 43 -57l-21 -43l-50 -43l-8 -228q29 -22 29 -43q0 -29 -29 -29h-135q-29 7 -29 22l29 64v257q-43 43 -29 64l29 36l-7 171z" />
    <glyph glyph-name="g" unicode="g" horiz-adv-x="436" 
d="M142 429h100l43 -15l114 15l29 -29q7 -43 -22 -57h-28q-29 -7 -29 -107q-28 -50 -64 -72l-36 -14l-143 -14h-7l7 -36q229 14 236 0q79 -29 79 -86q7 -93 -43 -157q-36 -43 -100 -57h-36l100 100q21 64 -21 86l-179 -7l-36 -43l7 -65l100 -64l-21 -21q-136 -7 -179 107
l29 93l-29 121l15 36l35 36v42q-50 50 -14 129q43 64 93 79zM171 200q42 -14 64 29q7 142 -22 150q-35 14 -57 -29v-129z" />
    <glyph glyph-name="h" unicode="h" horiz-adv-x="466" 
d="M121 700q50 7 65 -21l7 -265l28 -21l108 64q107 -7 150 -136v-85q-36 -57 -22 -93v-64q43 -50 0 -72h-107l-57 -28l-150 -8q-29 -7 -107 50q-7 43 14 58v21l-29 43l15 371l21 50v29l-57 36q-13 78 121 71zM279 71q28 -7 42 15v257l-14 21q-50 7 -50 -14q0 -57 -43 -86
q-7 -85 15 -150l-8 -7l15 -21z" />
    <glyph glyph-name="i" unicode="i" horiz-adv-x="223" 
d="M86 671q78 15 100 -57q-7 -64 -43 -71q-79 -14 -100 57q7 64 43 71zM121 429q65 0 72 -36v-307l21 -29q7 -43 -21 -50h-136l-21 14q-7 36 21 72v257q-36 29 -14 64z" />
    <glyph glyph-name="j" unicode="j" horiz-adv-x="241" 
d="M85 671q93 29 122 -57q0 -71 -93 -85q-57 -15 -79 114zM64 436q43 -29 114 -7l36 -36v-414q-43 -129 -29 -150l-14 -22l-93 -43q-163 -14 -150 93v14l36 50q35 22 85 -21l29 14v379l-7 50q-50 21 -43 57q14 36 36 36z" />
    <glyph glyph-name="k" unicode="k" horiz-adv-x="430" 
d="M57 721q50 8 122 -42l7 -372l28 -14q50 21 50 107q36 36 100 21q29 -7 29 -21l-7 -29q-115 -64 -86 -100l64 -50l-7 -7l129 -171l7 -43l-29 -36q-43 0 -107 36l-86 -21h-121l-50 28q-50 -7 -71 14q-8 36 21 72v221q-43 50 -36 65l15 42v186q-42 64 -29 79zM229 57h21
q14 7 -36 57v50h-28z" />
    <glyph glyph-name="l" unicode="l" horiz-adv-x="244" 
d="M114 729q50 21 100 -43l43 -143l-7 -279q-29 -28 -29 -64v-121q43 -50 0 -72h-135l-22 14v36q36 36 22 50l-7 422q-29 85 -65 121l-7 43z" />
    <glyph glyph-name="m" unicode="m" horiz-adv-x="634" 
d="M75 429h36q50 -43 71 -36l29 28l86 15l100 -57l107 57q114 -7 135 -79l8 -271l14 -22q7 -57 -22 -57h-121l-21 14l14 100v215l-22 21q-28 14 -64 -28l-28 -65v-185q28 -50 -8 -72h-121l-21 14l14 100v215l-14 21q-43 29 -100 -93v-185q28 -50 -8 -72h-128l-22 14
q-7 36 22 72v257q-36 29 -14 64z" />
    <glyph glyph-name="n" unicode="n" horiz-adv-x="474" 
d="M263 507l28 -7q7 -36 -14 -36l-36 15zM141 450l72 -7l28 -22l43 8q29 50 114 14q100 -72 93 -114v-50l-28 -72v-128q42 -50 0 -72h-150l-50 36v36q50 35 42 50v135q43 43 8 100q-50 15 -72 -35q7 -79 -21 -100l7 -86l-22 -57q29 -65 -7 -79h-135l-22 14q7 65 22 65
l-29 43l-7 42q21 8 14 165q-50 71 -14 93q0 21 114 21z" />
    <glyph glyph-name="o" unicode="o" horiz-adv-x="400" 
d="M95 322v-38l18 -30q-18 -35 0 -184q18 -17 41 -21l18 -43l-13 -8q-129 17 -129 38l-23 60q-50 64 -44 77v81q35 47 40 98l32 9l60 38l41 9q18 21 41 25q179 -25 224 -205v-34l-22 -30q0 -34 -23 -72q-55 -82 -133 -94q-23 -5 -28 8l65 60q23 34 9 256q-24 47 -65 64
q-77 13 -109 -64z" />
    <glyph glyph-name="p" unicode="p" horiz-adv-x="552" 
d="M164 429l93 -29l29 7q50 57 100 57l93 -71l42 -22l8 -21l-8 -57l22 -93l21 -43q-21 -78 -50 -100q-28 7 -121 -50q-72 -7 -143 22l-14 -15v-28q28 -22 28 -57q-21 -36 -14 -72l43 -50l-36 -28h-164l-22 14l15 86q-43 57 -29 92l14 29q-14 107 29 164v65l-29 64v43
q-7 21 -42 28l14 50zM314 43l57 21l22 36v200l-57 79l-29 7q-50 -15 -78 -93l7 -179z" />
    <glyph glyph-name="q" unicode="q" horiz-adv-x="481" 
d="M109 429h72l50 -29h35l93 50l114 -21l8 -15v-21q-50 -50 -43 -79v-114q-22 -21 -22 -71v-279q43 -50 0 -71h-135l-22 14v36l22 42v136l-22 22l-71 -22q-165 -14 -215 172q-14 57 36 171q64 79 100 79zM181 43q28 -14 100 93q28 164 -65 257q-57 14 -100 -57v-236
q0 -21 65 -57z" />
    <glyph glyph-name="r" unicode="r" horiz-adv-x="364" 
d="M50 421h121q43 -28 122 8q93 -15 100 -65q-14 -71 -57 -78h-57q-36 35 -50 21l-43 -86v-150q43 -42 28 -57l-35 -14h-143l-29 14q-7 29 22 79q-8 186 21 200v57q-43 50 0 71z" />
    <glyph glyph-name="s" unicode="s" horiz-adv-x="342" 
d="M121 443l186 -14l22 -36v-100l-29 -50q79 -193 -79 -243l-171 14l-29 29v86l22 21l36 -7q28 -79 92 -107h29l50 43v42l-50 29q-79 0 -129 36q-35 43 -50 93v107zM193 286l36 7q7 14 -43 64q-36 7 -57 -14q-8 -14 21 -36z" />
    <glyph glyph-name="t" unicode="t" horiz-adv-x="270" 
d="M93 521q71 8 86 -21l7 -57l35 -43l-28 -57q-14 -7 28 -79l8 -107l-36 -64l14 -22l50 22l22 -7q7 -43 -15 -57l-50 -50l-21 -8q-157 0 -164 115v214l14 21q7 22 -22 79l29 43q-7 64 43 78z" />
    <glyph glyph-name="u" unicode="u" horiz-adv-x="454" 
d="M26 442l64 -14q72 43 86 0q21 -15 21 -93v-57q-28 -22 -28 -50l21 -50q-14 -93 7 -100q72 0 93 64l-21 64v86l21 43q-57 64 29 100q114 0 136 -64v-65l-29 -71v-172q43 -50 0 -71q-129 -14 -136 36h-28q-65 -72 -100 -57l-86 35q-36 22 -50 79v207l-43 86q7 50 43 64z
" />
    <glyph glyph-name="v" unicode="v" horiz-adv-x="329" 
d="M-36 414q150 7 150 -21q-15 -72 0 -86l50 -107l35 7l43 100q7 50 -14 79l29 28q57 7 78 -21l-7 -36l-50 -71q-100 -279 -121 -279h-36l-43 64q-107 286 -136 286q-7 57 22 57z" />
    <glyph glyph-name="w" unicode="w" horiz-adv-x="585" 
d="M123 450q72 14 86 -57l-14 -79l7 -93h29q57 186 92 208q65 7 65 -43l-7 -43l50 -72v-50h21q-7 86 21 93l-21 93l43 29q100 -15 114 0l29 -22v-43q-15 -21 -36 -14l-36 -43l-7 -43l-64 -92q-14 -72 -64 -172q-58 -7 -58 14l-50 122l-28 43l-29 -7l-64 -165q-64 -21 -71 22
l-108 300l-42 35l-8 22l29 36l100 7z" />
    <glyph glyph-name="x" unicode="x" horiz-adv-x="379" 
d="M2 406l143 -7q28 -21 28 -78q43 -36 58 -15q14 7 14 79q57 43 114 7l-7 -43q-93 -64 -100 -136q79 -121 136 -171q7 -43 -22 -50l-143 7q-14 0 -35 93q-43 36 -57 14l-22 -21q0 -136 -114 -79l7 43q121 86 107 150q-78 114 -128 157q-8 43 21 50z" />
    <glyph glyph-name="y" unicode="y" horiz-adv-x="410" 
d="M229 242l64 71l-21 100l28 22q93 7 100 -22v-42l-57 -79q-28 -86 -28 -179l-22 -42l-36 -36l-114 -229q-50 -50 -71 -43q-50 0 -72 58q7 50 43 64q72 -14 86 7l36 71l-8 50l-35 29l-22 93l-85 107q-8 86 -22 86l-50 -15q7 129 164 143l29 -7q50 -50 43 -128
q50 -22 50 -79z" />
    <glyph glyph-name="z" unicode="z" horiz-adv-x="396" 
d="M125 443l7 -7l122 7l43 -29q57 0 57 -28v-29l-43 -71l-14 -72l-122 -114q-14 -36 7 -79l-43 -21q-135 -14 -150 29l8 42l128 193q14 57 -7 72q-36 7 -57 -72q-43 -21 -57 15q-7 121 14 121zM311 171q43 8 50 -21q21 -136 -43 -150q-100 -7 -114 21l78 79z" />
    <glyph glyph-name="braceleft" unicode="{" 
 />
    <glyph glyph-name="bar" unicode="|" 
 />
    <glyph glyph-name="braceright" unicode="}" 
 />
    <glyph glyph-name="asciitilde" unicode="~" 
 />
    <glyph glyph-name="quotesinglbase" unicode="&#x201a;" 
 />
    <glyph glyph-name="florin" unicode="&#x192;" 
 />
    <glyph glyph-name="quotedblbase" unicode="&#x201e;" 
 />
    <glyph glyph-name="ellipsis" unicode="&#x2026;" 
 />
    <glyph glyph-name="dagger" unicode="&#x2020;" 
 />
    <glyph glyph-name="daggerdbl" unicode="&#x2021;" 
 />
    <glyph glyph-name="circumflex" unicode="&#x2c6;" 
 />
    <glyph glyph-name="perthousand" unicode="&#x2030;" 
 />
    <glyph glyph-name="Scaron" unicode="&#x160;" 
 />
    <glyph glyph-name="guilsinglleft" unicode="&#x2039;" 
 />
    <glyph glyph-name="OE" unicode="&#x152;" 
 />
    <glyph glyph-name="quoteleft" unicode="&#x2018;" 
 />
    <glyph glyph-name="quoteright" unicode="&#x2019;" 
 />
    <glyph glyph-name="quotedblleft" unicode="&#x201c;" 
 />
    <glyph glyph-name="quotedblright" unicode="&#x201d;" 
 />
    <glyph glyph-name="bullet" unicode="&#x2022;" 
 />
    <glyph glyph-name="endash" unicode="&#x2013;" 
 />
    <glyph glyph-name="emdash" unicode="&#x2014;" 
 />
    <glyph glyph-name="tilde" unicode="&#x2dc;" 
 />
    <glyph glyph-name="trademark" unicode="&#x2122;" 
 />
    <glyph glyph-name="scaron" unicode="&#x161;" 
 />
    <glyph glyph-name="guilsinglright" unicode="&#x203a;" 
 />
    <glyph glyph-name="oe" unicode="&#x153;" 
 />
    <glyph glyph-name="Ydieresis" unicode="&#x178;" 
 />
    <glyph glyph-name="nonbreakingspace" unicode="&#xa0;" 
 />
    <glyph glyph-name="exclamdown" unicode="&#xa1;" 
 />
    <glyph glyph-name="cent" unicode="&#xa2;" horiz-adv-x="28" 
 />
    <glyph glyph-name="sterling" unicode="&#xa3;" horiz-adv-x="495" 
d="M314 693q50 7 65 -22q85 -85 85 -121q0 -107 -64 -129q-71 22 -86 79l29 79l-14 14q-15 21 -65 -43l7 -129l22 -21q71 -7 93 -36l-7 -28q-50 -36 -79 -22l-29 -43l-7 -128l22 -22l100 8l43 50q35 7 42 -22q-14 -143 -114 -164h-43l-93 43h-35q-65 -50 -100 -43
q-72 21 -79 78q14 72 57 86l72 7l21 22l-28 114l-72 29q-14 21 0 42l43 29l7 179l114 85zM93 57l36 14l-8 29q-28 7 -42 -14z" />
    <glyph glyph-name="currency" unicode="&#xa4;" 
 />
    <glyph glyph-name="yen" unicode="&#xa5;" 
 />
    <glyph glyph-name="brokenbar" unicode="&#xa6;" 
 />
    <glyph glyph-name="section" unicode="&#xa7;" 
 />
    <glyph glyph-name="dieresis" unicode="&#xa8;" 
 />
    <glyph glyph-name="copyright" unicode="&#xa9;" 
 />
    <glyph glyph-name="ordfeminine" unicode="&#xaa;" 
 />
    <glyph glyph-name="guillemotleft" unicode="&#xab;" 
 />
    <glyph glyph-name="logicalnot" unicode="&#xac;" horiz-adv-x="8" 
 />
    <glyph glyph-name="minus" unicode="&#xad;" 
 />
    <glyph glyph-name="minus" unicode="&#x2212;" 
 />
    <glyph glyph-name="registered" unicode="&#xae;" 
 />
    <glyph glyph-name="macron" unicode="&#xaf;" 
 />
    <glyph glyph-name="macron" unicode="&#x2c9;" 
 />
    <glyph glyph-name="degree" unicode="&#xb0;" 
 />
    <glyph glyph-name="plusminus" unicode="&#xb1;" 
 />
    <glyph glyph-name="twosuperior" unicode="&#xb2;" 
 />
    <glyph glyph-name="threesuperior" unicode="&#xb3;" 
 />
    <glyph glyph-name="acute" unicode="&#xb4;" 
 />
    <glyph glyph-name="mu1" unicode="&#xb5;" 
 />
    <glyph glyph-name="mu1" unicode="&#x3bc;" 
 />
    <glyph glyph-name="paragraph" unicode="&#xb6;" 
 />
    <glyph glyph-name="periodcentered" unicode="&#xb7;" 
 />
    <glyph glyph-name="periodcentered" unicode="&#x2219;" 
 />
    <glyph glyph-name="cedilla" unicode="&#xb8;" 
 />
    <glyph glyph-name="onesuperior" unicode="&#xb9;" 
 />
    <glyph glyph-name="ordmasculine" unicode="&#xba;" 
 />
    <glyph glyph-name="guillemotright" unicode="&#xbb;" 
 />
    <glyph glyph-name="onequarter" unicode="&#xbc;" 
 />
    <glyph glyph-name="onehalf" unicode="&#xbd;" 
 />
    <glyph glyph-name="threequarters" unicode="&#xbe;" 
 />
    <glyph glyph-name="questiondown" unicode="&#xbf;" 
 />
    <glyph glyph-name="Agrave" unicode="&#xc0;" 
 />
    <glyph glyph-name="Aacute" unicode="&#xc1;" 
 />
    <glyph glyph-name="Acircumflex" unicode="&#xc2;" 
 />
    <glyph glyph-name="Atilde" unicode="&#xc3;" 
 />
    <glyph glyph-name="Adieresis" unicode="&#xc4;" 
 />
    <glyph glyph-name="Aring" unicode="&#xc5;" 
 />
    <glyph glyph-name="AE" unicode="&#xc6;" 
 />
    <glyph glyph-name="Ccedilla" unicode="&#xc7;" 
 />
    <glyph glyph-name="Egrave" unicode="&#xc8;" 
 />
    <glyph glyph-name="Eacute" unicode="&#xc9;" 
 />
    <glyph glyph-name="Ecircumflex" unicode="&#xca;" 
 />
    <glyph glyph-name="Edieresis" unicode="&#xcb;" 
 />
    <glyph glyph-name="Igrave" unicode="&#xcc;" 
 />
    <glyph glyph-name="Iacute" unicode="&#xcd;" 
 />
    <glyph glyph-name="Icircumflex" unicode="&#xce;" 
 />
    <glyph glyph-name="Idieresis" unicode="&#xcf;" 
 />
    <glyph glyph-name="Eth" unicode="&#xd0;" 
 />
    <glyph glyph-name="Ntilde" unicode="&#xd1;" 
 />
    <glyph glyph-name="Ograve" unicode="&#xd2;" 
 />
    <glyph glyph-name="Oacute" unicode="&#xd3;" 
 />
    <glyph glyph-name="Ocircumflex" unicode="&#xd4;" 
 />
    <glyph glyph-name="Otilde" unicode="&#xd5;" 
 />
    <glyph glyph-name="Odieresis" unicode="&#xd6;" 
 />
    <glyph glyph-name="multiply" unicode="&#xd7;" 
 />
    <glyph glyph-name="Oslash" unicode="&#xd8;" 
 />
    <glyph glyph-name="Ugrave" unicode="&#xd9;" 
 />
    <glyph glyph-name="Uacute" unicode="&#xda;" 
 />
    <glyph glyph-name="Ucircumflex" unicode="&#xdb;" 
 />
    <glyph glyph-name="Udieresis" unicode="&#xdc;" 
 />
    <glyph glyph-name="Yacute" unicode="&#xdd;" 
 />
    <glyph glyph-name="Thorn" unicode="&#xde;" 
 />
    <glyph glyph-name="germandbls" unicode="&#xdf;" 
 />
    <glyph glyph-name="agrave" unicode="&#xe0;" 
 />
    <glyph glyph-name="aacute" unicode="&#xe1;" 
 />
    <glyph glyph-name="acircumflex" unicode="&#xe2;" 
 />
    <glyph glyph-name="atilde" unicode="&#xe3;" 
 />
    <glyph glyph-name="adieresis" unicode="&#xe4;" 
 />
    <glyph glyph-name="aring" unicode="&#xe5;" 
 />
    <glyph glyph-name="ae" unicode="&#xe6;" 
 />
    <glyph glyph-name="ccedilla" unicode="&#xe7;" 
 />
    <glyph glyph-name="egrave" unicode="&#xe8;" 
 />
    <glyph glyph-name="eacute" unicode="&#xe9;" 
 />
    <glyph glyph-name="ecircumflex" unicode="&#xea;" 
 />
    <glyph glyph-name="edieresis" unicode="&#xeb;" 
 />
    <glyph glyph-name="igrave" unicode="&#xec;" 
 />
    <glyph glyph-name="iacute" unicode="&#xed;" 
 />
    <glyph glyph-name="icircumflex" unicode="&#xee;" 
 />
    <glyph glyph-name="idieresis" unicode="&#xef;" 
 />
    <glyph glyph-name="eth" unicode="&#xf0;" 
 />
    <glyph glyph-name="ntilde" unicode="&#xf1;" 
 />
    <glyph glyph-name="ograve" unicode="&#xf2;" 
 />
    <glyph glyph-name="oacute" unicode="&#xf3;" 
 />
    <glyph glyph-name="ocircumflex" unicode="&#xf4;" 
 />
    <glyph glyph-name="otilde" unicode="&#xf5;" 
 />
    <glyph glyph-name="odieresis" unicode="&#xf6;" 
 />
    <glyph glyph-name="divide" unicode="&#xf7;" 
 />
    <glyph glyph-name="oslash" unicode="&#xf8;" 
 />
    <glyph glyph-name="ugrave" unicode="&#xf9;" 
 />
    <glyph glyph-name="uacute" unicode="&#xfa;" 
 />
    <glyph glyph-name="ucircumflex" unicode="&#xfb;" 
 />
    <glyph glyph-name="udieresis" unicode="&#xfc;" 
 />
    <glyph glyph-name="yacute" unicode="&#xfd;" 
 />
    <glyph glyph-name="thorn" unicode="&#xfe;" 
 />
    <glyph glyph-name="ydieresis" unicode="&#xff;" 
 />
    <glyph glyph-name="Lslash" unicode="&#x141;" 
 />
    <glyph glyph-name="lslash" unicode="&#x142;" 
 />
    <glyph glyph-name="fraction" unicode="&#x2044;" 
 />
    <glyph glyph-name="fi" unicode="&#xf001;" 
 />
    <glyph glyph-name="fl" unicode="&#xf002;" 
 />
    <glyph glyph-name="Zcaron" unicode="&#x17d;" 
 />
    <glyph glyph-name="zcaron" unicode="&#x17e;" 
 />
    </font>
</defs>
</svg>
