<?xml version="1.0" standalone="no"?>
<!DOCTYPE svg PUBLIC "-//W3C//DTD SVG 1.1//EN" "http://www.w3.org/Graphics/SVG/1.1/DTD/svg11.dtd" >
<svg>
<metadata>
Created by FontForge 20120731 at Sun Jun 30 15:23:10 2019
 By www
Copyright (c) 2010 by Gilles Le Corre. All rights reserved.
</metadata>
<defs>
<font id="1529ChampFleuryW01-Regular" horiz-adv-x="560" >
  <font-face 
    font-family="1529ChampFleuryW01-Regular"
    font-weight="400"
    font-stretch="normal"
    units-per-em="1000"
    panose-1="2 10 5 2 6 0 0 2 0 0"
    ascent="800"
    descent="-200"
    x-height="451"
    cap-height="739"
    bbox="-105.889 -356 1121 972"
    underline-thickness="50"
    underline-position="-125"
    unicode-range="U+0020-2122"
  />
<missing-glyph horiz-adv-x="417" 
d="M381 481q0 -27 -1.5 -77.5t-1.5 -77.5q0 -16 7.5 -46.5t7.5 -46.5q0 -27 -6 -74q-6 -53 -7 -75q-1 -10 -1 -30t14 -26q-14 -25 -12.5 -62.5t1.5 -56.5q0 -36 -40 -34q-25 16 -55 20q-8 -7 -16 -8q-18 5 -31 7q-6 -1 -14 -2q-26 -5 -40 -4q-11 -7 -35 -15l-29 11
q-8 -3 -13 -4q-36 16 -73 32q-38 20 -38 60q0 33 26 85v6q-1 13 4.5 36.5t5.5 35.5q0 15 -11 45.5t-11 44.5q0 9 10 23.5t10 22.5q0 11 -5.5 32.5t-5.5 32.5q0 9 11 28.5t11 30.5q0 28 -10.5 87.5t-10.5 90.5q0 8 1 24.5t1 24.5q0 4 -5.5 16.5t-5.5 22.5q0 37 29 49l2 2
l13 5q7 0 22 -5l2 2l14 4q8 -1 25 -7q3 -1 5 -2q6 2 14 4q22 6 31 7t24 -2q7 -2 12 -2h5q5 0 12 -1q10 1 27 5q23 5 35 5q26 0 36 -11q12 1 21 0q11 7 24 7l8 -2q17 -65 17 -124q0 -18 -5 -57t-5 -57zM126 624q-14 7 -44 -6q-3 -18 -3 -23q0 -17 6.5 -51.5t6.5 -51.5
q0 -25 -11 -76.5t-11 -76.5q0 -14 7.5 -42.5t7.5 -43.5q0 -24 -5.5 -71t-5.5 -71q0 -9 -8 -29t-8 -30q0 -18 7 -43q8 -28 10 -36l6 2q8 -1 25 -7h1q29 4 45 4q9 0 28 -1q10 1 17 1q9 0 26 -3q8 -2 14 -3h6h17q8 1 18 3q18 3 27 3q6 24 22 57q0 14 5.5 41.5t5.5 40.5v43v42
q0 10 0.5 30t0.5 29q0 12 -5.5 35t-5.5 35q0 11 0.5 33.5t-8.5 73.5q4 134 9 144t5 51l-1 6h-2q-33 7 -52 7q-13 0 -39 -4.5t-40 -4.5q-11 -6 -35 -14l-30 10q-6 -3 -9 -3z" />
    <glyph glyph-name=".notdef" horiz-adv-x="417" 
d="M381 481q0 -27 -1.5 -77.5t-1.5 -77.5q0 -16 7.5 -46.5t7.5 -46.5q0 -27 -6 -74q-6 -53 -7 -75q-1 -10 -1 -30t14 -26q-14 -25 -12.5 -62.5t1.5 -56.5q0 -36 -40 -34q-25 16 -55 20q-8 -7 -16 -8q-18 5 -31 7q-6 -1 -14 -2q-26 -5 -40 -4q-11 -7 -35 -15l-29 11
q-8 -3 -13 -4q-36 16 -73 32q-38 20 -38 60q0 33 26 85v6q-1 13 4.5 36.5t5.5 35.5q0 15 -11 45.5t-11 44.5q0 9 10 23.5t10 22.5q0 11 -5.5 32.5t-5.5 32.5q0 9 11 28.5t11 30.5q0 28 -10.5 87.5t-10.5 90.5q0 8 1 24.5t1 24.5q0 4 -5.5 16.5t-5.5 22.5q0 37 29 49l2 2
l13 5q7 0 22 -5l2 2l14 4q8 -1 25 -7q3 -1 5 -2q6 2 14 4q22 6 31 7t24 -2q7 -2 12 -2h5q5 0 12 -1q10 1 27 5q23 5 35 5q26 0 36 -11q12 1 21 0q11 7 24 7l8 -2q17 -65 17 -124q0 -18 -5 -57t-5 -57zM126 624q-14 7 -44 -6q-3 -18 -3 -23q0 -17 6.5 -51.5t6.5 -51.5
q0 -25 -11 -76.5t-11 -76.5q0 -14 7.5 -42.5t7.5 -43.5q0 -24 -5.5 -71t-5.5 -71q0 -9 -8 -29t-8 -30q0 -18 7 -43q8 -28 10 -36l6 2q8 -1 25 -7h1q29 4 45 4q9 0 28 -1q10 1 17 1q9 0 26 -3q8 -2 14 -3h6h17q8 1 18 3q18 3 27 3q6 24 22 57q0 14 5.5 41.5t5.5 40.5v43v42
q0 10 0.5 30t0.5 29q0 12 -5.5 35t-5.5 35q0 11 0.5 33.5t-8.5 73.5q4 134 9 144t5 51l-1 6h-2q-33 7 -52 7q-13 0 -39 -4.5t-40 -4.5q-11 -6 -35 -14l-30 10q-6 -3 -9 -3z" />
    <glyph glyph-name="glyph1" horiz-adv-x="0" 
 />
    <glyph glyph-name="glyph1" horiz-adv-x="0" 
 />
    <glyph glyph-name="nonmarkingreturn" horiz-adv-x="333" 
 />
    <glyph glyph-name="space" unicode=" " horiz-adv-x="392" 
 />
    <glyph glyph-name="exclam" unicode="!" horiz-adv-x="250" 
d="M173 624q0 -17 -24 -78l9 -54q3 -15 3 -31q0 -23 -21 -112q3 -11 3 -61q0 -55 -57 -55q-14 0 -16 29q1 -17 1 40q0 35 -8 50q-6 -10 -9 -10q-2 0 -2 6q0 7 4 27t4 23q0 35 -9 83t-9 75q0 5 9 72q30 24 52 24q16 0 39.5 -8.5t30.5 -19.5zM198 82q0 -23 -31.5 -64.5
t-55.5 -41.5l-12 2q-13 15 -45 38q-30 32 -30 59q0 19 31.5 50t51.5 31q31 0 61 -22.5t30 -51.5z" />
    <glyph glyph-name="quotedbl" unicode="&#x22;" horiz-adv-x="442" 
d="M372 585q0 -29 -5.5 -64t-5.5 -62.5t-11 -67.5q-13 -51 -31 -51q-11 0 -31 11t-20 21q0 6 8.5 12t7.5 22q0 6 -1 19.5t-1 20.5q0 12 7 24q9 16 11 22q-18 4 -31.5 24.5t-13.5 44.5v48q3 33 18 33q5 0 38.5 9t46.5 9q8 0 11 -4t3 -71zM216 567q0 -11 4 -27t4 -21
q0 -10 -12 -13q2 -7 2 -13q0 -14 -14 -39t-14 -42q0 -16 8.5 -22t8.5 -12q0 -11 -10 -20.5t-20 -9.5q-22 0 -39 45q-14 37 -14 64q0 19 -15 58t-15 66q0 4 -3.5 23.5t-3.5 28.5q0 15 20 20q28 7 66 7q16 0 32 -38q15 -34 15 -55z" />
    <glyph glyph-name="numbersign" unicode="#" 
d="M496 542q0 -47 -94 -47q-13 0 -33.5 1t-24.5 1q-12 -17 -14 -72q37 4 63 4q76 0 75 -26q-22 -41 -76 -41q-9 0 -34 2q-22 1 -35 0h-13q-9 -21 -9 -37q0 -9 5.5 -31t5.5 -43q0 -24 -3 -30q-5 -11 -27 -11q-19 0 -39 17.5t-20 35.5q0 8 14.5 32t14.5 61l-23 -1
q-10 -1 -34.5 -5t-36.5 -4q-7 0 -12 1q-11 -25 -11 -35q0 -2 2 -15t2 -31q0 -53 -35 -53q-18 0 -29 14t-11 32q0 8 14.5 32t14.5 68q-85 4 -85 32q0 34 53 33q7 0 51 -4q7 6 8 35.5t21 43.5l-23 5q-10 0 -31 -11.5t-33 -11.5q-38 0 -38 33q0 22 16.5 38.5t37.5 16.5
q15 0 42.5 -5t41.5 -5q2 23 14 57q10 29 10 55q0 16 14.5 27t30.5 11q3 0 20.5 -12t19.5 -12l-30 -60q-8 -31 -19 -70l40 -2q12 0 60 10q2 22 14 56q10 29 10 55q0 16 14 27t31 11l16 -5l2 -44q1 -10 -3 -23q-5 -22 -23 -76q14 5 45 5q76 0 76 -29zM294 499q-7 0 -34 4
q-21 2 -34 2q-7 0 -19 -2q-15 -3 -20 -3q-13 -28 -14 -37l-2 -40q45 5 68 5q18 0 33 -2q7 5 7.5 31.5t14.5 41.5z" />
    <glyph glyph-name="dollar" unicode="$" horiz-adv-x="561" 
d="M499 547q-12 -25 -31 -25q-16 0 -44 23q-34 28 -44 32q-26 40 -65 34l-22 -28q8 -56 3 -90q1 -10 -2 -45q10 -10 27 -24q30 -17 118 -59q6 -3 22 -26q0 -9 5 -25q10 -15 20 -34l3 -84q1 -37 -33 -78q-31 -37 -63 -48q-19 -6 -57 -16q-10 -1 -33 -4q10 -30 8 -46
q-1 -26 -36 -26q-15 0 -25 12q-20 23 -17 57q-26 4 -53 8h-69q-11 3 -34 8q-14 2 -21 5q-14 4 -21 15q-20 31 -23 45q1 15 -2 44q-1 5 -11 20q-7 12 -5 18q16 45 35 45q14 0 34.5 -14.5t32.5 -31.5q18 -13 49 -42q17 -18 36 -26q2 -4 21 -11q15 2 33 2q0 19 5 36q9 30 6 43
l1 37q1 54 -2 58l-13 20q-5 -1 -22 9.5t-17 12.5h1q3 -1 16 -9q-18 11 -36 27q-13 12 -29 18q-43 17 -77 65q-27 39 -37 80q-1 3 8.5 13.5t10.5 12.5q0 8 5 22q38 44 69 54q11 4 33.5 21t32.5 19q3 0 34 -1q-1 3 -1 6q-2 22 8 38q3 6 25 8q21 1 32 -4q3 -9 0 -22t0 -21
q38 5 53 0q11 -4 36 -3.5t39 -4.5q58 -19 60.5 -33t9.5 -36l8 -16q7 -15 7 -25q0 -6 -2 -10zM244 590q-15 17 -26 17t-21 -20l-12 -30q-16 -25 -16 -44q0 -35 68 -65q11 26 10 70q-1 36 -3 72zM388 194q3 6 3 11q0 6 -5.5 14.5t-6.5 11.5q-8 22 -28 44q-15 15 -30 31
q-2 0 -7.5 -7t-7.5 -7q-3 -20 -7 -43q-1 -24 2 -84q-1 -6 6 -25q19 3 53 16q13 8 28 38z" />
    <glyph glyph-name="percent" unicode="%" horiz-adv-x="829" 
d="M745 139q1 -16 5.5 -41.5t4.5 -36.5q0 -27 -24 -42q-1 1 -4 1q-6 0 -27 -12q-24 -14 -32 -16q-32 -9 -96 -26q-25 8 -31 6q-16 -6 -34 -6q-30 0 -55 17q-13 8 -21 58q-2 16 -11 34t-9 25q0 5 3 11t23 26q22 24 33 25q7 6 20 19q30 22 38 33q3 4 16 8q23 3 64 14
q8 6 30 15q16 3 43 -17q22 -15 34 -31q1 -9 7 -28q11 -11 23 -36zM452 435q-5 -11 -12 -33q-3 -23 -5 -45q-4 -30 -12 -47q-15 -32 -41 -89q0 -22 -7 -68q-17 -37 -38 -102q-11 -14 -25 -43q-2 -12 -2 -43q1 -27 -4 -39.5t-17 -13.5q-28 -5 -36 13q-6 10 -6 22q0 30 40 73
q2 10 9 27q14 21 16 35v61q0 7 12 17.5t13 14.5q1 18 4 48q1 7 16 22t15 25q0 82 31 164q-2 8 -2 26q4 17 16 28q5 5 15 7q12 3 19 -3q1 -60 1 -57zM308 388q1 -15 5 -41t4 -36q0 -28 -24 -42q-1 1 -3 1q-7 0 -28 -12q-24 -14 -31 -17q-32 -8 -96 -26q-25 9 -32 7
q-16 -7 -33 -7q-31 0 -56 17q-12 9 -20 59q-3 15 -11.5 33t-8.5 25q0 5 2.5 11.5t24 28t32.5 22.5q6 7 20 19q29 22 37 33q3 4 17 8q22 4 64 14q8 7 29 16q16 3 43 -17q22 -16 34 -31q1 -10 7 -28q11 -11 24 -37zM625 42q11 11 11 40q0 36 -11 51q-22 29 -62 29
q-14 0 -23 -5q-19 -11 -19 -43q0 -47 41 -64q11 -7 27 -15q17 -6 36 7zM187 292q12 10 12 40q0 35 -12 51q-22 29 -62 29q-13 0 -23 -6q-19 -11 -19 -42q0 -48 41 -65l28 -14q16 -6 35 7z" />
    <glyph glyph-name="ampersand" unicode="&#x26;" horiz-adv-x="763" 
d="M696 140q-6 -31 -36.5 -65.5t-66.5 -50.5q-13 -12 -40 -24q-40 -2 -98 51q-17 18 -35 37t-34 19t-33 -17q-29 -28 -74 -58q-48 -31 -70 -33q-2 0 -15.5 -8t-19.5 -8q-3 0 -5 1q-44 23 -88 45q-58 33 -65 71q-7 11 -15 31q-2 8 3 26q8 30 8 31v79q0 6 -2.5 13.5t-2.5 10.5
q0 11 27 24q9 2 32 4q4 0 22 10q22 12 22 29q0 9 -9 32q-2 10 -4 21q-4 16 -14 21q8 10 -2 24q-16 24 -16 46q0 24 26 68l24 52q21 41 49 60q14 10 24.5 10t12.5 1q23 11 46 21q31 13 54 13q21 0 38 -11q7 -1 21 -5q15 -15 22 -30q23 -53 45 -96q3 -5 -3 -17q-8 -17 -9 -21
q-6 -27 -23 -48q-22 -28 -24 -32q-1 -3 20 -38q9 -15 14 -21q12 -13 32 -23q19 -9 54 46q26 41 37 85q9 11 23 33q1 12 10 33q17 21 46 21q25 0 47.5 -14.5t32.5 -37.5q3 -5 3 -10q0 -13 -25 -31q-33 -25 -42 -36q-12 -14 -33 -41q-11 0 -11 -1q-68 -64 -68 -110
q0 -11 3 -21q-5 -12 -5 -28q0 -39 26 -73q28 -37 64 -37q24 0 47 19q3 2 7 2q14 0 31 -16.5t15 -27.5zM311 531q1 22 -18.5 48.5t-45.5 26.5q-14 0 -49.5 -14t-49.5 -23q-7 -11 -7 -19q0 -17 34 -31q45 -20 54 -28t22 -8q21 0 40.5 14.5t19.5 33.5zM276 298q-3 1 -35 21
q-22 13 -36 13q-18 0 -39 -24t-21 -42q0 -3 1 -6q-1 -11 -4 -28q-3 -8 -3 -17q0 -34 35.5 -65t70.5 -31q11 0 20 3t25 5q28 3 50.5 30.5t22.5 55.5q0 46 -87 85z" />
    <glyph glyph-name="quotesingle" unicode="'" horiz-adv-x="437" 
d="M336 579q-33 -59 -36 -62q-8 -7 -75 -60q-7 -6 -24.5 -48.5t-23.5 -45.5q-3 -1 -12 1q-12 2 -13 2q-7 0 -22 -4t-22 -4q-10 0 -10 13q0 7 4 24.5t4 25.5t48.5 68t48.5 86t-28.5 58.5t-28.5 55.5q0 69 32 77q8 2 20.5 17.5t19.5 15.5q5 0 13.5 -4t12.5 -4q3 -1 11 1.5
t11 2.5q4 0 7 -2q47 -30 55 -54q4 -10 3 -76q5 -12 5 -84z" />
    <glyph glyph-name="parenleft" unicode="(" horiz-adv-x="327" 
d="M235 677q0 -24 -133 -176q-2 -2 -28 -106.5t-26 -114.5q0 -30 29 -126q30 -102 47 -114q9 -19 18.5 -38.5t25.5 -32.5q34 -26 40 -32q23 -23 23 -44q0 -18 -15 -26l-6 -1q-20 0 -60 49q-51 62 -57 66q-6 11 -11 33t-14 34q-47 65 -47 155q0 14 3.5 42.5t3.5 41.5
q0 10 -4 30.5t-4 30.5q0 52 18 82q14 10 19 47q6 43 14 56q106 159 137 169l16 -4q11 -9 11 -21z" />
    <glyph glyph-name="parenright" unicode=")" horiz-adv-x="389" 
d="M366 278q0 -69 -43 -166q-5 -18 -18 -52q-9 -21 -33 -49q-33 -38 -37 -45t-10 -18q-19 -16 -43 -42q-7 -14 -13 -27q-11 -16 -29 -16q-16 0 -28.5 9.5t-12.5 21.5q0 42 83 106q3 9 14 24q37 31 71 98.5t34 109.5q0 9 2 26.5t2 26.5q0 89 -49 195q-8 9 -21 26q-3 14 -9 38
q-1 7 -66.5 60t-65.5 75q0 19 31 19q17 0 25 -6q14 -9 35 -32q23 -26 33 -35q6 -3 15 -11q97 -143 107 -176q15 -51 15 -107q0 -9 5.5 -26.5t5.5 -26.5z" />
    <glyph glyph-name="asterisk" unicode="*" horiz-adv-x="386" 
d="M350 517q0 -3 -25 -19t-25 -35q0 -18 20.5 -39.5t20.5 -31.5l-4 -13v2q-38 16 -50 16q-26 0 -26 -28q0 -5 1.5 -16.5t1.5 -16.5q0 -13 -8 -13q-7 0 -23.5 27.5t-30.5 27.5l-4 -1q-7 -6 -16 -40q-8 -30 -21 -30q-18 0 -24.5 33.5t-24.5 33.5q-12 0 -35 -16t-30 -16l-6 8
q0 8 17.5 31.5t17.5 35.5q0 19 -34.5 23t-33.5 17l42 16q30 14 30 26q0 13 -26.5 28.5t-26.5 27.5t28 12q10 0 29.5 -3.5t29.5 -3.5q26 0 28.5 46t29.5 46q18 -74 32 -74t33.5 20.5t27.5 23.5q11 -7 11 -22q0 -8 -4 -23t-4 -23q0 -28 41 -28q5 0 15.5 3t15.5 3z" />
    <glyph glyph-name="plus" unicode="+" 
d="M426 232q0 -13 -8 -32q-8 -23 -18 -24l-12 5q-13 -18 -31 -18q-5 0 -16 4t-17 4q-48 0 -65 -19q-14 -15 -14 -52q0 -8 1 -27t1 -30q0 -44 -31 -50l-12 -9q-9 1 -20 17q-31 11 -31 71v26q1 15 1 22v11q-19 26 -43 29l-62 4q-6 6 -22 7q-6 1 -6 -1q0 -4 7 -4v1q0 1 -17 18
t-17 27q0 33 42 43q39 7 78 13q42 12 42 50q0 109 -1 112l3 10q23 32 48 32q30 0 30 -52q0 -9 -1 -24t-1 -19q0 -30 9 -57q13 -38 38 -38q9 0 23 7q12 -6 28 -8q11 -1 29 -1q27 1 29 1l6 3q12 0 21 -19t9 -33z" />
    <glyph glyph-name="comma" unicode="," horiz-adv-x="392" 
d="M286 61q-5 -12 -15 -35q0 -10 -4 -30q-7 -18 -32 -44.5t-43 -37.5q-15 -1 -43 -10q-7 -4 -17 -22q-11 -21 -23 -32q-7 -5 -21.5 -17t-30.5 -12q-11 1 -14 1q-7 2 -13 10q-14 18 -14 48q0 10 4 17q20 36 51 62q12 8 25 17q20 13 31.5 29t11.5 39q0 21 -8.5 38t-50.5 25
q-1 0 -28 19q-4 9 -4 20q0 38 35.5 74t74.5 35q38 -2 74 -37q33 -33 49 -77q12 -34 5 -80z" />
    <glyph glyph-name="hyphen" unicode="-" horiz-adv-x="416" 
d="M275 404q24 -4 24 -32q0 -39 -25 -53q-19 -3 -56 -12l-26 -16q-24 -15 -39 -16q-4 0 -14.5 -11.5t-17.5 -14.5q-2 -1 -31 6q-7 2 -18 -1q-14 -3 -19 -3q-9 0 -18 5q-27 5 -27 40q0 13 5 24q3 7 12 9q16 -1 53 4q20 12 57 31q13 5 28.5 6t19.5 2q14 8 41 21q36 14 51 11z
M355 196q-29 -30 -69 -38q-32 -7 -43 -33q-80 -35 -125 -42q-13 -1 -32 -13q-27 -17 -32 -19q-48 3 -48 31q0 33 55 82q54 46 93 52q10 -13 20 -13q8 0 22.5 10.5t22.5 12.5q82 21 93 21q18 0 33 -9.5t15 -24.5q0 -8 -5 -17z" />
    <glyph glyph-name="period" unicode="." horiz-adv-x="346" 
d="M234 135q0 -2 -19 -33q-35 -56 -43 -67q-14 -20 -29 -29q-6 -8 -13 -8q-10 0 -32 27q-24 32 -37 40h-15q-12 0 -16 7q-12 20 -12 50q0 21 9.5 30t25.5 28.5t19 23.5q13 15 24 17q12 -3 36 -3q23 5 62.5 -29.5t39.5 -53.5z" />
    <glyph glyph-name="slash" unicode="/" horiz-adv-x="489" 
d="M403 644q-4 -29 -14 -78q-10 -14 -24 -42q-10 -29 -20 -59q-12 -38 -27 -60q-27 -39 -75 -109q-6 -30 -27 -90q-15 -29 -45 -73q-23 -35 -30 -54q-17 -16 -43 -52q-8 -21 -15 -60q-7 -34 -16 -49t-23 -15q-35 1 -41 27q-1 8 -1 16q0 47 70 104q5 13 19 34q22 24 28 43
l18 82q2 9 19.5 20t20.5 17q6 23 18 63q3 9 25.5 25.5t24.5 29.5q24 111 84 213q1 3 2 20q1 30 30 50q8 5 20 5q15 0 22 -8z" />
    <glyph glyph-name="zero" unicode="0" horiz-adv-x="559" 
d="M430 214q-4 -14 -13 -41q-8 -6 -11.5 -18t-6.5 -22q-1 -2 -32 -39.5t-33 -39t-17 -2.5q-30 -15 -33 -25q-6 -15 -10.5 -19.5t-18.5 -5.5q-17 -2 -20.5 -2.5t-13 -1.5t-13.5 -1q-39 0 -78 32q-2 8 -30 22t-30 19q-7 19 -13.5 39t-22.5 34q-6 6 -9 23l-2 26q-12 15 -12 23
q0 7 3.5 20t3.5 20q0 4 -1.5 12.5t-1.5 12.5q0 22 9 42q11 25 29 25q5 10 22 26q2 1 78 55q47 34 91 34q14 0 34 -10t43 -10l13 -1l14 -14q48 -21 64 -92q9 -60 18 -121zM343 237q-15 24 -22 51q-7 22 -14 30q-12 14 -49 32q-8 7 -27 14q-6 -3 -18 -13q-4 -2 -31 -2
q-16 0 -45 -54q-27 -50 -27 -68v-44q0 -39 81 -68q3 -1 10 -6.5t12 -5.5q2 0 15 6.5t24 6.5q31 0 48 8l9 15l-1 13q0 11 11 19.5t13 15.5q2 4 11 50z" />
    <glyph glyph-name="one" unicode="1" horiz-adv-x="364" 
d="M254 406q0 -2 -10 -14t-12 -19q-16 -12 -31 -24t-13 -29q-5 -12 -6 -27q0 -10 1 -27q1 -20 1 -26q0 -9 4.5 -25t4.5 -27q0 -3 -2 -24t-2 -34q0 -46 19 -46q3 0 6 1q2 -3 16 -12q11 -8 11 -12q0 -14 -15 -53q-23 -13 -43 -13q-25 0 -73.5 5.5t-73.5 5.5q-29 0 -29 27
q0 10 15 15q22 7 29 13q16 14 16 47q0 11 1.5 39t1.5 40v46l-3 34q-8 14 -7 20q3 21 3 22q0 42 -27.5 70t-27.5 40q0 8 7 12h46q6 3 24 2q29 -2 26 -2h37l18 4q12 13 26 13q11 0 36.5 -17t25.5 -25z" />
    <glyph glyph-name="two" unicode="2" horiz-adv-x="607" 
d="M514 128q0 -29 -27 -45q-14 -25 -51 -71q-6 0 -21.5 -5.5t-23.5 -5.5q-31 0 -92 -3.5t-92 -3.5q-8 0 -23.5 3t-23.5 3q-18 0 -24 -10q-18 -2 -33 -20h-60q-22 0 -38 8q2 77 50 87q14 8 38 26q4 7 13 19.5t27 19.5q14 6 21 25q4 9 47 63q2 7 6 22q2 8 23.5 19t26.5 16
q15 17 15 40q0 37 -23 37q-5 0 -29 -7.5t-29 -7.5q-13 0 -13 -7q0 -2 1 -5v-4q0 -5 -11 -3l-47 11q2 9 -6.5 28t-8.5 25q0 8 10 11q15 43 75 64q46 17 105 17q26 0 58.5 -14.5t42.5 -35.5q10 -60 10 -89q0 -76 -69 -128q0 -4 -21.5 -12.5t-20.5 -11.5q-2 -3 -41.5 -23
t-38.5 -24q2 -46 39 -46q21 0 54.5 16l33.5 16q5 0 29 -5.5t33 -5.5q5 0 8 1q12 17 25 35t31 18q12 0 23 -10.5t21 -9.5q1 -10 1 -17z" />
    <glyph glyph-name="three" unicode="3" horiz-adv-x="545" 
d="M399 25q0 -59 -49 -95q-25 -4 -86 -39q-56 -32 -75 -32q-21 -26 -102 -26q-24 0 -44 5q-12 11 -12 20q0 8 12 21l17 19q39 3 112 43q93 51 96 107q1 26 -65 54q-5 4 -12 4q-8 0 -24.5 -7.5t-28.5 -7.5q-40 0 -40 47q0 31 54.5 60t54.5 52q0 24 -31 54q-9 2 -18 2
q-27 0 -65 -14q-1 1 -50 7q-34 3 -34 19q0 12 19 27q23 18 28 27q11 13 28 29q12 5 29 18q24 20 27 22q16 3 56 20q37 16 54 16q19 0 58.5 -15.5t50.5 -28.5q2 -9 8 -24q7 -9 14 -19.5t7 -21.5v-59q0 -5 -9 -15.5t-10 -14.5q-5 0 -43 -32t-38 -36t33 -27q40 -28 41 -29
t24 -62q13 -35 13 -68z" />
    <glyph glyph-name="four" unicode="4" horiz-adv-x="571" 
d="M526 66q2 -17 -6 -26q-11 -3 -34 -7q-9 0 -22.5 9.5t-28.5 9.5q-10 0 -23 -3q-8 2 -16 2q-16 0 -31.5 -13.5t-30.5 -27.5q-6 -4 -8 -37q-1 -28 0 -42q-9 -10 -9 -26q0 6 5 -39q1 -7 -2 -14q-4 -10 -5 -14l-4 -38q-5 -18 -25 -18q-6 0 -15 2q-7 -8 -15 -8q-37 0 -47 91
q-1 6 1.5 16.5t2.5 14.5l-7 58q-6 54 -39 54q-7 0 -14 -3q-16 6 -20 6q-7 -1 -19 -6q-14 2 -43 4q-13 -4 -40 -7h-48q-32 1 -47 1q-8 5 -16 9q-10 8 -11 15q-1 9 37 49t51 48q2 1 28 12q16 7 24 20h2q6 0 8 11q1 8 3 16q7 3 80 84.5t72 88.5q16 31 46 57q35 29 67 29
q15 0 19 -33q2 -19 -13.5 -62.5t-14.5 -55.5q2 -18 4 -53.5t4 -52.5q2 -20 5 -30q4 -20 12 -28q3 0 21 -3q15 -3 20 -2q11 14 27 14q18 -2 64 -3q7 0 18.5 -3.5t16.5 -4.5q6 -20 16 -61zM187 172l-4 34q-1 6 -20 8q-19 -22 -56 -68v-7l4 -8q9 -3 22 -3q16 2 49 6q8 6 5 38z
" />
    <glyph glyph-name="five" unicode="5" horiz-adv-x="453" 
d="M343 457q-5 -41 -18 -91q-10 -11 -29 -39q-12 -16 -30 -29q-13 -9 -105 0q-4 -5 -20.5 -7.5t-20.5 -10.5q28 -22 36 -24q-2 1 28 1q53 0 100 -56q40 -46 55 -103l-12 -38q0 -5 -4 -29.5t-4 -30.5q0 -12 -12 -29q-18 -24 -20 -29q-56 -113 -126 -127q-15 -3 -17 -12
q-4 0 -12 1.5t-12 1.5q-6 0 -22.5 -11.5t-26.5 -11.5q-5 0 -24 10t-28 10q-6 0 -17 -2.5t-16 -2.5q-7 0 -9.5 2.5t-2.5 7.5q0 20 25 58h3q36 -2 77 11q17 6 91 89q9 9 9 20q0 4 -3 16t-3 21q0 51 -113 99q-46 67 -46 77t-8 60t-8 71q0 12 2 18q14 33 48 47q21 8 57 10
q29 1 30 4q8 15 41 30.5t36 25.5q16 3 39 19.5t38 16.5q13 0 29 -17q13 -13 25 -27z" />
    <glyph glyph-name="six" unicode="6" horiz-adv-x="625" 
d="M561 544l-4 -13q-3 -5 -26.5 -13t-26.5 -11q-8 -1 -33 -12q-29 -11 -31 -15q-3 0 -37 -25q-37 -28 -40.5 -29.5t-26.5 -7.5q-8 -2 -14 -24q-6 -27 -4 -27q1 -3 30 -16t37 -14q4 -4 15 -8q5 -8 30 -30q20 -17 24 -39l8 -23.5t6 -24.5q0 -114 2 -53q-1 -26 -12 -49
q-15 -47 -94 -81q-37 -15 -52 -17h-57q-8 0 -24.5 -4.5t-25.5 -4.5q-12 0 -36 9t-35 10q-8 9 -28 16t-27 13q-32 26 -51.5 70t-19.5 88q0 6 1.5 20t1.5 21q0 18 20 71t32 67q9 1 17 10q12 13 14 14q10 7 38 17q24 10 38 22q16 2 55 26q27 18 55 35q8 5 20 5q5 0 14.5 -1
t13.5 -1q12 0 17 6l18 26q4 6 29 19q19 12 37 12q96 0 118 -6q14 -4 14 -28zM349 140q0 26 -47 95q-50 75 -84 78q-81 -25 -81 -127q0 -10 3 -21q-1 -2 -1 -5q0 -22 90 -76l47 -1q73 -1 73 57z" />
    <glyph glyph-name="seven" unicode="7" horiz-adv-x="493" 
d="M407 373q1 -4 0 -13q-1 -6 -11 -13t-14 -14q-6 -12 -16 -35q-7 -10 -17 -26q-5 -14 -19 -42q-9 -12 -27.5 -44.5t-20.5 -42.5q-1 -6 -8 -23t-10 -20q-28 -17 -43 -37q-45 -65 -110 -153q-12 -5 -47 -33q-3 -3 -7 -3q-11 0 -22.5 13t-8.5 25q4 5 12 20q3 15 12 35
q21 18 19 29q10 10 31 65q23 60 24 63q16 18 40 58q2 6 23 42q16 27 16 48q7 20 7 32q0 18 -20 23q-13 3 -61 4l-32 1q-13 -5 -32 -8q-18 3 -26 -30.5t-18 -33.5h-45q-38 1 -38 36q0 20 11.5 30t25.5 11q11 2 15 12q10 22 24 67q20 29 38 35q10 4 43 3h36q8 2 47 1
q15 -4 71 -8h60q13 0 30.5 6.5t24.5 6.5q5 -4 24 -6q34 -5 34 -40q0 -23 -15 -41z" />
    <glyph glyph-name="eight" unicode="8" horiz-adv-x="504" 
d="M388 435q0 -32 -19 -65q-13 -21 -35 -45q-19 -20 -19 -21q0 -3 2 -9t2 -10q7 -11 25 -18q45 -44 44 -66v-5q-14 -22 -17 -123q-14 -18 -42 -52q-14 -12 -43 -32q-15 0 -32.5 -9.5t-20.5 -9.5q-6 0 -17 3.5t-16 3.5q10 -1 -50 -1q-35 0 -45 9q-15 11 -20 13q-1 3 -33 40
t-32 63v60q38 61 77 90q3 7 3 13l-1 4q-3 7 -28 28q-29 23 -32 30.5t-10 24.5q-1 0 -11 14q-8 10 -8 15v80q21 21 66 62q12 10 24.5 38t21.5 35q13 2 47 16q30 12 45 12q-1 0 73 -16q18 -21 49 -46q25 -20 33 -33q11 -21 9 -59q10 -16 10 -34zM273 406q0 74 -51 74
q-46 0 -46 -39q0 -20 31.5 -55t48.5 -35h3q14 19 14 55zM271 107q0 26 -34 61t-60 35q-18 0 -30.5 -20t-12.5 -38q0 -53 55 -67q15 -20 39 -20q15 0 29 16.5t14 32.5z" />
    <glyph glyph-name="nine" unicode="9" horiz-adv-x="617" 
d="M505 254q0 -32 -15 -79q-21 -68 -23 -76q-22 -34 -70 -97q-2 -3 -36 -33q-26 -22 -30 -35q-7 -6 -42 -54q-25 -34 -51 -41q-8 -2 -18.5 -13.5t-44.5 -11.5q-16 0 -27 -11t-63 -11q-5 -2 -10 -2l-8 2q-3 3 -3 9q0 4 6.5 22t7.5 22q36 30 77 82q1 0 19 10q13 7 11 20
q25 29 25 60q0 21 -14 21q-3 0 -12.5 -1.5t-14.5 -1.5q-101 0 -148 50q-9 9 -18 58q-3 11 -16 33q-16 28 -18 34l2 10q9 13 27 49q11 22 45 65q37 49 51 54q10 4 69 40q44 27 73 27q14 0 41 -1t41 -1q6 0 17 2.5t16 2.5q9 0 23 -11q10 -8 20 -17q55 -39 60 -44
q26 -22 48 -59q0 -17 2 -27l-3 -12q4 -17 4 -34zM367 195q0 10 -17 22.5t-31 17.5q-22 35 -44 71q-31 45 -61 45q-50 0 -62 -58q-6 -45 -11 -91l12 -12q8 -22 39 -54q33 -36 54 -36t35 26q18 32 29 38l31 -3q26 -2 26 34z" />
    <glyph glyph-name="colon" unicode=":" horiz-adv-x="286" 
d="M203 464q5 -21 -22 -56.5t-55 -35.5q-9 0 -17 5q-6 10 -24 31q-20 11 -41 22q-27 16 -27 35q0 6 3 12q9 20 38 41q9 3 18 16q0 27 14 52q16 29 38 29q9 0 18 -5q52 -30 57 -89v-57zM199 63q-12 -13 -31 -40q-19 -45 -57 -47q-34 -5 -53 29q-16 28 -16 66q0 8 1.5 16.5
t14.5 22.5q11 11 21 22q23 27 53 35q11 2 35 -10q40 -19 40 -56q0 -14 -8 -38z" />
    <glyph glyph-name="semicolon" unicode=";" horiz-adv-x="286" 
d="M238 526l-11 -42q5 -21 -33.5 -66t-69.5 -45q-8 0 -15 4q-6 10 -24 31q-20 11 -39 21q-29 17 -29 36q0 6 3 12q9 20 38 41q9 3 18 16q0 27 14 52q16 29 38 29q9 0 18 -5q14 -9 37 -45q18 -30 55 -39zM250 -9q-5 -12 -15 -35q0 -10 -4 -29q-8 -18 -32.5 -45t-43.5 -38
q-15 -1 -43 -10q-7 -4 -17.5 -23t-22.5 -31q-6 -5 -20.5 -16.5t-31.5 -11.5q-11 0 -14 1q-7 2 -12 9q-14 19 -14 48q0 11 3 17q20 36 51 62q13 9 26 17q19 13 30.5 29t11.5 39q0 22 -8 37q-9 19 -51 26q-1 0 -28 19q-4 10 -4 21q0 37 35.5 73.5t75.5 34.5q37 -1 73 -36
q33 -33 49 -78q12 -34 6 -80z" />
    <glyph glyph-name="less" unicode="&#x3c;" horiz-adv-x="366" 
d="M290 48q-6 -10 -18 -23q-17 -16 -27 -15q-41 3 -142 107t-100 135q1 23 66 76q55 44 94 64q66 40 91 40q21 0 20 -42l-39 -28q-7 -20 -71 -61q-59 -38 -60 -62q-1 -18 85 -95q94 -84 101 -96z" />
    <glyph glyph-name="equal" unicode="=" horiz-adv-x="689" 
d="M540 303q0 -18 -24.5 -38t-45.5 -22q-30 4 -89 7q-37 -2 -113 11q-7 1 -22 -2q-20 -5 -31 -6q-35 -3 -60 8q-3 1 -7 1q-9 0 -31.5 -16t-34.5 -16q-8 0 -14 5q-20 7 -20 31q0 42 32 64q9 6 22 5q24 -6 83 -14q1 0 51 -4q47 -4 66 -3q20 1 34.5 7t26.5 5.5t37.5 3.5t33.5 4
q62 2 84 -6t22 -25zM505 177q24 -8 24 -25q0 -18 -24.5 -37.5t-46.5 -22.5q-29 4 -88 7q-3 0 -38.5 -6t-56.5 -6q-12 0 -21 1q-6 1 -26 -6q-23 -9 -35 -10q-3 0 -43 16q-10 4 -40 6q-26 2 -43 13q-24 9 -24 30q0 25 26 42q9 6 22 6q24 -7 83 -14q5 0 44.5 6t56.5 6
q23 1 43 -2q26 -5 33 -5q13 -1 38.5 3t33.5 4q62 2 82 -6z" />
    <glyph glyph-name="greater" unicode="&#x3e;" horiz-adv-x="407" 
d="M349 252q2 -31 -99.5 -135t-142.5 -107q-9 -1 -26 15q-13 13 -18 23q7 12 101 96q85 77 85 95q-1 24 -60 62q-64 41 -72 61l-38 28q-2 42 20 42q25 0 91 -40q38 -20 94 -64q65 -53 65 -76z" />
    <glyph glyph-name="question" unicode="?" horiz-adv-x="452" 
d="M412 513v-50q-3 -22 -23 -26q-13 -55 -88 -115q-30 -35 -49 -35q-12 0 -30.5 19.5t-35.5 19.5q-31 0 -83 -57q-2 -2 -2 -5q0 -5 12 -18t12 -19q0 -41 -40 -41q-15 0 -28.5 9.5t-13.5 23.5q0 56 13 92q5 15 26.5 40t35.5 29q41 14 78 14h16q10 -1 13 -1q19 0 25 18t17 95
q-19 23 -19 35q0 16 30 16q15 0 43 -4.5t34 -4.5q57 0 57 -35zM219 69q0 -21 -37 -67t-59 -46l-9 2q-13 13 -28 26t-30 19q-32 32 -32 57q0 16 37.5 49t54.5 33q32 0 67.5 -22.5t35.5 -50.5z" />
    <glyph glyph-name="at" unicode="@" horiz-adv-x="721" 
d="M609 255q11 -40 11 -64q0 -22 -14 -86q-1 -6 -36 -37t-44 -34q-50 -24 -51 -24t-1 1q0 2 3 5l-60 -16q-4 -1 -8 -1q-21 0 -50.5 25.5t-33.5 25.5q-11 0 -29 -17t-37 -17q-20 0 -46.5 25t-26.5 46q0 15 24 48.5t38 35.5q4 1 16.5 -1.5t16.5 -2.5q23 0 42.5 17.5t19.5 41.5
q0 14 -11 14q-29 0 -63 -47h-38q-7 0 -14 12.5t-7 20.5q0 34 52 62q46 24 82 24q34 0 50 -24q7 -1 16 -19t9 -27q0 -6 -6 -36q-5 -22 -2 -117v-5q15 -7 43 -22q69 8 83 54q3 11 15 33q9 16 9 32q0 24 -18 74q-5 31 -22 81q-31 53 -80.5 88.5t-95.5 35.5q-11 0 -21 -3
q-33 -4 -99 -19q-10 -2 -35 -15q-35 -29 -44 -38q-24 -24 -33 -46q-8 -14 -25 -69q-19 -74 -19 -133q0 -168 148 -226q91 -35 149 -35q14 0 25 2q15 -5 30 -6q1 -55 -83 -55q-82 0 -173 37q-2 14 -21 23q-30 15 -41 24q-31 28 -48 57q-47 84 -47 140v61q-7 26 -7 43l11 66
q8 13 21 37q5 24 24 68q41 65 85 91q48 25 95 50q11 7 39 10q72 6 64 6q37 0 76 -16q19 -8 32.5 -19.5t25.5 -22.5q18 -20 56 -53.5t51 -66.5q9 -21 28 -97zM337 126q0 14 -14 14q-10 0 -22 -15t-12 -26q0 -10 18 -14q1 0 3 -1.5t3 -1.5q7 0 15 6t8 12q0 2 -1 6v6t1 7t1 7z
" />
    <glyph glyph-name="A" unicode="A" horiz-adv-x="733" 
d="M622 10q-45 -17 -66 -12h-98q-11 0 -31 17t-22 27q-3 11 8 25q18 24 23 34q2 4 -14 63q-1 13 -6 39q-10 12 -20 35q0 18 -13 32t-29 13q-2 0 -33 4q-34 5 -55 5q-25 0 -35 -7q-33 -24 -54 -82q-17 -48 -19 -94q8 -9 23 -17q10 -12 12 -25q3 -14 -6 -40q-10 -29 -23 -29
h-132q-8 -5 -18 -5q-22 0 -43.5 20t-21.5 42q0 26 32 40q55 24 72 75q2 20 10 58q4 10 20 31q14 18 18 33q9 13 22 43q9 30 25 65q5 12 7.5 43t6.5 41q18 24 50 72q0 9 4 29q20 41 20 51q0 7 -2 13.5t-9 17.5q-17 14 -17 29t18.5 26t39.5 11q11 0 31 -9q14 -6 31 2
q13 7 25 7q33 0 55 -47q11 -10 28 -39q0 -22 11 -61q22 -35 27 -47q1 -2 19 -61q7 -25 8 -63q1 -26 21 -57q1 -9 3 -26q1 -23 11 -64q13 -12 31 -37q4 -10 3.5 -31t2.5 -27q15 -20 44 -67q3 -5 21 -12q24 -11 29 -14q19 -12 19 -34q0 -13 -26 -23q-19 -7 -38 -13zM359 376
q5 14 5 21q0 2 -13 32q-3 40 -6 81q-9 48 -53 46q-14 -1 -20.5 -21.5t-4.5 -35.5q-12 -20 -13 -39q-3 -41 -9 -75q-1 -21 24 -25q20 -2 40 -3q11 0 29 6t21 13z" />
    <glyph glyph-name="B" unicode="B" horiz-adv-x="696" 
d="M625 278q5 -26 3 -78q-2 -55 -11 -78q-16 -14 -43 -42q-4 -10 -8 -19q-6 -16 -18 -20q-17 -4 -44 -19q-7 -7 -39 -13.5t-47 -6.5l-55 1q-2 0 -21 -5t-29 -5q-6 0 -9 1q-49 19 -95 19q-30 0 -71 -8.5t-81 -17.5q-2 0 -6.5 3.5t-6.5 3.5q-10 2 -30 17t-27 14q-11 14 -11 27
q0 22 52.5 54.5t54.5 61.5q4 6 9 17q3 6 4 29l5 101q0 1 -9.5 22.5t-8.5 43.5l7 131q1 27 -10 60q-14 44 -40 44q-4 0 -9 -2q-9 -2 -14 10q-1 4 -1 15q0 51 23 65q35 2 55 0q25 -2 23 -2q11 0 44 7q19 -10 57 -18q34 5 96 14q10 8 32 19q62 10 87 1l68 -26q19 -8 40 -20
q12 -8 26.5 -38.5t15.5 -48.5l-3 -55q-1 -23 -2 -28q-6 -17 -30 -45q-12 -8 -42 -17q-19 -6 -19 -14q0 -4 3 -10q7 -10 32 -17l40 -10q53 -67 63 -118zM481 581q-5 16 -44 42q-58 40 -67 47l-68 2q-19 0 -40 -15t-22 -34l-5 -100q0 -2 4.5 -16t5.5 -21q-2 -10 2 -34
q5 -9 13.5 -11t26.5 -5l53 -1q38 0 54 7l62 28q27 42 27 93q0 11 -2 18zM509 260q-3 13 -11 30q-13 16 -25 32q-17 16 -51 16q-8 0 -18 14t-14 16q-10 -1 -30 -1q-8 4 -19 8q-17 5 -25 1q-23 -6 -45 -12q-26 -8 -33 -33q-4 -14 -3 -50q0 -4 3 -16.5t2 -15.5q-9 -44 -6 -93
q2 -25 2 -27q2 -15 7 -22q22 -26 90 -26q22 0 60 3q2 1 41 18q35 14 63.5 47.5t28.5 66.5q0 25 -17 44z" />
    <glyph glyph-name="C" unicode="C" horiz-adv-x="738" 
d="M635 545q1 -12 1 -24q0 -21 -12 -28q4 -1 -17 -2q-12 0 -17 8q-47 74 -121 106q-11 12 -37 26q-7 -1 -19 2q-19 17 -39 17q-17 0 -40 -13q-18 -10 -37 -21q-32 5 -67 -40l-26 -28q-20 -23 -19 -42q-2 -3 -9.5 -23.5t-7.5 -24.5v-52q0 -46 5 -115q4 -9 9 -26q8 -27 34 -51
q5 -13 15 -30q94 -104 152 -104q19 0 36 9q12 4 38 12q31 9 41 15q22 14 42 46q5 10 48 36q26 16 38 3q7 -10 7 -29q0 -33 -17 -56q-19 -26 -39 -52q-25 -33 -46 -49q-14 -12 -38 -12q-8 0 -24 1.5t-24 1.5q-10 0 -18 -1q-58 -9 -54 -9q-20 0 -37 7q-22 2 -58 8
q-42 13 -62 25q-14 8 -68 32q-38 17 -47 30q-13 23 -51 72q-8 16 -25 42q-13 17 -16 33t-5 31v114q0 31 11 84q7 8 18 25q16 38 46 75q15 8 37 31q0 8 3 25q2 5 16 12q23 12 25 13q10 10 29 24q17 9 48.5 16.5t35.5 9.5q16 13 54 30q7 1 22 -4q21 -7 24 -7q11 3 32 3l18 -10
q16 -9 27 -9h53q14 1 27 1q63 0 99 -36q25 -25 25 -59q0 -29 -19 -69z" />
    <glyph glyph-name="D" unicode="D" horiz-adv-x="847" 
d="M721 279q0 -27 -6 -42q-4 -10 -30 -66q-8 -9 -22 -24q-5 -6 -13 -25q-5 -12 -15 -13q-30 -5 -49 -28q-24 -30 -44 -39q-12 0 -32 -4q-47 -21 -55 -21h-70q-1 0 -23 -11t-45 -11q-12 0 -26 3q-2 1 -16.5 10t-19.5 8q-30 -3 -43.5 -10.5t-39.5 -7.5h-87q-25 3 -55 15
q-36 15 -40 29q-1 4 -1 9q0 29 65 58q29 12 29 55q0 9 -1 18q-1 2 10 19.5t11 34.5q0 9 -3 18q-17 42 -17 70q0 20 8 48q-5 14 -4 38q16 30 17 37q-2 -24 -2 14v122q0 29 -36 46.5t-41 39.5q-2 7 12 22q7 7 32 16q34 12 47 19q10 5 19 0q10 -8 21 -15q7 -5 25 -5h77
q-4 0 28 3q25 3 36 0q17 -2 51 -11q3 -1 48 -8q27 -4 53 -30q3 -4 12 0q9 3 14 10q29 -2 48 -34q9 -1 24 -6l94 -70q55 -49 55 -106q15 -73 0 -175zM604 342q-6 87 -13 126q-1 8 -11 21q-6 6 -11 13q-13 29 -29 44.5t-54 37.5q-14 13 -38 31q-11 6 -36.5 10t-26.5 4
q-5 2 -20 11q-11 6 -17 6q-4 0 -6 -1q-23 -13 -45 -26q-26 -16 -38 -31q-7 -9 -8 -28v-26q-6 -18 -14 -50q-1 -10 7.5 -30t8.5 -22q1 -28 -4 -71l-8 -74q3 -33 4 -88q-3 -4 -6 -11t10 -18q0 -32 19 -67q23 -41 53 -41q17 0 35 14q3 2 16 4t42 2q84 42 127 94q8 9 17 37
q5 15 11 29q10 13 25 35q0 11 1 31q0 9 4.5 20.5t4.5 13.5z" />
    <glyph glyph-name="E" unicode="E" horiz-adv-x="710" 
d="M618 82q-2 -11 -20 -22t-21 -17q-21 -41 -60 -56q-25 -9 -73 -10h-77q-2 0 -26.5 6.5t-26.5 6.5h-108l-9 -3t-12 -1q-40 21 -72 21t-64 -19q-2 -1 -26 2q-11 -2 -34 -2q-22 3 -33 19q-7 12 0 30q6 14 32 27q34 17 47 28q42 39 51 51q14 19 14 52v60q0 22 7 52t7 27v76
q0 29 -7 43.5t-7 32.5v129q0 17 -53 36t-53 38q0 7 4 15q9 16 23 21q9 4 40.5 2.5t44 1.5t26.5 3q15 0 39 -4q28 -5 39 -6q86 -7 125 -1q1 0 17 5q13 4 21 3q29 -1 41 1q16 2 15 2h77q20 4 48 -4q25 -19 27 -35q0 -6 -13 -33q-14 -31 -16 -42q-4 -29 -25 -29q-24 0 -31 31
q-5 4 -16 14q-15 14 -40 17q-22 0 -44 1q-26 1 -35 15q-12 1 -36 4t-37 3q-18 0 -33 -5q-6 -13 -22 -36q-7 -10 -6 -34q0 -9 12.5 -27.5t12.5 -26.5q-1 -6 -4.5 -27.5t-3.5 -33.5q0 -22 9 -38q1 -1 24 -11q30 -14 50 -14q18 0 42 12q10 5 24 -6q25 8 67 13q7 1 26.5 16
t29.5 15q5 0 10 -3q15 -12 15 -31q0 -10 -7 -37q-6 -23 -3 -34q1 -3 6 -13.5t5 -17.5q0 -11 -13 -23q-3 -2 -6 -2q-7 0 -19 11q-15 12 -18 13q-31 14 -41 20q-24 15 -32 33q-10 -2 -42 0q-26 1 -47 -14q-7 0 -19.5 -2t-37.5 -10q-14 -7 -17 -24l-4 -26q-1 -4 -10 -19
q-8 -11 -6 -16q1 -7 15 -23q3 -33 0 -40q-19 -38 -19 -63q0 -10 4 -29q4 -22 30 -44.5t52 -22.5q10 0 18 5h57q1 0 5.5 -2t9.5 -2q14 0 37 16l20 10q17 8 20 16q39 18 72 51q25 26 49 26q24 -20 24 -53q0 -12 -6 -39z" />
    <glyph glyph-name="F" unicode="F" horiz-adv-x="643" 
d="M518 571q-3 5 -15.5 10t-16.5 12q-26 34 -51 34h-106q-76 0 -76 -44v-137q0 -33 65 -33q30 0 68 7q32 6 38 10.5t40 40.5q16 17 36 13q47 -65 47 -97q0 -20 -13 -36q-1 -8 -4 -26q-4 -12 -28 -15q-9 -2 -26 12t-22 15q-39 8 -108 19q-19 3 -54 -8q-39 -13 -39 -31v-178
q0 -16 52.5 -53.5t52.5 -55.5q0 -19 -42 -34h-78l-28.5 10.5t-35.5 7.5q-10 -8 -34 -20q-9 2 -27 3q-4 -1 -33 -7q-24 -5 -38 -5q-43 0 -43 40q0 30 22 43q34 18 69 35q19 12 19 47v113q0 34 15 93q3 10 3 22q0 21 -9 67t-9 65v59q0 13 -24 32q-20 17 -27.5 19t-20.5 12.5
t-16 17.5q-6 10 -6 19q0 36 62 36q12 0 34.5 -5t34.5 -6q20 0 59.5 3t36.5 3h52l17.5 7t31.5 7q11 0 20 -3.5t24 -3.5h53q3 -1 8 -1q10 0 33.5 9t34.5 9q7 0 13 -3q35 -19 35 -58q0 -9 -8 -48t-13 -44t-25 0z" />
    <glyph glyph-name="G" unicode="G" horiz-adv-x="851" 
d="M749 606q-3 -43 -14 -70q-4 -22 -8 -45q-10 -38 -35 -38q-5 0 -12 2q-11 10 -23 28t-17 24q-9 60 -74 110q-62 46 -117 47q-3 0 -15 -7t-16 -9q-30 -5 -82 -24q-42 -27 -76 -74q-15 -3 -79 -43q-3 -18 -26 -69q-14 -30 -14 -69q0 -19 4 -53q5 -43 6 -61q0 -5 21 -35
q39 -59 100 -93q25 -16 69 -39q11 -4 52.5 -5.5t60.5 -8.5q23 -7 42 -7q29 0 68 26q27 18 27 75q0 87 -64 118q-37 25 -37 55q0 5 1 9q21 22 49 22q9 0 16 -3h101q1 0 35 13q9 -7 25 -16q8 1 23 -1q21 -5 21 -21q0 -14 -22.5 -47.5t-22.5 -43.5v-171q2 -6 2 -12
q0 -24 -32 -42q-26 -13 -52 -27q-8 -5 -23 -14q-19 -9 -56 -9q-35 0 -50 7t-31 7q-12 0 -36.5 -6.5t-38.5 -6.5q-16 0 -31 6q-13 10 -47 26q-10 3 -31 1q-22 -2 -31 -1q-22 3 -60 14q-45 26 -58 35q-50 36 -67 73q-6 12 -24 29t-28 36.5t-18 42.5q-10 33 -16 47q-2 4 0 15
q3 12 3 11v76v51q2 8 27 39q3 10 13 28q12 11 29 33q39 83 82 101q92 38 161 55q10 2 31 0.5t32 1.5q31 11 62 21q53 17 71 16q19 -1 44 -10q22 -8 61 -8h46q25 -6 56.5 -25t38 -30.5t4.5 -56.5z" />
    <glyph glyph-name="H" unicode="H" horiz-adv-x="908" 
d="M805 51q10 -11 10 -31q0 -21 -10 -28q-6 -4 -31 0h-66q-13 0 -61 -8.5t-72 -8.5q-60 0 -60 43q0 7 2 15q22 14 74 40q24 13 24 103v56q0 1 -5 7.5t-5 10.5q1 20 -18 48t-41 28h-225q-37 0 -44 -14q-19 -40 -32 -55q-5 -5 -5 -12q0 -5 4.5 -14.5t4.5 -12.5v-75
q0 -35 27 -41q37 -9 48 -22q7 -10 7 -27q0 -25 -13.5 -47.5t-31.5 -22.5q-37 2 -61 -1q-46 -5 -64 -6q-7 4 -19.5 4.5t-24.5 1.5q-40 5 -33 5h-54q2 0 -13 -2q-11 -2 -24 1l6 54q8 33 38 47q11 2 21 5q18 6 18 21v125q0 8 1 22v22v84q0 41 -9 75q-2 6 6 30q10 29 11 39
q1 2 -7 52q-3 23 -14 49q-3 7 -13 8l-16 20q-12 15 -12 23q0 4 2 6q10 14 19 28q15 21 24 22q25 2 98 3q90 0 125 -5q8 -6 8 -18q0 -14 -9 -29t-17 -18q-38 -15 -38 -59q0 -18 7 -44v-118q0 -1 2 -15q2 -10 10 -16q3 -2 6 -2q6 0 17 8t14 9q4 2 17.5 -5.5t20.5 -6.5
q126 12 147 -0.5t38 -6.5q1 0 16 11q11 8 22 7q54 -9 54 52q0 15 -5 30q1 -2 4 40q2 41 -6 98q-1 5 -34 19q-20 9 -20 32q0 9 4 15q51 16 55 16q-1 0 10 -2t31 -2h98q9 -1 29 -5q11 -7 11 -24q0 -19 -15 -31l-24 -6q-21 -6 -21 -17v-76q0 -6 -2 -39q-2 -28 -1 -33
q3 -38 11 -117q2 -11 -3 -28q-5 -20 -5 -23v-103q0 -21 18 -41q8 -8 10 -37q2 -34 4.5 -40.5t20.5 -18.5q23 -15 29 -21z" />
    <glyph glyph-name="I" unicode="I" horiz-adv-x="501" 
d="M380 692q0 -12 -27 -29q-5 -6 -18 -15q-43 -22 -43 -71q0 -13 3.5 -38.5t3.5 -36.5q0 -9 -1.5 -16t-11.5 -35q-5 -14 -4 -39l9 -203q-2 -17 -2 -18l2 -52q1 -18 16 -34t38 -13q11 -17 11 -36q0 -42 -41 -49q-22 1 -64 -2l-61 -12q-37 -8 -61 -8q-49 0 -82 30q-10 9 -2 34
q9 13 43 37q30 21 36 43q-1 15 -1 44q1 16 2 45q1 4 7 23.5t6 21.5l-4 87l-7.5 13.5t-6.5 21.5q2 25 7 36q4 7 3 29l-6 131q-12 19 -25 45q-3 12 -19 40q-13 24 -13 36q0 16 19 27q16 10 43 10q25 0 72 -10.5t59 -10.5h51q11 3 23 3q16 0 29 -7q17 -8 17 -22z" />
    <glyph glyph-name="J" unicode="J" horiz-adv-x="433" 
d="M337 678q8 -10 8 -19q0 -11 -18 -26q-28 -22 -34 -28q-21 -24 -25 -54q-1 -19 -3 -39q7 -14 11 -38q-4 -7 -8 -15t-3 -17q3 -28 16 -63q4 -11 4 -32q0 -27 -6 -66t-6 -38q3 -19 3 -37q0 -14 -3 -43t-3 -50q0 -18 2 -39q0 -1 -12 -53t-12 -59q-1 -33 -29 -55
q-20 -14 -39 -29q-50 -67 -162 -71q-3 0 -20 14q-4 10 -4 21q0 26 21 49t47 22q1 0 3.5 3t3.5 3q25 12 34 63v52q0 1 7.5 13t6.5 18q-5 43 -5 181l2 138q0 193 -6 206q-2 4 -25 10t-28 16q-12 24 -12 41q0 11 6 15q52 35 102 35q10 0 18 -2q2 0 11.5 3t11.5 3h49
q68 2 96 -33z" />
    <glyph glyph-name="K" unicode="K" horiz-adv-x="647" 
d="M584 80q10 -15 10 -32q0 -18 -11 -32q-7 -10 -43 -13q-45 -3 -60 -9h-79q-56 0 -67 41q0 2 9.5 17t9.5 17q5 10 11 21.5t4 19.5q8 7 8 19q0 29 -30 59q-4 4 -7 16q-3 16 -7 25q-11 8 -27 29q-29 74 -52 82q-12 4 -24 4q-29 0 -37 -23v-66q0 -2 1 -9t1 -13q0 -27 -20 -61
q-2 -3 -2 -6q0 -7 8.5 -20t8.5 -14q0 -10 4 -30q2 -9 20.5 -15.5t20.5 -13.5q10 -28 10 -47q0 -41 -52 -41q-11 0 -30.5 2t-26.5 2h-140q-34 2 -34 39q0 17 10 30q56 16 68 28q9 9 9 40v182q0 16 3 22q6 12 10 26q0 -1 -8 24q-5 16 -5 34v74q0 22 20 61q9 18 -3 34t-17 32.5
t-9 21.5l-21 24q-15 22 -15 48q0 31 24 48q5 4 20 1l24 -6q20 1 60 -4q4 -1 18.5 -13t24.5 -12h47q9 -2 25 -8t16 -26q0 -8 -3 -12q-10 -11 -27 -37q-5 -7 -27 -15q-13 -5 -13 -15v-96q0 -27 12 -33q22 -5 45 -11q5 -1 23 15t48 41q19 13 36 34q21 26 21 44q0 16 -17.5 44.5
t-17.5 42.5q0 12 10 22q7 2 23 7q21 8 44 22q16 11 23 11q6 0 13 -5q32 -20 47 -20q7 0 17 9.5t15 9.5q2 0 4 -2q19 -19 19 -37q0 -29 -46 -64q-37 -27 -75 -54q-5 -5 -8 -18q-5 -21 -18 -45l-28 -28q-32 -32 -32 -64q0 -6 1 -12q11 -37 34 -65q3 -5 23 -17q14 -8 15 -23
q2 -21 13 -33q16 -14 22 -31q18 -48 59 -93q54 -59 67 -81z" />
    <glyph glyph-name="L" unicode="L" horiz-adv-x="748" 
d="M671 204q1 -3 1 -8q0 -6 -4 -22.5t-3 -24.5q4 -50 -50.5 -99t-104.5 -49q-8 0 -15 2h-196q-58 0 -85 17q-2 1 -5 1q-7 0 -27 -16q-11 -10 -33 -13q-8 -2 -18 1q-13 3 -17 4q-2 0 -35 -4q-36 -4 -56 -4q-48 0 -48 35q0 22 32 47q31 22 62 43q15 11 32.5 45t14.5 44l-15 22
q1 13 5 32.5t4 26.5q0 14 -9 22q-1 5 -6 27q-5 17 -3 27q1 5 11 24t10 21v132q3 29 -15 70q-22 47 -54 44q-26 -3 -26 17t13 31q22 18 51 28q4 1 10 1q10 0 29 -7q25 -8 33 -10q55 -11 89 0q29 10 52 10q33 0 55 -22q4 -4 4 -8q0 -10 -21 -25q-16 -11 -32 -23
q-45 -41 -45 -80q0 -20 12 -35q2 -3 -4 -15q-7 -15 -8 -18q3 -31 -1 -94q-7 -43 -7 -45q0 -15 7 -25q17 -23 17 -46q0 -13 -7.5 -36.5t-7.5 -35.5v-61q0 -10 14.5 -34.5t21.5 -28.5q38 -21 65 -22q40 9 101 16q2 0 6.5 5.5t6.5 5.5q20 1 45 22t24 33q7 3 46 41q34 33 54 33
q17 0 30 -19z" />
    <glyph glyph-name="M" unicode="M" horiz-adv-x="1025" 
d="M904 613q-12 -4 -23 -8q-18 -8 -21 -22t-1 -44q3 -39 16 -52q10 -10 10 -23t-13.5 -42t-13.5 -42v-139q0 -11 2 -17q0 -27 18 -90q0 -20 8 -57q13 -10 31 -33q5 -10 0 -24q-5 -17 -23 -19h-29h-125q-43 0 -43 15q0 14 33 57q3 4 2 17q-2 22 -2 15v63q0 2 14.5 34t10.5 43
q-2 7 -6 19q0 7 -1 50q0 27 -10 48q-5 11 -9 22q-7 15 -16 15q-4 0 -10.5 -6t-9.5 -7q-29 -4 -48 -33q-39 -58 -40 -58q-2 -8 -6 -23q-6 -9 -24.5 -18.5t-22.5 -16t-15 -44.5t-11 -46q0 -15 -12 -37q-17 -31 -19 -36q-12 -19 -28 -19q-35 0 -66 57q-2 21 -13 56
q-33 49 -35 52t-9 25q1 18 -4 53q-1 3 -38 59q-3 5 -18 9q0 17 -12 30t-31 10q-9 -2 -12 -24q-4 -29 -5 -32q-9 -18 -8 -53q1 -41 -3 -56q-8 -10 -19 -32q-14 -47 1 -81q14 -30 31 -51q12 -10 24 -21q20 -19 20 -32q0 -21 -38 -23h-34q-21 -1 -33 -7q-17 3 -64 2
q-73 -1 -77 -1q-16 15 -15 31q2 31 2 34q6 25 30 34t36 47q3 9 13 74q8 48 30 88q1 1 0 21q3 30 -2 74q11 21 13 57q3 51 3.5 56t9.5 22t9 27q0 28 -42 49q-17 8 -32 25.5t-15 35.5t19 31q9 2 24 6h80q-3 0 8 -2q4 -1 21 6q2 0 15 7q9 4 13 4q4 -1 18 -9q38 -21 75 -26
q14 2 49 -2q20 -6 20 -29q0 -12 -10 -18q-59 -16 -59 -61q0 -29 27 -78l46 -74q0 -12 3 -32q7 -11 17.5 -32.5t32.5 -62.5q8 -14 16 -27q12 -19 23 -19q7 0 15 7q9 1 22 9q26 51 74 154q0 1 26 21q7 16 22 38q70 60 64 102q-1 5 -27 30.5t-26 46.5q0 18 14.5 32.5t34.5 14.5
h171q15 -1 34.5 -17.5t19.5 -32.5q0 -11 -10 -19t-32 -25zM773 485q19 3 19 23q0 23 -23 20q-20 -2 -20 -19q0 -10 7 -18t17 -6z" />
    <glyph glyph-name="N" unicode="N" horiz-adv-x="881" 
d="M772 724q27 -9 27 -33q0 -17 -14.5 -30.5t-33.5 -10.5q-17 -44 -26 -85q2 -49 3 -124q-1 -41 -4 -124q-1 -7 0 -9q5 -23 5 -47v-196q0 -8 2 -19q1 -7 0 -13q-2 -7 -9 -18.5t-21.5 -16.5t-26.5 -2q-14 3 -29 25q-12 19 -25 39q-10 6 -30 22q-10 14 -34 36q-69 43 -126 104
q-20 16 -87 86q-4 10 -14 27q-36 43 -71 86q-57 63 -84 63q-9 0 -11.5 -12.5t-3.5 -23.5q-7 -27 -8 -63q-1 -39 7 -55q14 -29 14 -39q0 -14 -14 -32q-4 -6 -5 -19q-1 -14 5 -22q13 -18 15 -38l4 -46q2 -15 22 -24q10 -6 16 -13q28 -35 28 -72q0 -29 -32 -27l-64 2
q-8 1 -22 -8.5t-26 -8.5q-46 2 -80 18q-15 6 -15 21q0 20 25 50q22 26 37 33q17 58 17 90q0 36 -16 59v21q1 17 1 25l4 27t4 46q0 27 -8 40q0 -3 0 26v108q-1 -5 -1 30q-1 26 -37.5 51t-36.5 39q0 10 10 22q19 23 63 25q36 1 72 1q15 8 46 20q24 7 34.5 -12t16.5 -48
q5 -20 9 -39q16 -20 38 -51q2 -9 10 -24q7 -8 72 -75q45 -46 70 -82q8 -3 24 -10q10 -5 29 -18q56 -56 98 -71q6 -2 14.5 -21.5t19.5 -23.5q-3 -19 19 -19q11 0 15 11q4 8 -1 23q4 6 7 12q3 8 -1 13v61q0 1 2 26t2 65v56q0 102 -22 129q-10 12 -29 26q-8 -1 -23 2
q-17 11 -17 44q0 37 21 41q2 1 27 -19t33 -20q30 -3 42.5 6.5t18.5 8.5z" />
    <glyph glyph-name="O" unicode="O" horiz-adv-x="896" 
d="M771 329q-8 -53 -39.5 -115t-69.5 -101q-23 -24 -73 -57q-55 -36 -99 -54q-8 -3 -42.5 -1t-50.5 -5q-6 -2 -14 -2q-11 0 -31 4q-23 4 -28 5q-23 -4 -66 -1q-23 19 -70 50q-17 4 -51 17q-28 14 -48 41q-19 24 -37 48q-31 42 -46 77q1 14 -6 96q-1 4 -4 14.5t-3 16.5
q6 121 80 230q9 4 62 47q33 26 65 22q2 -1 15 9t20 13q15 -1 36 1q103 50 145 50q40 0 68 -28q11 -12 39 -21q34 -11 45 -17q8 -5 21.5 -7t20 -5t58.5 -40q38 -27 62.5 -75.5t24.5 -91.5q0 9 16 -58v-62zM637 257v159q0 27 -28.5 63t-50.5 51q-10 7 -23 22q-15 19 -22 26
q-33 30 -68 41q-45 14 -65 14h-65q-45 0 -74.5 -19.5t-55.5 -67.5q-43 -80 -43 -128q0 -19 5 -36q10 -34 10 -45v-64q0 5 19 -44q1 -10 6 -26q10 -10 24 -28q6 -16 16 -36q12 -14 36 -31.5t36 -19.5q13 2 34 2q10 -5 26 -12q15 3 36 3q13 -5 27 -5q43 0 131 59q5 4 16 4
q10 -1 10 0q57 75 63 118z" />
    <glyph glyph-name="P" unicode="P" horiz-adv-x="683" 
d="M603 441q0 -33 -24 -61q-34 -41 -42 -57q-14 -18 -45 -49q-9 -8 -30 -12q-10 2 -31 2q-18 -2 -55 -6q-11 -5 -42 -15q-25 0 -54 -5q-28 -29 -28 -66q0 -31 25 -53q9 -1 25 -5q24 -8 47 -17q28 -12 38 -34q12 -25 12 -40q0 -29 -56 -29h-53q-33 6 -38 6h-198q-16 7 -32 23
t-16 31q0 11 9 18q27 19 49 44q27 30 26 49q-2 51 12 95q2 3 2 8q0 -2 -12 54q1 9 0 29q0 4 -6 13.5t-4 15.5q6 36 2 89q-2 19 0 43q3 29 3 34q0 37 -41 64q-38 24 -38 49q0 13 16.5 30.5t29.5 20.5q2 1 150 1h64q12 0 38.5 4t44.5 4q30 0 63 -9q11 -3 26 -14t20 -14
q23 -7 66 -26q3 -1 59 -50q3 -3 10.5 -24t7.5 -32v-109zM454 554q-12 48 -38 68q-17 13 -35 26.5t-33 13.5q-8 0 -23.5 -6t-24.5 -6q-8 5 -29 7q-9 -2 -27.5 -21t-19.5 -23.5t-1 -8.5q0 -9 6.5 -18t5.5 -14q-12 -18 -12 -32q0 -11 7 -23q13 -21 7 -64q-7 -46 2 -67
q0 -18 7 -41q36 -25 58 -25q7 0 12 3q18 3 57 11q10 1 24 5q39 37 46 46q15 21 22 59q1 4 6.5 17t5.5 20t-4.5 13t-18.5 60z" />
    <glyph glyph-name="Q" unicode="Q" horiz-adv-x="833" 
d="M911 -161q-16 -12 -58 -14q-76 -2 -89 -4h-69q-24 0 -23 0q-10 -2 -43 -20q-12 -6 -31 0q-11 7 -35 18q-19 1 -54 10q-2 1 -40 31q-32 25 -53 30q-4 1 -25 36q-10 16 -31 29.5t-38 14.5q-16 5 -47 15q-18 -1 -52 7q-18 9 -44 30q-17 14 -33 29l-50 32q-35 24 -53 54
q-10 31 -31 86q1 6 1 13q0 14 -6 35q-5 14 -9 28q-5 19 0 67q11 12 13 37q2 36 3 40q4 15 35 61q10 11 31 34l28 40q26 32 54 40q5 7 19 20q2 1 43 24q13 8 51 14q-6 -1 33 -1q20 0 34 16q41 7 36 7h73q16 0 73 -28q45 -22 62 -32q10 -7 25 -24q22 -25 24 -27q30 -41 61 -82
q34 -48 29 -93q-1 -3 9.5 -25t10.5 -31q0 -1 -15 -47q-2 -19 -11 -56q-12 -32 -37 -69q-5 -9 -7 -29.5t-4 -23.5q-11 -22 -36 -56q-28 -13 -55 -25q-38 -19 -38 -32q0 -12 32 -21q45 -75 80 -75q10 0 19 8q36 2 97 -10q10 -2 22 -2q13 0 37.5 4t36.5 4t22 -2q32 -8 32 -54
q0 -24 -9 -31zM619 306q3 10 -8 40q-19 50 -20 55q-3 19 -6 37q-4 25 -23 47q-22 27 -55 60q-9 3 -20 8q-33 31 -84 49q-44 15 -75 13q-36 -2 -67 -22q-26 -18 -35 -56q0 -11 -1 -26q-13 -26 -47 -55q-8 -7 -9 -16q0 -18 -8 -46q-24 -31 -24 -58q0 -9 1.5 -19.5t4.5 -28.5
q10 -23 23 -34q19 -16 27 -38q1 -8 4 -22q9 -35 49 -53q7 -4 40 -39q10 -31 34 -39q15 -4 50.5 -1t51.5 -2q88 17 146 87q35 43 33 127q0 9 8.5 18.5t9.5 13.5z" />
    <glyph glyph-name="R" unicode="R" horiz-adv-x="794" 
d="M757 57q-14 -28 -40 -45q-13 -2 -37 -10q-12 -10 -38 -25q-2 -1 -25 0q-18 22 -38 22q-6 0 -17 -2t-17 -2q-5 0 -9 1q-90 31 -117 90q-14 42 -46 118q-35 71 -117 121q-10 6 -24 3q-28 -7 -22 -45q-2 -25 -2 -90v-53q0 -16 10 -35q11 -22 29 -28q5 -12 11 -24
q9 -18 9 -29q0 -12 -10 -20.5t-70 -18.5q-50 -9 -64 -9h-70q-57 30 -57 66q0 5 3.5 12t13.5 21q14 6 38 29q15 23 17 49t2 51q4 10 7 20q7 22 7 38v318q0 22 -31 41q-22 13 -44 25q-10 9 -10 27q0 20 12 30q5 4 21.5 7t22.5 5h97q36 0 52 10t33 10h58q91 13 136 0
q87 -25 120 -83q16 -30 32 -59q19 -37 19 -66q0 -20 -14 -45q-20 -38 -21 -42q-8 -12 -16 -14q-20 -4 -44 -15q-5 -5 -13 -12q-21 -14 -62 -41q-4 -9 -4 -17q0 -18 31 -42q37 -29 44 -45q6 -12 32 -35q39 -34 45 -40q12 -17 42 -47q14 -9 36 -4q8 1 18 1q31 0 58.5 -14
t27.5 -38q0 -10 -5 -20zM425 620q-48 51 -110 51q-34 0 -70 -16q-6 -2 -7 -13q-1 -7 -1 -15q-5 -8 -10 -20q-4 -32 -13 -96v-89q2 -9 4.5 -18.5t8.5 -12.5q16 -6 40 -6q56 0 98 26q11 3 25 9q67 59 67 124q0 42 -32 76z" />
    <glyph glyph-name="S" unicode="S" horiz-adv-x="643" 
d="M538 575q-14 -30 -33 -30q-17 0 -46 28q-34 32 -45 37q-23 43 -77 43q-6 0 -11 -1h-53q-6 2 -11 2q-17 0 -33 -26q-10 -22 -21 -43q-15 -24 -15 -45q0 -38 53 -70q34 -19 69 -38q11 1 31 -4q31 -20 122 -69q6 -3 22 -31q0 -11 4 -30q3 -7 11.5 -22.5t8.5 -17.5v-100
q0 -44 -38 -93q-34 -44 -68 -57q-20 -8 -60 -19q-21 -3 -63 -12q-4 -1 -11 -1q-18 0 -55 6.5t-36 6.5h-73q-11 3 -34 9q-16 3 -23 5q-15 6 -21 18q-20 37 -20.5 54.5t-2.5 51.5q-1 6 -10 24q-8 15 -5 22q18 52 38 52q16 0 36.5 -16.5t32.5 -37.5q18 -15 50 -49
q23 -29 43 -33q21 1 59 -2l16 -6q13 -5 22 -5q6 0 10 2q29 10 75 31q14 11 31 46q4 8 4 14t-5 16t-6 14q-8 26 -28 52q-15 19 -31 37q-13 -1 -34 6q-25 9 -29 10q-11 -3 -31 1q-19 12 -47 42q-24 26 -40 33q-46 19 -79 77q-28 46 -36 95q-1 4 9.5 16.5t11.5 14.5q0 10 7 26
q41 52 74 65q12 4 36 24.5t35 22.5q23 -1 67 -1q14 3 27 5q27 5 43 5q9 0 19.5 -3t14.5 -3q22 1 66 -6q13 -5 35 -17q27 -16 28 -23q2 -17 8 -41l8 -20q7 -17 7 -28q0 -8 -3 -14z" />
    <glyph glyph-name="T" unicode="T" horiz-adv-x="776" 
d="M689 646q0 -7 2 -22t2 -24q0 -32 -26 -66q-2 -12 -15 -31q-7 -4 -24 -1q-15 3 -23 10q-21 20 -25 49q-5 2 -17.5 19.5t-14.5 19.5q-15 12 -34 12q-15 0 -23 -8q-26 -3 -39 -9q-26 -10 -33 -33v-67q0 -2 2 -10t2 -10v-54q0 -7 -1.5 -16.5t-1.5 -12.5v-101q0 -71 -1 -78
q-2 -10 1.5 -20.5t1.5 -14.5q-6 -16 -6 -29q0 -52 98 -61q21 -2 32.5 -20t11.5 -42q0 -27 -15 -43h-131q-7 0 -28 8.5t-40 10.5q-28 3 -83 -4q-61 -7 -53 -7h-53q-11 0 -18 9q-11 14 -19 19q-6 31 13 57q3 4 14 5t14 2q11 9 33 20q23 0 46 2.5t19 22.5q-3 6 -7 14.5t-4 28.5
v52q0 1 -4.5 12t-5.5 17t4.5 29t5.5 25v241q-2 17 -12 38q-25 14 -63 14q-31 0 -48 -12q-20 -15 -39.5 -53t-15.5 -57q-34 -24 -54 -24q-29 0 -29 54v136q0 2 -2 14q-2 8 1 13q11 9 31 30l22 32q16 20 29 20q5 0 10 -2q10 -12 34 -29q0 -28 36 -28h59q9 0 47 4.5t41 5.5
q9 2 29.5 -3t28.5 -3q9 7 27 18q6 2 15.5 -1t18.5 -6q10 -2 48 5q13 3 32.5 -3t28.5 -4q23 -2 68 -1q8 2 26 23q8 -1 26 4.5t26 5.5q17 0 22 -19v-73z" />
    <glyph glyph-name="U" unicode="U" horiz-adv-x="708" 
d="M660 689q8 -10 8 -19q0 -11 -18 -26q-28 -22 -34 -28q-21 -25 -23.5 -39.5t-4.5 -27.5q-9 -10 -21 -31q-2 -3 9 -17.5t12 -20.5q3 -28 16 -64q0 -19 2 -50q2 -12 2 -22q0 -17 -9 -48t-9 -59q0 -11 1 -24q0 -1 -7 -13t-7 -19q-1 -35 -26 -69q-19 -21 -37 -43
q-31 -38 -86 -52q-48 -8 -95 -15q-9 -3 -17.5 -4t-17.5 -1q-16 0 -49 7q-38 10 -53 11q-18 10 -53 26q-55 15 -83 73l-38 98q7 21 7 25v52q0 -1 -5.5 31t-4.5 46q5 53 3 59q-8 26 3 63q5 18 5 33q0 21 -18 66q-4 9 -44 39.5t-40 42.5t16.5 26.5t32.5 14.5q10 0 16 -6
q34 10 45 10h61q1 0 4 -2.5t5 -2.5q39 -5 70 -1q42 -19 42 -50q0 -4 -2 -8q-10 -7 -20 -13q-14 -9 -16 -21q1 -16 -1 -65q-8 -11 -21 -36q-1 0 -1 -15v-89q0 -10 10 -27.5t10 -21.5q0 -7 -6.5 -17t-12.5 -19q-4 -6 8 -29q13 -26 13 -31v-99q0 -18 68 -100q16 -20 37 -22
q15 -2 31 -3l33 9q12 17 27.5 22.5t31.5 25.5q5 6 16 32q12 30 12 42v52l7.5 12t6.5 18q-2 14 -8 28q-6 10 -6 32v137q0 129 -4 137q-2 3 -25.5 15t-29.5 23q-12 24 -12 41q0 11 6 15q52 35 102 35q10 0 18 -2q2 0 11.5 3t11.5 3h49q37 0 50 -3q28 -7 46 -30z" />
    <glyph glyph-name="V" unicode="V" horiz-adv-x="731" 
d="M664 676q4 -15 -16 -26q-15 -9 -30 -11q-58 -55 -72 -124q-20 -19 -22.5 -48.5t-4.5 -57.5l-7.5 -15t-7.5 -23q-29 -23 -41 -65q-5 -18 -12 -79q-7 -12 -18.5 -35.5t-36.5 -76.5q-3 -6 -2.5 -26t-1.5 -26q0 -2 -18 -41q-15 -32 -44 -32q-24 0 -49.5 21.5t-39.5 51.5
q-1 1 -2 33q0 10 -2 16q-7 11 -18 32q-10 39 -29 87q-9 10 -11 33q-3 28 -6.5 35.5t-12.5 14.5t-14 13q0 19 -11 60q-18 43 -56 131q-2 5 -4 41q-1 26 -19 31q-27 7 -41 18q-9 8 -19 16v29q0 23 9 36q9 -1 26 4q22 8 28 9q11 -3 32 -1q14 7 28 13t35 6h87q28 0 28 -31
q0 -28 -14 -40q-37 -36 -37 -64q0 -18 13 -37q-2 -19 7 -54q29 -47 50 -111l8 -56q11 -54 37 -88q-2 -14 6.5 -24t19.5 -10q21 0 21 28q1 42 40 127q27 60 55 119q7 9 24 37q-2 10 0 33q10 34 10 50t-10 44q-14 4 -28 15q-17 12 -17 23q0 9 16 16q8 23 68 23h66
q17 3 35.5 -9t24.5 -35z" />
    <glyph glyph-name="W" unicode="W" horiz-adv-x="1066" 
d="M1066 644q-3 -12 -43 -27l-52 -18q-11 -6 -25 -24q-17 -21 -18 -38q-3 -44 -7.5 -58t-9.5 -28q-2 -6 -17 -23t-18 -28q-10 -16 -27 -58q-15 -59 -24 -86q-17 -48 -36 -79q-2 -19 -8 -53q-1 -6 -20 -10q-22 -5 -30 -18q-1 -24 -10 -58q-46 -58 -73 -58q-11 0 -20.5 8
t-23.5 27q-16 23 -16 32.5t-16 32.5q-21 28 -24 35q-6 13 -30 117q-5 21 -19.5 22.5t-17.5 14.5q-12 -43 -14 -47q-4 -12 -22 -41q-2 -19 -8.5 -53t-21.5 -57q-16 -10 -39 -29q-46 -58 -72 -58q-11 0 -21 8t-23 27q-17 22 -16.5 32t-16.5 33q-20 28 -23 35q-6 13 -30 117
q-7 39 -13.5 78t-23.5 67q0 9 -5 28t-20 59q-11 12 -26 39q1 21 -4 58q-6 7 -19 25q-5 11 -10.5 22.5t-15.5 14.5q-18 4 -36 10t-18 20q0 5 2 10q4 17 38 38q31 19 42 17h78q38 4 109 -2q5 0 7.5 -23t1.5 -30q0 -4 -6 -10q3 -12 -26 -50q17 -98 37 -158q15 -45 18 -84
q4 -7 9 -22q6 -23 22 -68q6 -34 13 -68q10 -50 36 -45q6 7 17 19q22 18 30 65q3 33 7 66q9 23 22 63q1 7 14.5 18.5t14.5 19.5q1 2 2 12q-8 23 -15 39q-11 12 -25 39q0 21 -4 58q-7 7 -19 25q-5 11 -10.5 22.5t-16.5 14.5q-18 4 -36 10t-18 20q0 5 2 10q5 18 37 37.5
t43 17.5h78q15 2 30 2q36 15 57 6q11 -5 42 -3q34 2 39 1q5 -2 16 -25.5t11 -39.5q0 -9 -4 -13q-30 -32 -52 -44q-10 -5 -23 -21q-16 -19 -19 -35q12 -58 29 -110q12 -35 15 -75q4 -7 10 -22q5 -23 21 -68q7 -34 13 -68q11 -50 36 -44l18 18q22 18 30 65q3 33 6 67
q9 22 22 62q2 7 15 18.5t15 19.5q1 32 11 95q12 13 24 36q0 6 5 21t5 23q0 15 -13 26q-30 28 -30 53q0 27 30 45q27 17 56 17q10 0 16 -3q11 -4 43 -3q33 2 38 1q-6 1 25 1q47 0 47 -44q0 -14 -5 -33z" />
    <glyph glyph-name="X" unicode="X" horiz-adv-x="817" 
d="M707 45q-3 -12 -38 -44q-11 -9 -25 -9q-9 0 -24.5 4t-21.5 4q-54 4 -86 -10q-6 -2 -11 -2q-16 0 -41 17q-17 12 -35 25q5 9 34 54q5 8 5 16q0 14 -17 32q-13 14 -27 29q-10 13 -29 57q-11 23 -30 21q-39 -2 -76 -93q-2 -5 -18 -29q-12 -19 -12 -30q0 -8 6.5 -23t5.5 -23
q0 -6 -23 -18q-16 -13 -46 -28l-84 -8h-59q-12 2 -29 18.5t-16 32.5q1 20 23.5 44t47.5 20q39 -6 62 8q6 4 21 33q16 33 20 38q24 31 58 63q10 10 22 47q6 10 15 55q0 7 -12 22q-16 19 -19 25q-22 42 -63 91q-14 16 -89 96q-7 7 -27 10t-26 7q-62 48 -65 69q-4 35 54 57
q4 2 18 13t20 11q8 0 22 -11q19 -15 21 -16q14 -7 39 -7q12 0 38.5 2.5t37.5 2.5q31 0 41.5 -12.5t10.5 -33.5q0 -12 -5 -39q-3 -22 -1 -29q24 -75 81 -116q3 -2 7 -2q10 0 21 12.5t11 20.5q9 6 20.5 27t18.5 25q38 20 39 69t28 68q28 10 48 21q8 4 17 4h59q17 4 33.5 -13.5
t16.5 -37.5q0 -9 -5 -16q-11 -16 -41 -32.5t-45 -41.5q-5 -9 -27.5 -28t-25.5 -22q-9 -22 -34 -59q-37 -31 -49 -46q-13 -18 -13 -38q0 -6 1 -14q2 -16 35 -53q20 -20 39 -41q34 -49 48 -61q36 -45 99 -116q16 -4 45 -29q12 -17 6 -40z" />
    <glyph glyph-name="Y" unicode="Y" horiz-adv-x="585" 
d="M516 678q-13 -23 -54 -31q-37 -7 -42 -32l-12 -55q-5 -21 -17 -37l-32 -36q-27 -35 -27 -59q0 -2 -8 -16t-10 -21q-7 -20 -10 -62t-7 -85q0 -14 7 -40q3 -8 -1 -43q-3 -33 5 -51q6 -13 34 -26q34 -15 40 -21q19 -16 19 -44q0 -7 -2 -11q-9 -11 -40 -5q-16 -4 -49 -12
h-183q-7 0 -18.5 -2t-16.5 -2q-21 0 -38 25q-5 7 3 24q11 25 48.5 45t44.5 30q9 14 9 41t7 37q-3 11 -3 25q0 6 3 39q2 26 0 45q-5 11 -14 32q-3 23 -17 66q-11 31 -23 63q-15 40 -41 65q-4 18 -20 49q-17 22 -30 35q-23 24 -35 24q-27 2 -27 30q0 24 13 48q5 8 16 9.5
t21 2.5h128q27 0 52 -23q9 -9 9 -18q0 -8 -8 -19q-11 -17 -12 -20t-1 -10q0 -43 20 -54q-8 -4 -5 -10q12 -27 34 -77q3 -12 6 -23q6 -15 17 -17q-2 0 20 5q83 91 83 170q0 14 -3 27q-25 26 -25 43q0 35 97 35q22 0 52 -2q9 -1 21.5 -8t10.5 -13q12 -1 14 -12q2 -10 -3 -18z
" />
    <glyph glyph-name="Z" unicode="Z" horiz-adv-x="861" 
d="M800 671q0 -33 -49 -73q-62 -51 -87 -102q-2 -5 -16 -12.5t-18 -11.5q-45 -41 -102 -102q-6 -6 -25 -19q-14 -9 -17 -18q-8 -28 -22 -44q-1 -2 -31 -30q-9 -2 -18 -5q-17 -5 -22 -15q-2 -5 -19 -52q-3 -8 -18 -17q-19 -12 -21 -14q-11 -15 -40 -50q-2 -2 -2 -5
q0 -8 27 -20q22 -10 45 -10.5t33 -4.5q59 -4 75 -3l134 16q1 0 14.5 7.5t20.5 6.5q47 54 76 68q2 1 45 -2q3 0 16 -9q5 -7 0 -15q-15 -18 -38 -56q-15 -35 -21 -47q-13 -22 -29 -27q-20 -1 -62 -4q-3 -1 -17.5 -8t-18.5 -4q-27 12 -44 12q-10 0 -52 -12q-3 -1 -24 6
q-24 9 -36 9h-72q-3 0 -12 9h-52q-4 0 -23 4.5t-34 4.5h-106q-20 4 -51 -23.5t-39 -27.5q-14 0 -28.5 20t-17.5 36q0 21 -4 62q0 2 -5 16q-4 10 -2 15q2 18 11 51q10 23 42 23q21 0 40 -9q28 -11 30 -10q11 7 32 19q25 11 45.5 30.5t65.5 58.5q9 4 24 14q8 6 16 21t14 21
q35 37 42 46q14 20 16 46q28 30 56 59q36 41 41 66q1 4 21.5 14.5t23.5 21.5q8 35 -14 38q-19 -13 -41 -13q-16 0 -53 12t-62 12q-13 0 -26 -3q-24 -12 -76 -32q-47 -12 -95 -29q-13 -5 -39.5 -35t-42.5 -30q-12 0 -25 13q-3 4 0 17q2 13 9.5 20t21.5 28q1 9 1 27q0 6 13 18
t15 17t3 27q0 15 14 22q21 -2 41 12q28 19 32 20q8 3 18 3q13 0 47 -10q31 -10 50 -9q9 1 25 -7l16 -8h56q-2 0 23 -5q10 -2 17 -2q8 0 15.5 3.5t12.5 3.5h190q6 -2 14 -2q13 0 35 6.5t28 6.5q9 1 35.5 -8t28.5 -18t2 -16z" />
    <glyph glyph-name="bracketleft" unicode="[" horiz-adv-x="417" 
d="M327 697q0 -14 -12.5 -30.5t-27.5 -19.5q-28 4 -46 4q-13 0 -39.5 -6t-41.5 -6q-3 0 -16 -7t-18 -8q-14 7 -44 17q2 -9 0 -23q-3 -18 -3 -23q0 -17 6.5 -51.5t6.5 -51.5q0 -25 -11 -76.5t-11 -76.5q0 -14 7.5 -42.5t7.5 -43.5q0 -24 -5.5 -71t-5.5 -71q0 -9 -8 -29
t-8 -30q0 -18 7 -43q11 -40 11 -41l15 -3q41 7 61 7q12 0 40.5 -3t50.5 -3q67 0 67 -33q0 -13 -12.5 -28.5t-26.5 -17.5q-37 9 -55 9q-12 0 -36 -2t-37 -2q-4 0 -15.5 -5.5t-18.5 -6.5q-36 16 -73 32q-38 20 -38 60q0 33 26 85v6q-1 13 4.5 36.5t5.5 35.5q0 15 -11 45.5
t-11 44.5q0 9 10 23.5t10 22.5q0 11 -5.5 32.5t-5.5 32.5q0 9 11 28.5t11 30.5q0 28 -10.5 87.5t-10.5 90.5q0 8 1 24.5t1 24.5q0 4 -5.5 16.5t-5.5 22.5q0 37 29 49l2 2l13 5q8 0 24.5 -5t26.5 -5t31.5 6t30.5 7t24.5 -2t22.5 -3q11 0 33.5 5t34.5 5q42 0 42 -28z" />
    <glyph glyph-name="backslash" unicode="\" horiz-adv-x="563" 
d="M499 -70q-6 -26 -41 -27q-14 0 -23 15t-15 49q-8 39 -16 60q-5 11 -23.5 30t-19.5 22q-7 19 -30 54q-29 44 -44 73q-9 17 -17 53q-8 33 -11 37q-25 37 -75 109q-15 22 -27 60q-10 30 -19 59q-11 17 -25 42q-4 26 -14 78q7 8 22 8q12 0 20 -5q29 -20 30 -50q0 -8 2 -20
q60 -102 84 -213q2 -13 24.5 -29.5t25.5 -25.5q6 -23 18 -63q3 -6 21 -17t19 -20l18 -82q6 -19 28 -43q8 -16 20 -34q69 -57 69 -104q0 -8 -1 -16z" />
    <glyph glyph-name="bracketright" unicode="]" horiz-adv-x="458" 
d="M402 486q0 -27 -12 -80t-12 -80q0 -16 7.5 -46.5t7.5 -46.5q0 -27 -6 -74q-6 -53 -7 -75q-1 -10 -9 -30.5t-8 -31.5q0 -20 9.5 -57t9.5 -56q0 -36 -40 -34q-34 21 -77 21q-12 0 -38.5 -4.5t-40.5 -3.5q-11 -7 -35 -15q-30 11 -59 22q-39 17 -39 40q0 21 14 35l14 5
q8 -1 25.5 -7t27.5 -6q11 0 31.5 5t31.5 5q9 0 26.5 -3.5t26.5 -3.5q10 0 28 3.5t27 3.5q6 24 22 57q0 14 5.5 41.5t5.5 40.5q0 17 -10.5 48.5t-10.5 47.5q0 10 11 24.5t11 23.5q0 12 -5.5 35t-5.5 35q0 11 11.5 30.5t11.5 30.5q0 40 -8.5 120t-8.5 121l-1 6h-2q-33 7 -52 7
q-13 0 -39 -4.5t-40 -4.5q-11 -6 -35 -14q-30 11 -59 22q-39 16 -39 40q0 20 14 35l14 4q8 -1 25.5 -7t27.5 -6q11 0 31.5 5.5t31.5 5.5q9 0 26.5 -3.5t27.5 -3.5q9 0 38 4q25 3 39 1q11 7 24 7l8 -2q17 -65 17 -124q0 -18 5.5 -54.5t5.5 -54.5z" />
    <glyph glyph-name="asciicircum" unicode="^" horiz-adv-x="447" 
d="M393 653q12 -16 12 -28q0 -15 -13 -23.5t-24 -8.5q-6 0 -16.5 24.5t-26.5 23.5q-9 0 -57 50q-25 26 -48 26q-9 0 -22 -4.5t-18 -3.5q-5 -21 -45 -69q-43 -51 -64 -51q-18 0 -43 19.5t-25 36.5q0 9 25 25q34 20 35 21q29 37 68 82q25 23 51 46q22 18 39 18q20 0 49 -22
q11 -8 62 -78q31 -42 61 -84z" />
    <glyph glyph-name="underscore" unicode="_" horiz-adv-x="625" 
d="M610 -94q31 -8 31 -25q0 -18 -32.5 -38t-61.5 -22q-39 4 -118 7q-3 0 -50.5 -6t-76.5 -6q-15 0 -27 1q-8 1 -35 -7q-31 -8 -47 -9q-4 -1 -58 16q-12 4 -52 6q-35 2 -58 13q-32 9 -32 30q0 24 34 42q12 6 30 5q32 -6 110 -14q7 0 59.5 6t75.5 7q31 1 58 -3q35 -4 44 -5
q17 0 49 4q36 4 47 4q83 2 110 -6z" />
    <glyph glyph-name="grave" unicode="`" horiz-adv-x="447" 
d="M329 639q-1 -34 -8 -74q-3 -4 -10 -4q-14 0 -29 10.5t-16 22.5q-2 34 -29 71q-33 47 -35 53q2 16 -17 32.5t-19 24.5q0 9 10 19q15 16 64 16q34 0 45.5 -11t30 -78t13.5 -82z" />
    <glyph glyph-name="a" unicode="a" horiz-adv-x="465" 
d="M387 26q-8 -11 -21.5 -30.5t-32.5 -19.5q-14 0 -36 12l-34 18q-9 12 -29 31q-4 2 -13 2q-31 0 -39 -23q-37 -42 -77 -33q-5 1 -29 15.5t-37 26.5q-43 30 -43 78q0 25 13 38q54 55 116 67q6 1 19.5 16.5t23.5 21.5q2 2 33 13q20 8 30 24q16 28 18 46q8 56 -49 56
q-59 0 -90 -47q-5 -8 -27 -9q-18 -1 -31 2q-19 3 -18 11q0 21 14 46q16 31 41 37q8 7 26 20q9 3 28 10q10 12 30 25q40 8 57 10q75 5 103 -41q7 -1 15 -14q9 -18 10 -18q16 -19 16 -48q0 -18 -10 -62q1 7 2 -59q0 -1 -4 -38q-2 -23 4 -31q-6 -61 -5 -81q5 -8 19.5 -29.5
t6.5 -42.5zM239 193q-11 24 -32 16q-22 -8 -44 -38.5t-22 -54.5q0 -31 38 -34q3 -2 9 -5q8 -4 28 9.5t22 19.5q2 10 0 25t-1 19q8 30 2 43z" />
    <glyph glyph-name="b" unicode="b" horiz-adv-x="534" 
d="M474 187q1 -5 -11 -19q-15 -17 -15 -18q-14 -21 -16 -31q4 -11 1 -27l-38 -50q-44 -42 -108 -42q-8 0 -39.5 9t-47.5 9q-33 0 -35 -34h-56q-38 0 -58 5q-43 10 -51 27q-3 6 7 55q2 7 11 17q13 14 15 17q5 8 7 16q1 5 0 12q-1 8 -1 9v231q0 143 2 128q-1 22 -3 81
q-9 12 -25 29q-8 4 -15 9q-11 7 -10 12q9 39 44 64.5t72 25.5q13 0 24 -3q24 4 27 -1q8 -16 8 -43q0 -13 -2.5 -43.5t-2.5 -44.5q1 -32 -1.5 -63t-2.5 -34q0 -24 18 -56q-2 -5 -2 -9q0 -6 7 -6q11 0 43 14t36 14h60q19 -3 39 -6q24 -6 51 -20q16 -8 35 -41q25 -40 27 -43
q18 -20 18 -49q0 -13 -6 -46.5t-6 -54.5zM353 278q0 12 -2 27q-25 59 -133 62q-42 1 -54 -57q-5 -46 -10 -91q-1 -6 3.5 -20t5.5 -16q5 -47 3 -67q-3 -28 -2 -28q36 -27 73 -27q18 0 33 8q46 13 72 56q23 39 23 88q0 36 -12 65z" />
    <glyph glyph-name="c" unicode="c" horiz-adv-x="428" 
d="M389 377q4 -18 -8 -41q-25 -31 -54 -31q-16 0 -35 9q-21 23 -53 48q-9 1 -61.5 -30t-51.5 -92l12 -73q2 -28 4 -38q5 -24 17 -33q25 -22 65 -22q41 0 77 22q8 5 19 5q18 0 34.5 -11.5t16.5 -25.5q0 -16 -22 -27q-26 1 -66 -37q-10 2 -28 1q-14 -7 -27 -14
q-21 -10 -36 -10q-10 0 -18 4q-22 8 -72 32q-3 3 -10 9q-47 19 -74 65q-24 42 -24 88q0 18 3 33q-1 11 3 32q10 29 21 58q19 48 41 61q10 1 28 8q15 14 73 50q11 2 33 10q1 0 16 12q11 9 17 9q19 -2 38 -3q31 -5 59 -21q16 -6 31 -12q26 -13 32 -35z" />
    <glyph glyph-name="d" unicode="d" horiz-adv-x="500" 
d="M444 12q-49 -34 -99 -34q-23 0 -31 12q-27 42 -53 42q-13 0 -37.5 -16t-38.5 -16h-84q-2 0 -16 11q-17 13 -27 19q-5 1 -16 4q-7 9 -27.5 54t-20.5 51v136q0 13 10.5 33.5t11.5 29.5q-2 8 6 28q42 51 144 98q10 5 24 5q9 0 28 -3t28 -3q19 0 28 12q1 8 4 24q11 45 -1 118
q-1 4 -17 16t-17 16q-5 9 -5 19q0 27 37 45q32 17 66 17q9 0 16 -2q2 0 25 10q15 5 34.5 -8t19.5 -30q0 -14 -21.5 -46t-23.5 -48l7 -108q0 -2 -3 -35t-3 -35v-192q0 -1 5.5 -11.5t5.5 -16.5q0 -24 3 -72q-1 -6 2 -25q7 -22 33 -40q0 -3 3 -19.5t3 -24.5q0 -10 -3 -15z
M290 294q-7 14 -15 38q-1 1 0 39q0 26 -13 36t-36 13q-20 2 -27 -3q-106 -83 -106 -135q0 -12 3 -23q4 -10 0 -19.5t-4 -18.5q0 -33 36 -78q31 -37 57 -51q13 -7 41 5q22 1 43.5 17t21.5 37q0 8 -3 15q4 8 5 58q1 52 -3 70z" />
    <glyph glyph-name="e" unicode="e" horiz-adv-x="449" 
d="M394 310q-17 -19 -57 -25q-9 -9 -32 -20h-38q-36 -1 -53 -9q-56 -25 -62 -76q-4 -9 -12 -26l24 -52q18 -35 46 -33h64q7 0 28 6.5t31 6.5q21 0 26 -24q2 -10 -18.5 -27t-38.5 -20q-23 -3 -35 -7q-3 -1 -15 -10.5t-18 -9.5q-9 0 -20 8.5t-19 9.5q-32 0 -87 2q-21 2 -36 42
q-2 6 -18 19t-21 26l-24 56q-13 33 -13 58q0 15 5 43t5 42q6 9 13 28q3 55 63 94q10 6 27.5 10t23.5 7q26 15 52 29q7 4 33 7q10 1 21 1q100 0 140 -90q6 -10 12 -21q9 -16 9 -27q0 -10 -6 -18zM212 293q40 4 40 39q0 23 -17 44t-36 21q-26 0 -44.5 -28.5t-18.5 -55.5
q0 -37 27 -37q12 0 27 9q8 4 22 8z" />
    <glyph glyph-name="f" unicode="f" horiz-adv-x="272" 
d="M321 689q2 -4 -0.5 -12.5t-4.5 -15.5q-4 -36 -34 -36q-16 0 -52 16q-13 6 -25 6q-17 0 -48 -17q0 -11 -5.5 -51.5t-5.5 -60.5q0 -46 25 -48q20 -1 58 -8q9 5 17 5q19 0 30 -22.5t7 -40.5q-7 -13 -23 -13q-7 0 -25 3.5t-28 3.5q-22 0 -41.5 -20.5t-19.5 -44.5q0 -7 2 -14
v-145q0 -23 12 -57q17 -46 43 -42q10 -17 10 -34q0 -29 -29 -34q-6 -5 -17 -11q-12 -2 -47 -2h-51q-21 0 -42 15t-21 34q0 18 23.5 33t23.5 34q0 8 -3 22.5t-3 16.5q2 6 4.5 17.5t2.5 42.5v71q0 97 -22 98q-3 7 -8 21q-3 7 -3 15q0 16 16 45q18 33 22 48q0 2 2 50
q1 38 11 46l16 21q16 25 34.5 52t38.5 33q16 7 33 13q26 11 39 10q61 0 88 -43z" />
    <glyph glyph-name="g" unicode="g" horiz-adv-x="484" 
d="M461 376q0 -24 -35 -51q-7 0 -16 3t-13 3q-6 0 -13 -4q-10 -5 -12 -21v-19q-5 -7 -7 -25.5t-9 -28.5t-25 -23.5t-23 -19.5q-5 -9 -11 -18q-9 -12 -19 -14q-22 -5 -39 -13.5t-24 -9.5q-2 -1 -14.5 -6t-18.5 -5q-54 6 -54 -21q0 -5 3 -12q-4 -19 5.5 -23t27.5 -4q14 0 45 4
t44 4q25 0 33 -10q24 -25 37 -25q6 0 20 4q47 -30 64 -46q31 -30 30 -62q2 -3 2 -7q0 -17 -30 -54q-28 -32 -57 -64q-3 -4 -14 -6q-34 -27 -68 -35q-53 -10 -61 -14q-11 5 -46 5h-70q-1 0 -28 8.5t-33 7.5q-23 19 -30 43l-6 40q-9 41 0 70q-1 -3 -9 67q21 39 51 77
q18 23 31 63q1 4 -4.5 10t-10.5 11q-22 28 -34 26q0 5 -2 10q-6 12 -16 21q-3 3 -3 31v65q8 25 24 88q105 82 169 82q36 0 66 -22q8 -6 30 -8q17 -1 23 -15q16 -35 46 -35q12 0 35 6.5t33 6.5q14 0 25 -10.5t11 -24.5zM263 276q4 13 4 32q0 44 -17 77q-21 40 -58 40
q-35 0 -64 -23.5t-32 -57.5q0 -3 -6 -26q-5 -19 -3 -23l26 -56q23 -36 57 -33q6 -2 16 -5q9 -1 16 5.5t12 11.5q41 26 49 58zM320 -168q21 23 21 39q0 17 -23 35q-4 28 -27 42q-14 8 -51 17t-55 19q-2 1 -18 0q-31 -1 -52 -15q-27 -18 -27 -51q0 -6 1 -13q-3 -7 -5 -21
q-6 -9 -6 -16q0 -10 17 -20q27 -16 34 -23q5 0 13 -1q14 -9 51 -12q16 -1 53 -5q25 8 74 25z" />
    <glyph glyph-name="h" unicode="h" horiz-adv-x="538" 
d="M477 31q2 -3 2 -5q0 -13 -22 -27q-18 -12 -31 -14q-23 -4 -34 0q-15 4 -18 4h-51q-27 13 -28 23q-3 28 24 52.5t27 46.5v80q0 -3 3 32q1 17 -6 33q3 9 2 26q-12 12 -25 38q-6 54 -56 54q-15 0 -41 -5q-30 -6 -37.5 -6.5t-19.5 -16.5q-19 -26 -21 -28q-4 -14 0 -47
q5 -44 5 -54q0 -23 -8 -36q4 -8 2 -32q-4 -34 -3 -55q18 -12 35.5 -24.5t17.5 -36.5q0 -34 -28 -42q-7 -2 -13 -2q-8 0 -18 5t-14 6q-1 -5 -5 -16l-44 -4q-25 -2 -40 4q-27 10 -27 43q0 11 4 20q0 6 1 17q1 3 12 16q18 9 18 35v51q0 1 -1.5 7.5t-1.5 8.5v51q0 26 1.5 34.5
t1.5 10.5v263q0 21 -23.5 37.5t-23.5 29.5q0 14 24 38q32 32 34 36q7 0 31 12t36 12q32 0 31 -77q0 -13 -1 -53q-1 -28 0 -62q2 -7 8 -27q-1 -15 1 -46q1 -7 13 -12q8 -4 17 -7q8 -6 23 -17q3 -2 48 29q14 5 42 14l48 3q9 -10 28 -25q11 -4 22 -9q15 -7 18 -20
q18 -29 35 -45q4 -3 4 -29v-84q0 -12 -2.5 -39.5t-2.5 -44.5q0 -64 27 -124z" />
    <glyph glyph-name="i" unicode="i" horiz-adv-x="256" 
d="M187 687q21 2 21 -29q0 -26 -16 -48q-20 -27 -51 -31q-14 8 -14 28q0 25 19 51.5t41 28.5zM204 50q0 -20 -24 -40t-42 -14h-79q-37 0 -37 43q0 18 7 36q26 18 25 99q6 5 7 13q1 11 -1.5 22t-2.5 24q0 11 2.5 32.5t2.5 31.5q0 13 -2 23q-36 20 -36 52q0 23 20 44t47 26
q8 7 22 15q16 4 26 0q9 -2 22 -18t18 -30q2 -6 2 -14q0 -14 -10 -40q-11 -32 -13 -45q-3 -13 0 -49q2 -12 -1 -38q-5 -39 -5 -44q-2 -38 12 -90q1 -6 17 -13t19.5 -12.5t3.5 -13.5z" />
    <glyph glyph-name="j" unicode="j" horiz-adv-x="256" 
d="M249 636q3 -8 3 -16q0 -28 -40 -47q-34 -13 -67 -27q-7 -2 -13 -4q-9 -2 -14 3q-14 12 -14 33q0 23 13 46q7 13 35 21l48 14q3 1 8 1q33 0 41 -24zM173 337q0 -17 -3 -45q4 -5 1 -34q-3 -24 -6 -47q-2 -16 -5 -50q6 -8 6 -20v-76q0 -1 -9 -33q-11 -36 -14 -51
q1 -14 -5 -44q-8 -11 -21 -42q0 -12 -7 -34q-11 -12 -22 -12q-14 0 -25 16t-11 33q0 9 3 15v111q-4 18 -10 56q0 6 5 20t5 15v162q0 22 -24.5 48t-24.5 39q0 6 3 12t32 21.5t41 35.5q6 11 34.5 23t42.5 9q23 -16 14 -60v-68z" />
    <glyph glyph-name="k" unicode="k" horiz-adv-x="550" 
d="M519 21q-2 -7 -13.5 -12t-21.5 -9q-30 -16 -69 -21h-92q-22 0 -38 22q1 17 13 27t15 19q3 8 -3 41t-11 38q-19 32 -43 69q-18 15 -33 15q-33 0 -48 -77q-4 -14 2 -27q14 -37 15 -38q6 -9 25 -16q0 -1 8 -17q6 -11 4 -18q-5 -24 -21 -30q-49 -20 -111 -13q-11 3 -35 9
q-10 -1 -29 1q-11 10 -30 26q2 13 2 36q58 23 58 102v325q0 22 -7 44l-8 26q-42 24 -39 38q13 55 125 119q2 1 11 2t15 1q8 -1 8 -6q0 -29 3 -29q2 0 8 -68q0 -2 -1.5 -46.5t-2.5 -48.5q-6 -39 -6 -61v-121q0 -1 2 -3t2 -4q17 -26 41 -26q11 0 27 -3q4 1 7 1q28 33 55 67
q18 26 18 56q0 14 -3 34q-1 2 10 3q15 1 18 2q10 2 30 7q6 2 10 2q5 0 14 -5t16 -7q27 2 66 -4q8 -6 8 -16q0 -18 -29 -43q-24 -21 -42 -29q-11 -4 -22 -7q-19 -7 -29 -18q0 -1 -19.5 -27t-18.5 -27q7 -45 22 -67q10 -14 35.5 -29.5t38.5 -30.5q19 -24 54 -62q10 -9 24 -29
q18 -26 15 -37z" />
    <glyph glyph-name="l" unicode="l" horiz-adv-x="281" 
d="M247 19q-6 -24 -21 -30q-57 -23 -129 -15q-11 3 -35 9q-10 -1 -29 1q-11 10 -30 26q2 13 2 36q58 23 58 102v325q0 6 -15 104q-42 25 -39 39q13 55 125 119q3 1 15 1q14 0 20.5 -5t9.5 -22v-75q0 -1 1.5 -3t1.5 -4v-65q0 -2 -3 -10t-3 -12q-7 -40 -7 -96v-121q0 -1 2 -3
t2 -4v-106q0 -6 3 -23t3 -28q0 -14 -4 -26q-4 -14 2 -27q10 -27 24 -37q7 -6 34 -16l8 -16q5 -11 4 -18z" />
    <glyph glyph-name="m" unicode="m" horiz-adv-x="768" 
d="M696 10q-6 -2 -27 -1t-32 -3q-31 -13 -56 -13q-7 0 -27.5 2.5t-35.5 1.5q-18 12 -18 27q0 7 5 11q53 49 61 122q0 4 -5 27.5t-5 25.5v72q-4 90 -61 90q-32 0 -41 -4q-15 -6 -22 -29q-1 -4 -3 -78q-1 -18 -3 -31l-13 -37q-3 -7 3 -24q9 -25 10 -31q1 -22 9 -65
q11 -15 25 -44q3 -23 -14 -34q-125 -2 -164 -1q-7 15 -7 35q0 13 4 22q30 20 30 72q0 7 -1 26v24q2 4 7 12v63q0 30 -14 43q1 5 1 10q0 29 -31.5 53.5t-57.5 19.5q-19 -4 -43.5 -30t-27.5 -46q0 -4 3 -18.5t3 -19.5v-110q0 -12 2 -29t3 -35q5 -21 29 -34q4 -2 11.5 -12
t7.5 -16q0 -9 -12.5 -17t-23.5 -9h-29q-16 -1 -27 -9q-28 5 -56 11q-40 8 -40 37q0 6 1 13q7 8 16 23q2 16 8 45q2 8 0 32q-2 29 -2 25v68q0 1 -1.5 2.5t-1.5 3.5v50q0 6 -16 18q-10 6 -20 13q-3 6 -3 14q0 10 6 27l10 26q20 14 39 29q23 16 42 17q12 -14 19 -17
q15 -6 30 -16q2 -4 8.5 -9.5t9.5 -2.5q48 42 55 44q4 2 42 2h69q12 0 34 -9q19 -8 27 -15q22 -18 31 -18q13 0 29 20q3 4 20 13.5t28 10.5q22 -2 48 4.5t36 6.5q17 -1 44 -25q22 -21 45 -42q26 -78 26 -98q0 -5 -6 -25.5t-6 -55.5v-87q8 -38 18 -55q13 -24 13 -36
q0 -18 -15 -23z" />
    <glyph glyph-name="n" unicode="n" 
d="M504 90q2 -8 2 -15q0 -24 -25 -46q-24 -18 -47 -35q-11 2 -32 0q-13 -5 -25 -5q-19 0 -42 19.5t-23 38.5q0 5 6 17.5t7 16.5q8 20 18 49v80q0 11 -6.5 40t-8.5 102q-1 16 -25 30l-32 16q-19 1 -45 -12q-19 -12 -39 -24q-26 -15 -26 -72q0 -10 1 -18q1 -3 -5.5 -16
t-6.5 -20q0 -5 12 -40q2 -10 -1.5 -30t-3.5 -28q0 -25 21 -41q8 -6 13.5 -17t5.5 -25q0 -22 -14 -42t-36 -25q-12 -3 -91 0q-10 0 -17 12q-2 7 -9 18q-14 14 -14 29t14 33l5 33v67q0 27 6 51q3 10 -5 42q0 17 -5 51q-1 4 -15 24q-12 17 -12 27q0 4 2 7q5 14 24 35
q23 27 40 26q9 5 21 14q10 18 26 18q26 0 40 -31q11 -24 44 -31l42 15q6 7 30 15t31 13q14 11 34 11q12 0 32.5 -5t27 -5t15.5 -17q11 -20 18 -24q7 -10 19 -35q-1 -19 5 -64q2 -8 -5 -43v-93q0 -68 19 -81q12 -4 35 -10z" />
    <glyph glyph-name="o" unicode="o" horiz-adv-x="522" 
d="M469 171q-8 -7 -19 -24l-17 -28q-18 -25 -51 -61q-37 -38 -55 -48q-19 -1 -57 -4q-1 0 -27 -12q-4 -2 -16 3q-15 6 -20 6q-12 -6 -36 -9l-15.5 7.5t-20.5 6.5q-135 119 -127 190v110q0 6 25 46t30 45q54 42 85 51q17 4 77 4h74q8 -8 27 -15q28 -11 32 -13q9 -6 22 -16
q7 -13 26 -26q36 -24 44 -31q28 -66 28 -120q0 -31 -9 -62zM355 166q-1 21 -14 58q9 16 9 36q0 33 -21.5 67.5t-52.5 55.5q-15 4 -62 21q-16 6 -26 4q-25 -6 -31 -35q-23 -25 -37 -73q-3 -11 6 -46l12 -40q5 -23 2 -42t-3 -21q2 -8 15 -16q7 -4 14 -9q5 -15 15 -35
q7 -8 18 -10q18 -4 21 -5q12 -6 24.5 -12.5t21.5 -4.5q28 5 67 19q25 22 25 68q0 11 -3 20z" />
    <glyph glyph-name="p" unicode="p" horiz-adv-x="546" 
d="M476 189q-13 -11 -42 -45q-6 -25 -25 -58q-36 -27 -95 -57q-10 0 -29 -4q-6 -3 -13 -3q-8 0 -20 3.5t-14 4.5q-13 3 -24 3q-56 0 -56 -87v-76q0 -20 13 -30q32 -25 46 -40q-11 -28 -19.5 -35t-31.5 -7h-57q-16 0 -38.5 -7t-43.5 -4q-7 1 -20.5 16t-18.5 28q-3 8 12 22
q20 17 22 23q4 18 11 52q1 4 7 18t6 16v392q-1 10 -23 26.5t-22 31.5q0 9 5 19q9 17 49 54q13 12 54 26q6 3 16 -14q15 -25 37 -39q5 -3 11 -3q14 0 43.5 17t37.5 18q13 -4 35 -4q6 3 20 8q8 2 28.5 -3t42 -9t32.5 -22q13 -3 30 -31q11 -22 23 -44q20 -33 20 -71q0 4 -9 -85
zM379 204v60q0 21 -39 69q-37 45 -55 53q-13 6 -38 6q-41 0 -70 -15q-34 -18 -30 -51l-4 -102q0 -31 8 -92q8 -9 30 -34q10 -12 55 -12q28 0 35 11q4 -1 10 -1q24 0 52 28q24 25 33 50q13 37 13 30z" />
    <glyph glyph-name="q" unicode="q" horiz-adv-x="508" 
d="M473 -174q4 -8 4 -19q0 -41 -32 -56q-23 -10 -38 -2q-42 20 -44 20q-7 0 -18 -5t-18 -6q-13 1 -38 -1q-12 -2 -23 -11q-6 -3 -18.5 8.5t-15 20.5t-2.5 16q0 23 36.5 42t34.5 44q1 -9 10 30q1 5 0 29v51q0 2 3.5 10.5t3.5 15.5q0 12 -8 27.5t-18 15.5q-5 0 -19 -7
q-17 -9 -26 -13q-17 -2 -50 -9q-9 -6 -27 -17q-7 -3 -19 6q-15 12 -20 13.5t-20 1.5q-10 -1 -13 6q-11 21 -35 27.5t-30.5 15.5t-30.5 60q-3 39 -14 91q11 22 26 78q6 38 26 62l62 64q3 4 63 25q14 5 44 3l52 -4q13 -4 40 -9q12 -12 21 -12q10 0 17 14q28 3 46 2
q46 -52 46 -61q0 -1 -4.5 -14.5t-4.5 -31.5v-119q0 -18 5.5 -28t5.5 -19v-64l-5 -13t-5 -24q0 -12 6 -23q-3 -11 -1 -29q4 -25 4 -27v-62q1 -51 2 -57q7 -34 39 -56zM344 256q3 8 -5 26l-12 24q0 11 -5 29q-14 27 -34 48q-12 2 -27 9.5t-37 8.5q-16 1 -31 1q-20 2 -50 -37
q-23 -30 -29 -46q-12 -30 0 -63q5 -11 10.5 -22t5.5 -29q-1 -39 31.5 -73t74.5 -34q13 0 25 3q37 2 57 60q13 48 26 95z" />
    <glyph glyph-name="r" unicode="r" horiz-adv-x="344" 
d="M265 319q-10 0 -39 19.5t-41 19.5q-22 0 -26 -44q0 -8 -1 -25q-11 -45 -11 -65q0 -12 3 -21q5 -18 1 -51q-4 -29 3 -44q5 -11 31 -29q22 -16 22 -29q0 -7 -4 -14q-9 -16 -11 -18t-10 -7q-36 -20 -49 -20q-6 0 -13 1h-59q-16 0 -35.5 10.5t-25.5 21.5q-3 6 -3 12
q0 16 20 51t20 44v131q-2 14 -7 40q-12 9 -30 23t-18 36q0 30 32.5 60t69.5 38.5t52 4.5q7 -1 16 -18.5t17 -18.5q19 -3 42.5 18t37.5 21q8 0 17 -3q44 -19 44 -72q0 -21 -12 -44q-14 -28 -33 -28z" />
    <glyph glyph-name="s" unicode="s" horiz-adv-x="386" 
d="M316 172q6 -51 -8 -92q-9 -27 -32 -38q-49 -23 -66 -35q-38 1 -75 -17q-17 -8 -62 -5q-15 9 -39 30q-41 51 -41 77q0 22 23 36q4 3 25 1q47 -2 67 -23q5 -34 37 -34q19 0 35 20q5 7 5 15q0 24 -41 60q-30 27 -71 72q-25 27 -31 45q-1 2 4 25q5 27 6 37q2 51 49 88
q40 31 83 34q24 1 60.5 -17.5t58.5 -41.5q3 -14 10 -44q6 -24 -3 -48q-6 -19 -20 -22q-26 -6 -46 27q-13 27 -27 54q-10 18 -42 18q-43 0 -43 -29q0 -41 65 -98q10 -2 28 -8q21 -10 32 -17q23 -14 37 -32q10 -13 22 -38z" />
    <glyph glyph-name="t" unicode="t" horiz-adv-x="349" 
d="M294 420q3 -12 -55 -45q-6 -3 -16 -3h-13q-8 1 -13 1q-25 0 -44 -12q-8 -5 -9 -21q0 -12 -1 -25q-7 -27 -7 -24v-105q0 -29 21.5 -50.5t48.5 -21.5q18 0 32 10q6 4 16 -20q3 -6 3 -13q0 -24 -28.5 -47t-53.5 -23q-10 -8 -33 -21q-3 -1 -40 0q-63 9 -83 110v232
q1 7 -8 24.5t-9 28.5q0 14 11 28q24 28 48 55q31 36 38 53q29 24 41 24q11 0 12 -23q2 -38 3 -44q6 -23 29 -23q8 0 17 2q47 -2 55 -4q31 -9 38 -43z" />
    <glyph glyph-name="u" unicode="u" horiz-adv-x="496" 
d="M440 22q-22 -33 -68 -33q-41 0 -73 29q-7 7 -18.5 9.5t-24.5 0.5t-21 -8q-17 -12 -49 -18.5t-49 -19.5q-2 1 -10.5 5t-12.5 4q-30 -1 -49 32q-12 27 -24 53q-1 -3 -2 27q6 11 6 23q0 10 -6 31t-5 32l2 56q2 44 0 49l-18 36q-8 8 -16 17q-15 15 -12 23q8 26 42 49
q25 14 51 28q14 9 25 9q13 0 23 -12t19 -24q7 -7 13 -29q3 -12 -7 -33q-13 -25 -14 -34q-9 -83 -2 -148q3 -21 24 -64q20 -39 62 -39q38 0 61 28q9 11 11 50q1 34 -3 47t-9 27q-3 10 -2 30l3 85q0 10 -14 32.5t-14 32.5q0 16 24 23l51 16q10 3 16 0q14 -9 34 -4q17 3 22 -2
q11 -12 11 -36q0 -18 -6 -40l-2 -70q0 3 7 -27q-5 -19 -3 -56.5t-2 -54.5q-3 -13 -3 -22q0 -10 5 -24q9 -22 13 -38q0 -1 8 -16t8 -23q0 -5 -2 -9z" />
    <glyph glyph-name="v" unicode="v" horiz-adv-x="457" 
d="M442 432q6 -6 6 -14q0 -14 -25 -38q-30 -29 -34 -36t-67 -107q-47 -73 -54 -98q-3 -13 -15 -33q-14 -23 -17 -30q-18 -43 -25 -54q-16 -28 -34 -28q-9 0 -18.5 6.5t-16.5 28.5q-9 32 -11 37q-12 14 -29 49q2 18 -9 60q-13 8 -31 29q-3 29 -15 80q-1 14 -30 61t-29 67
q0 31 55 33q1 0 5.5 3t6.5 2q30 -4 59 -7q49 -12 62 -45q1 -3 -13 -31q-8 -19 -10 -32q-3 -29 5 -71q9 -47 25 -74q4 -5 24 -4q21 2 27 13q20 35 41 70q23 43 23 76q0 26 -14 49q-4 7 -4 15q0 19 17 38t37 23q14 2 29 -8q21 -14 26 -15q17 -6 27 -6h7q3 1 4 1q5 0 15 -10z
" />
    <glyph glyph-name="w" unicode="w" horiz-adv-x="690" 
d="M689 413q0 -14 -25 -38q-30 -29 -34 -36t-67 -106q-47 -74 -52.5 -98t-16.5 -66q-28 -66 -51 -66q-11 0 -22 7t-20 27q-8 17 -15 34q-10 11 -25 42q-3 13 -27 57q-7 2 -18 17q-11 -2 -23 -2q-10 -16 -25 -46q-3 -13 -15 -33q-14 -23 -17 -30q-18 -43 -25 -54
q-16 -28 -34 -28q-9 0 -18.5 6.5t-16.5 28.5q-9 32 -11 37q-5 9 -16 53q-2 8 -17 23t-21 26q-2 4 2 23q3 20 0 26q-11 23 -32 67q-1 14 -30 61t-29 67q0 31 55 33q1 0 5.5 3t6.5 2q30 -4 59 -7q49 -12 62 -45q1 -3 -13 -31q-8 -19 -10 -32q-2 -22 13 -51q5 -11 32 -54
q5 -14 9 -27q8 -25 20 -25q9 0 20 17t21 46q14 41 18 49l-24 62q-14 39 -14 59q0 22 18 25q1 1 12.5 -5t12.5 -6q18 20 38 24q14 2 29 -7q22 -14 27 -16q15 -5 20 -5h2q0 2 -1 2l-1 -1q0 -1 10.5 -12t10.5 -18q0 -9 -22 -30q-8 -18 -10 -32q-6 -62 31 -121q4 -5 21 -2
q18 2 27 12q69 74 69 117q0 26 -17 54q-5 9 -5 18q0 27 40 34q4 1 37 10q26 7 39 7q8 0 13 -2q24 -9 25 -13q3 -10 9 -16.5t6 -14.5z" />
    <glyph glyph-name="x" unicode="x" horiz-adv-x="484" 
d="M431 41q-5 -19 -22 -27q-24 -12 -66 -18h-91q-22 0 -38 22q1 17 13 27t15 19q2 6 -23 28q-5 7 -17 15q-18 4 -22 0q-19 -9 -37 -18q-21 -12 -33 -38q15 -11 27 -31q-32 -34 -79 -34q-24 0 -36 14q-16 -4 -39 0q-8 10 -8 32q0 31 14 54q16 28 43 24q52 41 107 86q1 3 1 6
q0 24 -38 66q-21 46 -38 70q-31 44 -70 53q-6 11 -6 23q0 23 19 27h61q13 0 16 3q26 24 51 24h14q11 -2 16 -2q13 0 23 -12t10 -26q0 -8 -4 -13q-12 -17 -12 -34q0 -73 30 -73q21 0 21 23q0 5 -2 12q7 12 7 28q0 8 -2 21t-2 19q0 17 12 27l27 6q6 2 18 10.5t18 8.5t16 -9.5
t19 -12.5q27 2 65 -4q9 -6 9 -16q0 -18 -29 -43q-24 -22 -42 -29q-1 -1 -48 -52q0 -8 -2 -10q-19 -18 -19 -41q0 -27 27 -63q3 -4 48 -53q5 -6 26 -12.5t28.5 -13t16.5 -27.5q10 -24 7 -36z" />
    <glyph glyph-name="y" unicode="y" horiz-adv-x="489" 
d="M437 385q-51 -34 -74 -143q-8 -8 -25 -29q-5 -15 -22 -41q3 -12 -37 -110q-5 -55 -40 -116q-47 -83 -49 -91q-2 -3 5 -15t5 -18q-1 -5 -13.5 -22t-21.5 -23q-15 -10 -43 -2q-15 -1 -44 0q-4 1 -13.5 9.5t-11.5 15.5q-3 13 3 17q84 54 96 133q6 9 21 28q4 5 1 17
q-3 13 0 18q12 24 12 38q0 13 -12 32q0 18 -20 60q-17 35 -24 43t-25 48.5t-33 55.5q-5 14 -20 36q-57 62 -57 100q0 31 45 37q19 2 37 2q83 0 104 -39q9 -16 9 -34q0 3 -10 -59q-2 -7 38 -57q5 -10 14 -39q4 -14 20 -15q60 78 60 115q0 17 -9 32q-11 23 -11 36q0 23 30 37
q19 2 57 7q3 0 13.5 5.5t17.5 5.5q11 0 19 -14q14 2 23.5 -8.5t9.5 -24.5q0 -26 -25 -28z" />
    <glyph glyph-name="z" unicode="z" horiz-adv-x="455" 
d="M357 130q14 -13 14 -31q0 -27 -31 -60q-27 -28 -55 -42q-3 -1 -12 1q-12 2 -11 2h-77q-29 0 -36 4.5t-21 5.5q2 -1 -27 -10h-28h-53q-22 19 -22 42q0 9 5 27q62 55 92 92q15 18 38 63q28 53 30 56t16 15q11 8 10 15q-3 28 -46 28h-20q-12 -1 -17 -1q-15 6 -45 13
q-9 -1 -26 -2q-13 11 -13 28q0 25 24.5 48.5t51.5 23.5q16 0 28 -10q3 -3 25 8q10 5 32 0q12 -3 25 -3q15 0 46 4t47 4q29 0 50 -10q-6 -20 -21 -57q-10 -9 -35 -38q-3 -9 -10 -26q-15 -14 -41 -46q-27 -42 -54 -83q-29 -47 -25 -63q33 -6 50 -13q11 -5 25 -5h60q4 -2 8 -2
q9 0 23.5 12t19.5 12q3 0 6 -2z" />
    <glyph glyph-name="braceleft" unicode="{" horiz-adv-x="440" 
d="M354 562q0 -3 -25 -19t-25 -35q0 -18 20.5 -39.5t20.5 -31.5q0 -5 -4 -13v2q-39 16 -50 16q-26 0 -26 -28q0 -5 1 -16.5t1 -16.5q0 -13 -7 -13t-16.5 10.5t-22.5 10.5q-33 -36 -56 -36q-18 0 -25 33t-24 33q-11 0 -35.5 -16t-29.5 -16q-7 0 -7 8q0 7 18 31.5t18 35.5
l-5 11q-18 15 -52 15q-12 0 -11 14q13 5 25.5 10.5t20.5 16.5l-4 31q0 13 -11.5 21t-11.5 19q0 12 28 12q16 0 58 -7q25 7 29 31q2 20 4 40.5t26 20.5q7 -31 37 -44q17 2 56 14q11 -6 11 -21q0 -8 -4 -23.5t-4 -23.5q0 -27 41 -27q5 0 15.5 2.5t15.5 2.5q10 0 10 -15z
M362 177q0 -2 -25.5 -18t-25.5 -36q0 -18 20.5 -39t20.5 -31q0 -6 -4 -13v1q-38 16 -49 16q-27 0 -27 -27q0 -6 1.5 -17t1.5 -16q0 -13 -8 -13q-6 0 -23 27.5t-30 27.5l-4 -1q-8 -7 -17 -41q-7 -29 -20 -29q-18 0 -25 33.5t-25 33.5q-11 0 -35 -16t-29 -16q-7 0 -7 7
q0 8 17.5 32t17.5 36l-4 11q-18 15 -53 15q-11 0 -11 14q19 7 39 15q25 10 33 21l1 6q0 12 -27 28t-27 28q0 11 29 11q15 0 58 -6q24 6 29 30q1 21 3.5 41.5t25.5 20.5q10 -41 10 -42q9 -27 22 -32q15 1 34.5 21t26.5 22q11 -6 11 -21q0 -8 -3.5 -23.5t-3.5 -23.5
q0 -27 40 -27q6 0 16.5 3t15.5 3q10 0 10 -16z" />
    <glyph glyph-name="bar" unicode="|" horiz-adv-x="147" 
d="M110 480q-7 -50 -21 -140q8 -33 16 -100q-1 -36 -8 -92q-6 -45 -4 -66q-9 -24 -16 -71q1 -24 13 -66q9 -36 7 -55q-2 -31 -39 -31q-15 0 -26 14q-17 22 -17 53q0 37 26 94q0 16 3 42q10 34 7 55l-21 88q-3 10 9 29t11 25q-5 26 -11 70q-1 10 12 36.5t10 40.5
q-21 88 -21 191q0 28 2 55q0 4 -5.5 16t-6.5 21q-1 25 10 44.5t32 19.5q5 0 9 -2q9 -30 21 -82q-2 -18 -3 -52q1 -11 7 -53q6 -36 6 -57q0 -15 -2 -27z" />
    <glyph glyph-name="braceright" unicode="}" horiz-adv-x="855" 
d="M557 593q0 -2 -25 -18.5t-25 -35.5q0 -17 20.5 -38.5t20.5 -31.5l-4 -14v2q-38 16 -49 16q-27 0 -27 -27q0 -6 1.5 -17t1.5 -16q0 -13 -8 -13q-7 0 -23.5 13.5t-29.5 13.5q-17 -43 -41 -43q-19 0 -25.5 33.5t-24.5 33.5q-12 0 -35 -16t-30 -16l-6 7q0 7 7.5 14t7.5 17
q0 8 -13 28t-13 28q0 5 -11.5 6t-10.5 15l42 16q30 14 30 26q0 13 -26.5 28t-26.5 28q0 5 39 15q36 10 47 10q25 0 29 36t30 35q18 -74 32 -74t33.5 20.5t27.5 23.5q11 -6 11 -21q0 -8 -3.5 -23.5t-3.5 -23.5q0 -27 40 -27q6 0 16 3t16 3zM820 148q1 -13 -33.5 -17
t-34.5 -23q0 -13 17.5 -36t17.5 -32l-6 -7q-7 0 -30 16t-35 16q-18 0 -24.5 -33.5t-24.5 -33.5q-10 0 -10 6q0 2 2.5 8.5t2.5 9.5q0 7 -7 13h-34q-12 0 -27 -10.5t-22 -10.5q-6 0 -7 10q-1 8 0 21q2 16 2 15q0 27 -27 27q-11 0 -49 -16v-1l-4 13q0 10 20.5 31.5t20.5 38.5
q0 19 -25 35.5t-25 18.5l10 16q5 0 15.5 -3t15.5 -3q41 0 41 27q0 8 -4 23.5t-4 23.5q0 15 11 21q45 -13 58 -13q11 0 23 17q9 14 12 27q27 0 32 -37t38 -37q9 0 42 -9t33 -14q0 -11 -14.5 -18.5t-14.5 -19.5q0 -27 13 -40q8 -9 35 -20zM339 215q0 -2 -25 -18.5t-25 -35.5
q0 -18 20.5 -39t20.5 -31l-4 -14v2q-39 16 -50 16q-26 0 -26 -27q0 -6 1 -17.5t1 -15.5q0 -13 -7 -13t-24 27t-30 27h-4q-7 -6 -16 -41q-8 -29 -21 -29q-18 0 -25 33t-24 33q-12 0 -35.5 -15.5t-29.5 -15.5l-7 7q0 9 18 32t18 35q0 20 -34.5 24t-34.5 17q21 8 43 16
q30 14 30 26q0 13 -26.5 28t-26.5 27t28 12q10 0 29.5 -3.5t28.5 -3.5q27 0 29.5 46t29.5 46q17 -74 32 -74q13 0 32.5 20.5t28.5 23.5q10 -6 10 -21q0 -8 -3.5 -23.5t-3.5 -23.5q0 -27 41 -27q5 0 15.5 2.5t15.5 2.5z" />
    <glyph glyph-name="asciitilde" unicode="~" horiz-adv-x="541" 
d="M506 702q0 -26 -27 -55.5t-47 -30.5q-1 0 -33.5 -12.5t-47.5 -11.5q-40 3 -88 18q-8 8 -15 16q-21 15 -62 16q-26 -2 -65 4q-3 1 -6 1q-10 0 -39 -23t-41 -23q-7 0 -12 4q-12 7 -12 21q0 16 17 39q14 19 28 29q9 9 19 18q16 17 20 16q27 1 85 -2q31 -19 90 -40
q33 -2 42 -4q18 -3 33 -10q6 -3 11 -3t16 4.5t20 4t44 26.5t47 27q9 0 16 -9.5t7 -19.5z" />
    <glyph glyph-name="uni00A0" unicode="&#xa0;" horiz-adv-x="196" 
 />
    <glyph glyph-name="exclamdown" unicode="&#xa1;" horiz-adv-x="250" 
d="M185 467q0 -29 -30 -51.5t-61 -22.5q-20 0 -52 31t-32 50q0 27 31 59q10 4 45 38l12 2q24 0 55.5 -41.5t31.5 -64.5zM160 -75q-7 -11 -30.5 -19.5t-39.5 -8.5q-22 0 -52 24q-9 67 -9 72q0 27 9 75t9 83q0 3 -4 23t-4 27q0 6 2 6q3 0 9 -10q8 15 8 50q0 57 -1 40
q1 29 16 29q57 0 57 -55q0 -50 -3 -61q21 -89 21 -112q0 -16 -3 -31l-9 -54q12 -28 24 -78z" />
    <glyph glyph-name="cent" unicode="&#xa2;" horiz-adv-x="428" 
d="M389 377q4 -18 -8 -41q-25 -31 -54 -31q-16 0 -35 9q-2 11 -5 22q-5 21 -21 21q-7 0 -15 -3q5 -26 1 -43q-7 -31 -19 -88q7 -20 14 -62q0 -13 -3.5 -37.5t-3.5 -35.5q0 -17 7 -27q30 0 42 10t22 20q9 5 20 5q16 0 29 -9.5t13 -21.5q0 -16 -24 -28q-26 1 -66 -37
q-10 2 -28 1q-8 -4 -27 -13q14 -35 12 -46q-1 -11 -14 -15q-32 -10 -48.5 4.5t-16.5 33.5q0 9 4 20q-19 7 -63 28q-3 3 -10 9q-47 19 -74 65q-24 42 -24 88q0 18 3 33q-1 11 3 32q10 29 21 58q19 48 41 61q10 1 28 8q15 14 73 50q2 2 22 6q-5 5 -10 18q-1 16 9.5 28.5
t30.5 12.5q5 0 9 -2l15 -33q23 -1 37 -4q26 -5 50 -19q16 -6 31 -12q26 -13 32 -35zM205 265q-12 32 -17 73l-21 -9q-29 -12 -37 -36q-4 -15 -4 -53l-7 -79q-3 -35 24 -58q4 -4 13 -22q7 -14 15 -16q3 -2 7 -2q10 0 16 14.5t3 27.5l-22 34q-4 6 8 18t12 16q-5 16 -12 44
q0 6 12.5 22.5t9.5 25.5z" />
    <glyph glyph-name="sterling" unicode="&#xa3;" horiz-adv-x="536" 
d="M482 660q2 -39 -13 -76q-18 -42 -48 -42q-39 0 -87 73q-1 2 -18 1q-57 -1 -88 -88l-14 -62q-1 -4 -4 -23q5 -1 18 -3q8 0 23.5 4.5t21.5 4.5q38 3 52 -4q43 -21 43 -46q0 -27 -51 -55q-3 -1 -33 12t-40 12q-16 -5 -54 -13l-26 -121q-6 -10 -11 -20q-10 -19 -7 -33
q0 -1 -15.5 -35.5t-12.5 -38.5q60 27 103 27q25 0 49 -10q30 -13 31 -13l74 -16q8 -6 20 -6q10 0 30 5t27 5q23 0 23 -29q0 -33 -56 -68q-50 -31 -90 -37q-20 -2 -29 9l-37 45q-9 5 -59 20q-20 5 -40 5q-25 5 -55 9l-58 -10l-44 -12q-17 5 -23 20q-1 9 -3 18q-8 22 36 45
q8 11 16 23l15 72q2 26 14 66q6 28 8 85q-9 2 -17 9q-17 9 -17 30q0 22 14 38q5 6 14 5q2 0 5 -1q25 23 36 57q15 50 19 56q7 11 18 31q7 15 20 31q6 8 25 13q23 6 29 10q19 15 64 39q18 0 55 6q64 19 106 13q7 -2 22 -11q18 -13 19 -26z" />
    <glyph glyph-name="currency" unicode="&#xa4;" horiz-adv-x="608" 
d="M534 636q14 -20 14 -45q0 -30 -21 -75l-2 -22q-2 -20 -11 -27q2 0 -13 -1q-9 -1 -12 7q-12 33 -25.5 64.5t-33.5 43.5q-6 13 -22 28q-14 3 -32 8q-22 11 -41 11q-18 0 -40 -11q-11 2 -63 -72l-22 -26q-16 -22 -17 -39q-5 -6 -11 -11q-8 -9 -8 -12l1 -30q60 -5 80 -4
q20 0 35 5.5t26.5 5t36 3t33.5 3.5q58 1 76 -5t18 -17q0 -16 -29 -34t-52 -21q-27 4 -82 6q-36 -1 -105 10l-43 -6q0 -2 -6.5 -15t-6.5 -23q0 -12 9 -25q24 3 37 4q22 0 40 -3q24 -3 30 -4q12 0 37 3t33 4q59 1 76.5 -5t17.5 -17q0 -16 -28.5 -34t-51.5 -21q-27 4 -83 6
l-33 -5q-28 -5 -49 -4q1 -3 -3 -9.5t-4 -10.5t3 -7q3 -12 8 -29q59 -97 102 -97q13 0 27 8q9 4 29 11q14 3 29 6.5t31 32.5q15 10 42 29q21 16 28 3q4 -8 4 -17q0 -16 -16 -39q-18 -26 -69 -72q-25 -22 -81 -32q-43 -9 -40 -9q-15 0 -26 7q-16 2 -42 8q-29 12 -43 23
q-10 8 -47 30q-26 16 -32 27q-7 22 -30 68q-4 15 -14 40q-6 10 -8 19q-3 1 -9 5q-38 14 -38 56q0 18 13 25q10 5 23 5q6 5 18 9v21q-3 -1 -6 -1q-5 0 -23 12q-14 6 -14 19q0 15 15 34t30 27q5 3 14 4l2 10q6 7 16 23q16 35 41 70q12 8 30 30q1 7 5 23q11 7 33 23q8 9 23 23
q14 7 38 14.5t27 9.5q12 7 19 7q3 0 8.5 -3t11.5 -1q3 1 16.5 8.5t18.5 5.5q9 4 24 4q6 -5 13 -10q11 -9 18 -9h40q10 2 20 2q45 0 68 -34z" />
    <glyph glyph-name="yen" unicode="&#xa5;" horiz-adv-x="585" 
d="M520 655q-13 -23 -55 -31q-36 -7 -42 -32l-11 -55q-6 -21 -17 -37q-1 -1 -12 -13q48 2 70.5 -6.5t22.5 -24.5q0 -19 -24.5 -38.5t-45.5 -22.5q-5 0 -29 3q-29 3 -42 4q-7 -11 -17 -34q-7 -17 -9 -39q18 3 50 7q62 1 82 -6q24 -9 24 -25q0 -18 -24.5 -38t-46.5 -23
q-29 5 -88 7h-2q-4 -41 4 -70q1 -3 -2 -17t-3 -23q0 -14 5.5 -26.5t33.5 -24.5q34 -16 40 -21q19 -17 19 -45q0 -6 -2 -11q-9 -11 -40 -4q-16 -5 -49 -12h-183q-7 0 -18.5 -2t-16.5 -2q-21 0 -38 24q-5 7 2 24q12 26 49.5 45.5t45.5 32t10 25t8 23.5q-3 14 1 70
q-13 -6 -41 -13q-3 0 -43 17q-10 4 -40 6q-26 2 -43 13q-24 9 -24 30q0 24 26 42q9 6 22 5q24 -7 83 -14q5 0 42 6q-6 30 -13 44q-6 11 -13 34q-7 0 -22.5 4t-19.5 4q-9 0 -31.5 -16t-34.5 -16q-8 0 -14 4q-20 8 -20 32q0 41 32 64q9 6 22 5q17 -4 58 -12q-9 14 -21 25
q-5 18 -20 49q-18 22 -30 35q-23 24 -36 25q-27 1 -27 29q0 24 14 48q5 8 16 9.5t21 2.5h127q28 0 52 -23q9 -9 9 -18q0 -8 -7 -19q-11 -17 -12 -20t-1 -10q0 -43 20 -54q-8 -4 -6 -10q13 -27 34 -77l1 -2h8q22 1 24.5 -1.5t12.5 -2.5q2 0 17.5 8.5t16.5 8.5q47 66 47 124
q0 14 -3 27q-25 26 -25 43q0 35 97 35q22 0 52 -2q9 -1 21 -8t11 -13q12 -1 14 -12q2 -10 -3 -18z" />
    <glyph glyph-name="brokenbar" unicode="&#xa6;" horiz-adv-x="153" 
d="M125 674q-7 -15 -15 -52q0 -3 5 -28t5 -36q1 -14 -3 -27q-5 -17 -6 -21q-1 -8 2.5 -24t3.5 -21q0 -40 -7 -52q-9 -15 -24 -15q-17 0 -35.5 15.5t-20.5 29.5q4 19 8 56q0 2 -4.5 23t-4.5 34q0 9 2 16q1 4 -6.5 17.5t-7.5 21.5q-1 1 16 26q4 6 6.5 24t13.5 28q9 15 28 15
q23 0 40 -16q5 -6 4 -14zM125 19q1 -8 -4 -14q-17 -16 -40 -16q-19 0 -28 15q-11 10 -13.5 27.5t-6.5 23.5q-17 26 -16 27q0 8 7.5 21.5t6.5 17.5q-2 7 -2 16q0 13 4.5 34t4.5 23q-4 24 -8 56q2 13 20.5 28.5t35.5 15.5q15 0 23 -13.5t8 -52.5q0 -5 -3.5 -21t-2.5 -24
q1 -5 5.5 -19.5t3.5 -28.5q0 -11 -5 -36t-5 -28q1 -13 8 -31.5t7 -20.5z" />
    <glyph glyph-name="section" unicode="&#xa7;" horiz-adv-x="634" 
d="M567 702q0 -18 -34 -50q-13 11 -30 12q1 0 -31 0q-6 5 -23 13q6 -39 6 -111q0 -68 -4.5 -203.5t-4.5 -203.5q0 -106 6 -134q2 -8 5 -8q26 0 40 17q14 0 31 -8q22 -11 22 -26q0 -18 -66 -18h-119q-79 1 -119 1q-69 0 -133 46q-19 23 -46 55q-21 25 -25 46q-1 5 -6 18
q-23 58 -23 69q0 6 2 16.5t2 16.5l-2 11q-13 26 -13 50q0 41 8 96q13 90 14 94q3 28 36 82q31 50 52 70q9 3 25 13q6 9 21 22q11 1 34 11q35 25 75 25q-8 0 32 -6h80q29 0 86 -3t85 -3q17 0 17 -10zM161 565q-6 -5 -6 -15q0 -12 7.5 -22.5t17.5 -8.5q21 2 21 27q0 15 -14 22
q-14 6 -26 -3zM430 587q-5 2 -6 42.5t-10 48.5q-44 0 -66 -6q-32 -9 -60 -39q0 -30 -1 -102q-1 -67 -1 -102q0 -16 -6.5 -48.5t-6.5 -50.5t-1.5 -51.5t-1.5 -50.5q0 -140 25 -165q6 -6 33 -15q5 -1 26 -12q17 -9 23 -9q33 0 43 110q7 69 6 235t4 215z" />
    <glyph glyph-name="dieresis" unicode="&#xa8;" horiz-adv-x="453" 
d="M362 743q19 -1 19 -28q0 -25 -16 -52q-18 -30 -45 -40q-67 11 -67 53q0 28 31 49t78 18zM219 737q22 -13 22 -36q0 -19 -17 -51q-24 -47 -25 -50q-4 -5 -7 -11q-6 -7 -12 -7q-40 0 -53 59q-3 14 12 39q14 21 27 42q10 19 39 19q8 0 14 -4z" />
    <glyph glyph-name="copyright" unicode="&#xa9;" horiz-adv-x="771" 
d="M723 388q4 -17 4 -37q0 -36 -17 -95q-26 -89 -28 -95q-10 -13 -28 -35q-10 -12 -63 -69q-95 -77 -212 -77q-90 0 -214 48q-3 15 -24 25q-33 16 -45 26q-34 29 -53 61q-47 80 -52 149v66q-8 27 -8 46q0 -1 12 70q9 14 23 39q6 26 27 74q33 50 72 76q24 17 74.5 37t78.5 37
q13 8 44 11q80 7 71 7q41 0 84 -17q20 -8 41 -30q29 -30 32 -33q29 -12 80 -42q42 -33 56 -70q15 -59 45 -172zM636 457q-6 33 -24 86q-36 59 -104 105.5t-121 46.5q-24 0 -65 -17q-32 -13 -64 -25q-7 -3 -35 -6q-21 -3 -31 -11q-50 -41 -84 -117q-2 -5 -12.5 -12.5
t-16.5 -32.5q-18 -71 -18 -135q0 -201 172 -266q85 -32 123 -35q24 -7 48 -7q87 0 173 100q76 89 76 225q0 55 -17 101zM512 477q0 -14 -10 -35l1 -9q0 -18 -14 -18q-1 0 -32 26.5t-43 30.5q-14 15 -30 15q-9 8 -20 8q-10 0 -20.5 -5.5t-20.5 -11.5h-4q-12 1 -34 -21.5
t-21 -34.5l-9 -24v-26q0 -75 25 -97q11 -23 37 -44q29 -24 51 -24t47 12t36 29q9 7 26 19l20 1q4 -5 4 -15q0 -16 -19 -42t-35 -37q-4 -3 -40 -6q-32 -3 -43 -3q-60 0 -124 40q-72 45 -72 101v72q0 2 5 28q11 18 34 51q20 10 22 28q39 24 53 31q35 18 57 22q24 -9 41 -4
q14 -9 32 -10q-33 1 34 1q25 0 44 -11q22 -14 22 -37z" />
    <glyph glyph-name="ordfeminine" unicode="&#xaa;" horiz-adv-x="337" 
d="M274 430q0 -11 -14 -25t-25 -14q-19 0 -44.5 20t-30.5 20q-13 0 -33 -18t-41 -18q-22 0 -51 26.5t-29 48.5q0 17 26 52.5t42 37.5q4 1 18 -1.5t18 -2.5q26 0 47.5 19t21.5 44q0 15 -12 15q-32 0 -69 -50h-43q-8 0 -15.5 13.5t-7.5 21.5q0 36 58 66q50 27 90 27
q38 0 55 -26q9 -2 19 -21t10 -29q0 -6 -7 -39q-6 -22 -3 -124l1 -6q19 -26 19 -37zM263 356q16 -30 16 -52t-17 -26q-19 4 -57 5q-15 -4 -30 -9q-27 -7 -41 -4q-4 1 -17.5 -7t-20.5 -10q-2 0 -28 15q-7 4 -24.5 5t-28.5 11q-17 9 -17 30q0 22 13 38q6 6 14 5q2 0 21 -5.5
t32 -5.5q22 6 63 14q14 2 27 -1q17 -4 21 -4q8 0 24 4.5t21 4.5q34 2 17 3q7 0 12 -11zM173 512q0 15 -16 15q-11 0 -24.5 -16t-13.5 -27q0 -12 21 -16q1 0 3 -1.5t3 -1.5q7 0 16 6.5t9 13.5v6q-1 4 -1 6q0 3 1.5 8t1.5 7z" />
    <glyph glyph-name="guillemotleft" unicode="&#xab;" horiz-adv-x="523" 
d="M440 355q0 -22 -49.5 -63t-70.5 -46q1 -5 -3.5 -18t-4.5 -22q0 -23 26 -48q50 -48 50 -58q-1 -15 23.5 -25.5t24.5 -17.5q0 -10 -7 -22q-10 -14 -25 -14q-13 0 -28.5 12t-78.5 72.5t-72 72.5q-19 26 -19 42q0 8 11.5 28.5t11.5 42.5q0 8 37 44q21 20 43 40
q9 11 36.5 29.5t38.5 18.5q17 0 36.5 -25.5t19.5 -42.5zM239 65q0 -11 -9 -24t-23 -13q-13 0 -29 12.5t-78.5 72.5t-71.5 73q-26 34 -26 60q0 9 4.5 31.5t4.5 41t52 78.5q22 24 63 24q21 0 35 -13q5 -4 33 -19q20 -10 20 -23q0 -21 -47 -47q-39 -22 -66 -28q2 -26 3 -52
q6 -45 37 -74q49 -47 49 -57q0 -16 24.5 -26.5t24.5 -16.5z" />
    <glyph glyph-name="logicalnot" unicode="&#xac;" 
d="M480 400q-4 -47 -14 -109q-11 -33 -45 -33q-6 0 -18 1.5t-16 1.5q0 30 1 59q4 71 4 65q0 48 -31 48q-7 0 -18 -3t-13 -3t-37.5 -6t-56.5 -6q-12 0 -21 1q-6 1 -26 -6q-23 -9 -35 -10q-3 0 -43 16q-10 4 -40 6q-26 2 -43 13q-24 9 -24 30q0 24 26 42q9 6 22 5
q24 -6 83 -13q5 0 44.5 5.5t56.5 6.5q23 1 43 -2q26 -5 33 -5q13 -1 38.5 3t33.5 4q62 2 83 -6t21 -48q0 -24 -8 -57z" />
    <glyph glyph-name="uni00AD" unicode="&#xad;" horiz-adv-x="416" 
d="M317 241q0 -17 -14 -35t-27 -21q-18 3 -56 4l-30 -8q-27 -7 -42 -4q-4 1 -17 -7.5t-21 -9.5q-1 -1 -28 14q-6 4 -24 5t-29 11q-17 9 -17 31q0 21 14 37q5 6 14 6q2 0 20.5 -6t31.5 -5q22 6 64 14q14 1 27 -2q17 -3 21 -4q8 0 23.5 4.5t21.5 4.5q39 3 53.5 -4t14.5 -25z
" />
    <glyph glyph-name="registered" unicode="&#xae;" horiz-adv-x="771" 
d="M723 388q4 -17 4 -37q0 -36 -17 -95q-26 -89 -28 -95q-10 -13 -28 -35q-10 -12 -63 -69q-95 -77 -212 -77q-90 0 -214 48q-3 15 -24 25q-33 16 -45 26q-34 29 -53 61q-47 80 -52 149v66q-8 27 -8 46q0 -1 12 70q9 14 23 39q6 26 27 74q33 50 72 76q24 17 74.5 37t78.5 37
q13 8 44 11q80 7 71 7q41 0 84 -17q20 -8 41 -30q29 -30 32 -33q29 -12 80 -42q42 -33 56 -70q15 -59 45 -172zM636 457q-6 33 -24 86q-36 59 -104 105.5t-121 46.5q-24 0 -65 -17q-32 -13 -64 -25q-7 -3 -35 -6q-21 -3 -31 -11q-50 -41 -84 -117q-2 -5 -12.5 -12.5
t-16.5 -32.5q-18 -71 -18 -135q0 -201 172 -266q85 -32 123 -35q24 -7 48 -7q87 0 173 100q76 89 76 225q0 55 -17 101zM585 232q0 -29 -45 -37q-12 -9 -20 -13h-14q-7 8 -13 10q-4 1 -12 0q-11 -1 -15 -1q-36 0 -76 66q-48 77 -79 94l-13 2q-13 0 -13 -44v-48q0 -6 7.5 -17
t13.5 -13q11 -24 11 -26q0 -23 -116 -23q-31 14 -31 32q0 5 10 16q21 9 26 26q3 8 4 37q8 14 8 28v154q0 12 -23 22.5t-23 22.5l6 15q97 19 196 19q44 0 82 -30q42 -32 42 -75q0 -17 -14 -30q-5 -13 -34 -29q-22 -12 -44 -23q-2 -4 -2 -7q0 -5 48 -51t57 -49.5t30 -3.5
q14 0 28 -5q18 -7 18 -19zM420 457q0 26 -25 44t-52 18q-18 0 -38 -7q-17 -62 -17 -71v-43l7 -15q9 -3 22 -3q36 0 67 20q36 23 36 57z" />
    <glyph glyph-name="macron" unicode="&#xaf;" horiz-adv-x="399" 
d="M357 675q0 -34 -21 -67h-23q-17 1 -20 8q-56 -9 -116 -9q-36 0 -45 6q-24 -24 -37 -24q-23 0 -23 70q0 38 13 51q10 -10 23 -10q18 0 52.5 9t52.5 9q8 0 22.5 -6.5t21.5 -6.5t22 9.5t22 7.5l42 -12q3 -10 10 -16q4 -3 4 -19z" />
    <glyph glyph-name="degree" unicode="&#xb0;" horiz-adv-x="391" 
d="M333 499q0 -15 4.5 -41t4.5 -36q0 -28 -24 -42q-1 1 -4 1q-6 0 -27 -12q-24 -14 -31 -17q-33 -8 -97 -26q-25 9 -31 7q-16 -7 -34 -7q-30 0 -55 17q-12 9 -21 59q-2 15 -11 33t-9 25q0 5 3 11.5t24 28t32 22.5q7 7 20 19q30 22 38 33q3 4 17 8q22 4 63 14q8 7 30 16
q16 3 43 -17q22 -16 34 -31q1 -10 7 -28q11 -11 24 -37zM212 403q11 10 11 40q0 35 -11 51q-22 29 -62 29q-14 0 -23 -6q-19 -11 -19 -42q0 -48 41 -65q11 -6 28 -14q16 -6 35 7z" />
    <glyph glyph-name="plusminus" unicode="&#xb1;" 
d="M433 312q0 -13 -7 -32q-8 -23 -19 -23l-11 4q-14 -18 -31 -18q-6 0 -17 4t-16 4q-57 0 -69 -11.5t-12 -62.5q0 -44 -30 -50l-12 -9q-10 1 -20 17q-29 10 -29 32q0 4 1 16t0 20v8q-18 26 -42 30q-31 2 -63 4q-5 4 -19 6q-8 1 -8 0q0 -4 7 -4v0q0 1 -17 18.5t-17 26.5
q0 34 40 43q37 6 75 13q42 12 47 51q6 63 2 76l2 10q24 32 49 32q28 0 28 -25q0 -6 -1.5 -17.5t-1.5 -16.5q0 -31 9 -58q13 -38 37 -38q9 0 24 7q11 -6 27 -8q12 -1 30 0q27 1 29 1l5 2q13 0 21.5 -18.5t8.5 -33.5zM397 57q0 -17 -17.5 -35.5t-34.5 -21.5q-23 3 -71 4
q-19 -4 -39 -8q-33 -8 -52 -5q-5 1 -22 -7t-26 -10q-3 0 -36 15q-8 4 -30.5 5t-36.5 11q-22 9 -22 31t18 38q6 6 17 5q3 0 28 -6q22 -5 39 -5q28 6 80 15q18 1 35 -2q21 -4 27 -4q10 0 30 4.5t26 4.5q43 3 58 -1q29 -7 29 -28z" />
    <glyph glyph-name="uni00B2" unicode="&#xb2;" horiz-adv-x="485" 
d="M357 501q0 -10 -26 -56t-36 -54q-8 -1 -17 -1q-28 0 -80.5 16t-81.5 16q-5 0 -18 -7t-17 -11h-44q-15 0 -30 7q1 27 7.5 39t29.5 21q16 6 55 42.5t41 49t22.5 21t20.5 22.5q0 11 -8 18q-2 0 -22 -5q-16 -5 -18 -3v-3q0 -9 -9 -9q-4 0 -43 8l1 7q0 5 -5 14.5t-5 15.5
q0 7 8 10q23 48 124 48q80 0 80 -86q0 -30 -22 -58t-52 -31q-8 -13 -53 -26q1 -20 21 -20q11 0 32.5 9t24.5 9q7 0 22 -3t21 -3q9 10 18 20.5t22 10.5q7 0 17.5 -5.5t17.5 -6.5q2 -11 2 -16z" />
    <glyph glyph-name="uni00B3" unicode="&#xb3;" horiz-adv-x="436" 
d="M323 434q0 -35 -39 -56q-20 -3 -69 -24q-45 -19 -60 -19q-17 -16 -81 -16q-20 0 -36 3q-10 7 -10 13q0 4 11.5 13.5t12.5 9.5q20 2 68 28q53 30 55 51q3 30 3 23q0 17 -12 20q-4 3 -9 3q-6 0 -20 -4.5t-22 -4.5q-33 0 -33 28q0 19 43.5 36.5t43.5 31.5t-24 32q-7 1 -15 1
q-21 0 -52 -8q-1 0 -40 4q-27 2 -27 11q0 8 17 17.5t20 15.5q9 8 23.5 16.5t44.5 24.5q12 2 45 12q29 10 43 10q15 0 46.5 -9.5t40.5 -17.5q1 -5 6.5 -12.5t11 -13.5t5.5 -13v-35q0 -3 -7 -9t-8 -9q-4 0 -34.5 -19t-30.5 -22q0 -2 27 -16q32 -17 32.5 -17.5t19.5 -37.5
q10 -21 10 -41z" />
    <glyph glyph-name="acute" unicode="&#xb4;" horiz-adv-x="447" 
d="M332 815q2 -9 2 -17q0 -22 -19 -47q-24 -31 -28 -42q-14 -11 -26 -36q-15 -34 -34 -59q-7 -9 -24 -9q-30 0 -34 17t-2 25q3 15 31 91t35 91q16 29 41 29q19 0 37 -15t21 -28z" />
    <glyph glyph-name="mu" unicode="&#xb5;" horiz-adv-x="960" 
d="M856 30q0 -8 -19.5 -28.5t-29.5 -25.5h-53q-18 15 -52 44q-4 3 -32 52q-20 33 -47 31l-4 -1q-24 -21 -43 -50q-16 -24 -29 -32q-21 -14 -72 -24q-6 -1 -18 -10.5t-19 -9.5q-9 0 -20 9q-16 14 -18 16q-7 4 -43 16q-29 9 -41 22q-8 9 -20 52t-19 48l-14 -2q-35 -33 -55 -66
q-11 -18 -28.5 -86.5t-33.5 -97.5q-26 -47 -67 -47q-29 0 -52 24q-3 4 -2 13l3 14q0 1 -11.5 33.5t-11.5 57.5q0 67 112 175q9 13 29 37q20 12 50 45q2 12 8 36q2 7 17.5 15.5t18.5 11.5q9 9 16 27t12 23t20 4.5t21 5.5q34 36 38 39q17 15 51 25q19 14 28 16q1 0 32 2l10 1
q15 10 28 10q17 0 20 -48q0 1 0 -53l1 -2q0 -8 -12.5 -15.5t-20.5 -8.5q-45 -3 -76.5 -40.5t-31.5 -82.5q0 -22 5 -33q10 -5 29 -29q16 -20 34 -20q72 0 119 34q16 19 54 51q5 3 26 10q15 5 23.5 16.5t13.5 65.5q7 10 7.5 29.5t3.5 26.5t20 27t17 29q0 3 -1 6q25 32 44 32
q25 0 45.5 -32t20.5 -58q0 -30 -32.5 -63.5t-32.5 -54.5q0 -12 8 -25q-15 -24 -15 -35q0 -32 45.5 -88.5t45.5 -63.5z" />
    <glyph glyph-name="mu" unicode="&#x3bc;" horiz-adv-x="960" 
d="M856 30q0 -8 -19.5 -28.5t-29.5 -25.5h-53q-18 15 -52 44q-4 3 -32 52q-20 33 -47 31l-4 -1q-24 -21 -43 -50q-16 -24 -29 -32q-21 -14 -72 -24q-6 -1 -18 -10.5t-19 -9.5q-9 0 -20 9q-16 14 -18 16q-7 4 -43 16q-29 9 -41 22q-8 9 -20 52t-19 48l-14 -2q-35 -33 -55 -66
q-11 -18 -28.5 -86.5t-33.5 -97.5q-26 -47 -67 -47q-29 0 -52 24q-3 4 -2 13l3 14q0 1 -11.5 33.5t-11.5 57.5q0 67 112 175q9 13 29 37q20 12 50 45q2 12 8 36q2 7 17.5 15.5t18.5 11.5q9 9 16 27t12 23t20 4.5t21 5.5q34 36 38 39q17 15 51 25q19 14 28 16q1 0 32 2l10 1
q15 10 28 10q17 0 20 -48q0 1 0 -53l1 -2q0 -8 -12.5 -15.5t-20.5 -8.5q-45 -3 -76.5 -40.5t-31.5 -82.5q0 -22 5 -33q10 -5 29 -29q16 -20 34 -20q72 0 119 34q16 19 54 51q5 3 26 10q15 5 23.5 16.5t13.5 65.5q7 10 7.5 29.5t3.5 26.5t20 27t17 29q0 3 -1 6q25 32 44 32
q25 0 45.5 -32t20.5 -58q0 -30 -32.5 -63.5t-32.5 -54.5q0 -12 8 -25q-15 -24 -15 -35q0 -32 45.5 -88.5t45.5 -63.5z" />
    <glyph glyph-name="paragraph" unicode="&#xb6;" horiz-adv-x="667" 
d="M607 707q0 -35 -3 -43q-8 -25 -39 -25q-9 0 -20 2l-19 26q-11 14 -23 14q-3 0 -11.5 -2t-14.5 -2q-27 0 -28 -9q-5 -29 -10 -38l2 -55q1 -36 -10.5 -103t-11.5 -97q0 -12 11.5 -33.5t11.5 -34.5q0 -11 -5.5 -34.5t-5.5 -35.5q0 -9 10.5 -24.5t10.5 -25.5q0 -14 -11 -45.5
t-11 -45.5q0 -35 18 -98t18 -94q0 -24 -10 -42q-12 -23 -34 -23l-23 5q-16 21 -16 33q0 19 1 55v55q0 16 2.5 45t2.5 44q0 23 -6.5 70.5t-6.5 71.5q0 17 8 50.5t8 49.5q0 27 -11.5 83t-11.5 84q0 27 5.5 65t5.5 65q0 39 3 53l-24 20q-2 1 -4 1q-7 0 -27.5 -14.5t-25.5 -15.5
q13 -60 13 -182q0 -28 -11 -84t-11 -83q0 -16 7.5 -49.5t7.5 -50.5q0 -27 -5.5 -79.5t-5.5 -78.5q0 -10 -8.5 -34t-8.5 -37q0 -19 10.5 -56t10.5 -56q0 -12 -15 -33q-11 -5 -24 -5q-21 0 -21 36q0 8 1 23t1 20q0 31 5.5 87t5.5 90q0 15 -1 35.5t-1 35.5q0 9 1 35.5t1 35.5
l-5 32l-8 -1q-18 0 -25 14l-34 8q-13 19 -38 11q2 15 -12 19q-4 1 -24 1q-5 0 -9 6q-13 21 -35.5 27.5t-30.5 16.5q-26 32 -31 82q-5 55 -13 69l38 112q11 22 76 91h11q16 -1 40.5 9.5t36.5 10.5q365 3 393 -5q23 -7 23 -25z" />
    <glyph glyph-name="periodcentered" unicode="&#xb7;" horiz-adv-x="346" 
d="M241 256q0 -2 -19 -33q-35 -56 -43 -67q-14 -20 -29 -29q-6 -8 -12 -8q-11 0 -32 27q-25 32 -38 40h-14q-13 0 -17 7q-11 20 -11 50q0 21 9 30t27 28q14 20 18 24q13 15 23 17q13 -3 37 -3q22 4 61.5 -30t39.5 -53z" />
    <glyph glyph-name="cedilla" unicode="&#xb8;" horiz-adv-x="444" 
d="M369 -223l-19 -10q-4 -2 -18 -13.5t-17 -9.5h-144q-8 -2 -24 -5q-14 9 -37 21q-10 3 -24.5 11t-14.5 23q0 22 19 38q20 0 60 3q28 3 26 3q32 -8 62 -8q34 0 45 13q5 5 5 9q0 8 -50 20q-5 1 -10.5 11.5t-6.5 11.5q-11 12 -55 54q-6 17 -15 38q-4 5 -4 14q0 24 19 43
q6 5 16 5q19 0 52 -16q3 -2 3 -7q0 -6 -7 -23t-5 -19q7 -7 17 -19q7 -1 17 -12.5t15 -13.5q75 -25 83 -63q-1 -11 9 -36q10 -28 10 -41q0 -12 -7 -22z" />
    <glyph glyph-name="uni00B9" unicode="&#xb9;" horiz-adv-x="291" 
d="M219 691q0 -2 -8.5 -9t-9.5 -12q-13 -6 -25 -13.5t-11 -17.5q-3 -7 -4 -16v-16q1 -12 1 -17t3.5 -14.5t3.5 -15.5q0 -2 -1 -14.5t-1 -20.5q0 -32 20 -27q1 -2 11 -7t10 -8q0 -8 -12 -32q-18 -7 -35 -7q-19 0 -58 3t-59 3q-23 0 -23 16q0 6 23.5 12.5t23.5 32.5q0 7 2 24
t2 24v28l-4 20q-6 8 -5 12l2 13q0 25 -22 42t-22 24q0 5 7 8h36h40h30l14 2q10 8 21 8q8 0 29 -10t21 -15z" />
    <glyph glyph-name="ordmasculine" unicode="&#xba;" horiz-adv-x="337" 
d="M288 570q0 -20 -5 -41q-10 -9 -40 -57q-25 -40 -49 -51q-15 2 -53 -10q-14 5 -22 6q-12 -6 -19 -6q-5 0 -13.5 4.5t-13.5 4.5q-80 75 -80 123v77q0 2 16.5 30.5t19.5 30.5q42 37 82 37h65q6 -6 19.5 -11t17.5 -8q42 -30 56 -53q19 -29 19 -76zM307 314q-7 -27 -19 -27
q-8 0 -24.5 2.5t-24.5 2.5q-12 0 -38 -6t-41 -6q-4 0 -17 -8.5t-19 -8.5q-2 0 -28 14q-28 5 -57 9q-39 7 -39 35q0 14 7.5 28.5t20.5 14.5q8 0 38.5 -4.5t39.5 -4.5q12 0 36 7.5t37 7.5q7 0 20.5 -3t20.5 -3q10 0 30 6t30 6q9 0 19 -27q8 -22 8 -35zM201 536q0 24 -8 34
q4 7 4 16q0 26 -27.5 56.5t-51.5 30.5q-7 0 -23.5 -10t-17.5 -16q-2 -2 -2 -5q0 -6 6.5 -22t6.5 -21q0 7 9 -33q-1 1 -1 -27q0 -4 6.5 -7.5t7.5 -4.5q2 -6 7 -15q2 -2 27 -20t27 -18q30 0 30 62z" />
    <glyph glyph-name="guillemotright" unicode="&#xbb;" horiz-adv-x="550" 
d="M518.5 277.5q4.5 -22.5 4.5 -31.5q0 -26 -26 -60q-9 -13 -72 -73t-78.5 -72.5t-28.5 -12.5q-15 0 -23.5 13t-8.5 24q0 6 24.5 16.5t24.5 26.5q-1 10 49 57q30 29 36 74l4 52q-27 6 -66 28q-47 26 -47 47q0 16 35 40.5t54 24.5q10 0 31.5 -12.5t29.5 -21.5
q53 -60 53 -78.5t4.5 -41zM299 178q-9 -12 -71.5 -72.5t-78.5 -72.5t-29 -12q-14 0 -23 13t-9 23q0 7 24.5 17.5t24.5 25.5q0 10 49 58q27 25 27 48q0 9 -4.5 22t-3.5 18q-22 5 -69 45q-52 42 -52 64q0 17 20 42.5t37 25.5q10 0 38 -18.5t37 -29.5q21 -20 43 -40
q37 -36 37 -44q0 -22 11 -42.5t11 -28.5q0 -16 -19 -42z" />
    <glyph glyph-name="onequarter" unicode="&#xbc;" horiz-adv-x="393" 
d="M284 691q0 -2 -8.5 -9t-9.5 -12q-12 -6 -24 -13.5t-11 -17.5q-4 -7 -5 -16q0 -6 1 -17t1 -16t3.5 -14.5t3.5 -15.5q0 -2 -1.5 -14.5t-1.5 -20.5q0 -32 20 -27q1 -2 11.5 -7t10.5 -8q0 -8 -13 -32q-18 -7 -34 -7q-20 0 -59 3t-58 3q-24 0 -24 16q0 6 24 12.5t24 32.5
q0 7 1.5 24t1.5 24v28l-3 20q-6 8 -5 12l2 13q0 25 -22 42t-22 24q0 5 6 8h36h40h30l14 2q10 8 21 8q9 0 29.5 -10t20.5 -15zM347 382q0 -17 -14 -35.5t-27 -21.5q-38 4 -96 6l-30 -8q-27 -7 -41 -4q-4 0 -17.5 -8t-20.5 -9q-2 -1 -28 14q-7 4 -24.5 5t-28.5 11
q-17 9 -17 31q0 21 13 37q6 6 14 6q2 0 21 -6t32 -6q22 7 63 15q14 1 27 -2q17 -3 21 -4q8 0 24 4.5t21 4.5q42 3 75 -1.5t33 -28.5zM342 86q0 -14 -6 -22q-4 0 -14 -18t-13 -18q-6 0 -19.5 9t-22.5 9q-14 0 -16 -16q-2 -21 -10 -29q-1 -6 -6.5 -18t-5.5 -19q-5 -7 -5 -17
v-8q1 -6 1 -9q0 -20 -41 -20q-23 0 -28 30q-2 10 -2 47q0 59 -21 59q-3 0 -6 -2q-12 4 -34 2q-32 -3 -35 -3h-55q-20 13 -20 20q0 22 37 68q31 41 55 59q19 8 60 59q34 44 68 44q38 0 38 -11t5.5 -24t5.5 -23q0 -12 -8.5 -32.5t-8.5 -30.5q0 -6 2 -12l16 -35q7 9 18 9
q-3 0 61 -7q1 -6 5.5 -20t4.5 -21zM141 123q13 21 13 30q0 11 -18 12q-33 1 -33 -22q0 -5 2 -13l1 -1q17 -4 35 -6z" />
    <glyph glyph-name="onehalf" unicode="&#xbd;" horiz-adv-x="368" 
d="M244 696q0 -1 -8 -8.5t-9 -11.5q-13 -7 -25 -14t-11 -18q-3 -7 -4 -16q-1 -6 0 -16q1 -12 1 -15q0 -6 3.5 -15.5t3.5 -16.5q0 -2 -1 -14.5t-1 -20.5q0 -32 19 -27q2 -1 12 -6.5t10 -7.5q0 -9 -13 -32q-18 -8 -34 -8q-20 0 -59 3.5t-58 3.5q-24 0 -24 16q0 5 24 12t24 33
q0 7 1.5 23.5t1.5 24.5v27l-3 21q-6 8 -5 12q2 12 2 13q0 25 -22 42t-22 23q0 5 6 8h37h40h30l14 2q10 8 21 8q8 0 28.5 -10t20.5 -15zM324 364q0 -17 -14 -35.5t-27 -21.5q-38 4 -96 7q-15 -5 -30 -9q-27 -7 -41 -4q-4 1 -17.5 -7.5t-20.5 -9.5q-2 0 -28 15q-7 3 -24.5 4.5
t-28.5 11.5q-17 8 -17 30t13 38q6 6 14 5q2 0 21 -5.5t32 -5.5q22 6 63 14q14 2 27 -1q17 -4 21 -4q8 -1 24 3.5t21 5.5q42 3 75 -1.5t33 -29.5zM319 54q0 -10 -26 -56.5t-35 -54.5q-8 -1 -17 -1q-28 0 -80.5 16t-82.5 16q-4 0 -17 -6.5t-17 -10.5h-45q-14 0 -29 6
q1 27 7.5 39t28.5 21q16 7 55 43.5t41 48.5t23 21t21 23q0 10 -9 18q-2 0 -20 -5t-20 -3l1 -3q0 -10 -9 -10q-5 0 -44 9l1 6q0 6 -5 15.5t-5 14.5q0 7 9 11q23 47 124 47q79 0 79 -86q0 -30 -22 -57.5t-51 -31.5q-9 -13 -53 -25q1 -21 20 -21q12 0 33.5 9.5t23.5 9.5
q8 0 22.5 -3t21.5 -3q8 10 17.5 20t22.5 10q6 0 17 -5.5t17 -5.5q2 -12 2 -16z" />
    <glyph glyph-name="threequarters" unicode="&#xbe;" horiz-adv-x="436" 
d="M370 396q-1 0 -2 1q16 -8 16 -25t-14 -35.5t-27 -21.5q-58 4 -135 7q-15 -5 -31 -9q-26 -7 -41 -4q-4 1 -17 -7.5t-21 -9.5q-2 0 -28 15q-6 3 -24 4t-29 12q-17 8 -17 30t14 37q5 7 14 6q19 12 53 21q21 1 69 27q53 30 55 51q3 30 3 23q0 17 -12 21q-4 2 -10 2
t-19.5 -4.5t-22.5 -4.5q-32 0 -32 29q0 18 43.5 35.5t43.5 31.5t-24 32q-7 1 -15 1q-21 0 -52 -8q-1 0 -40 4q-27 2 -27 11q0 8 15 17q19 10 22 16q9 8 23.5 17t44.5 24q12 2 45 12q29 10 43 10q15 0 46.5 -9.5t40.5 -17.5q1 -5 6.5 -12.5t11 -13.5t5.5 -13v-35
q-6 -6 -15 -18q-4 0 -34.5 -19t-30.5 -22q0 -2 27 -16q32 -17 32.5 -17.5t19.5 -37.5q10 -21 10 -41q0 -15 -11 -22q-16 -8 -31 -15q-21 -3 -40 -15q-30 -19 -39 -23q-11 -12 -11 -18q0 -5 9 -5q8 0 26 4t20 5q18 1 33 1q41 0 61 -8zM368 86q0 -14 -6 -22q-4 0 -13.5 -18
t-13.5 -18q-6 0 -19.5 9t-22.5 9q-14 0 -15 -16q-3 -21 -11 -29q-1 -6 -6.5 -18t-4.5 -19q-6 -7 -6 -17v-8q1 -6 1 -9q0 -20 -41 -20q-23 0 -28 30q-2 10 -2 47q0 59 -21 59q-3 0 -6 -2q-11 4 -34 2q-32 -3 -35 -3h-55q-20 13 -20 20q0 22 37 68q31 41 55 59q19 8 60 59
q34 44 68 44q38 0 38 -11t5.5 -24t5.5 -23q0 -12 -8.5 -32.5t-8.5 -30.5q0 -6 2 -12l16 -35q8 9 18 9q-3 0 61 -7q1 -6 5.5 -20t4.5 -21zM167 123q13 21 13 30q0 11 -18 12q-33 1 -33 -22q0 -5 3 -13v-1q17 -4 35 -6z" />
    <glyph glyph-name="questiondown" unicode="&#xbf;" horiz-adv-x="452" 
d="M399 450q0 -16 -37.5 -49t-55.5 -33q-31 0 -65 21q-37 24 -37 51q0 22 37 68t58 46l10 -2q13 -13 26 -25q16 -15 32 -20q32 -32 32 -57zM380 290q0 -56 -13 -92q-5 -15 -26.5 -39.5t-35.5 -29.5q-41 -14 -78 -14q-7 0 -17 1h-12q-19 0 -25.5 -17.5t-16.5 -94.5
q19 -23 19 -35q0 -16 -30 -16q-15 0 -43.5 4.5t-33.5 4.5q-58 0 -58 34q0 50 1 51q3 21 22 26q14 55 88 115q31 35 50 35q12 0 30.5 -19.5t34.5 -19.5q31 0 84 57q2 2 2 4q0 5 -12 18.5t-12 19.5q0 41 39 41q16 0 29.5 -9.5t13.5 -24.5z" />
    <glyph glyph-name="Agrave" unicode="&#xc0;" horiz-adv-x="733" 
d="M449 843q-1 -34 -8 -74q-3 -4 -11 -4q-13 0 -28 10.5t-16 21.5q-2 35 -18 54q-22 26 -25 34q2 17 -19 31.5t-21 21.5q0 8 10 18q15 16 64 16q34 0 44.5 -10t20 -46.5t9.5 -59.5q0 -9 -2 -13zM622 10q-45 -17 -66 -12h-98q-11 0 -31 17t-22 27q-3 11 8 25q18 24 23 34
q2 4 -14 63q-1 13 -6 39q-10 12 -20 35q0 18 -13 32t-29 13q-2 0 -33 4q-34 5 -55 5q-25 0 -35 -7q-33 -24 -54 -82q-17 -48 -19 -94q8 -9 23 -17q10 -12 12 -25q3 -14 -6 -40q-10 -29 -23 -29h-132q-8 -5 -18 -5q-22 0 -43.5 20t-21.5 42q0 26 32 40q55 24 72 75
q2 20 10 58q4 10 20 31q14 18 18 33q9 13 22 43q9 30 25 65q5 12 7.5 43t6.5 41q18 24 50 72q0 9 4 29q20 41 20 51q0 7 -2 13.5t-9 17.5q-17 14 -17 29t18.5 26t39.5 11q11 0 31 -9q14 -6 31 2q13 7 25 7q33 0 55 -47q11 -10 28 -39q0 -22 11 -61q22 -35 27 -47
q1 -2 19 -61q7 -25 8 -63q1 -26 21 -57q1 -9 3 -26q1 -23 11 -64q13 -12 31 -37q4 -10 3.5 -31t2.5 -27q15 -20 44 -67q3 -5 21 -12q24 -11 29 -14q19 -12 19 -34q0 -13 -26 -23q-19 -7 -38 -13zM359 376q5 14 5 21q0 2 -13 32q-3 40 -6 81q-9 48 -53 46q-14 -1 -20.5 -21.5
t-4.5 -35.5q-12 -20 -13 -39q-3 -41 -9 -75q-1 -21 24 -25q20 -2 40 -3q11 0 29 6t21 13z" />
    <glyph glyph-name="Aacute" unicode="&#xc1;" horiz-adv-x="733" 
d="M346 897q0 -12 -13 -21t-19 -23q-15 -12 -26 -37q-15 -34 -34 -59q-7 -9 -25 -9q-29 0 -33 17t-2 25q3 16 22.5 72t26.5 70q16 29 41 29q19 0 37 -15t21.5 -28t3.5 -21zM622 10q-45 -17 -66 -12h-98q-11 0 -31 17t-22 27q-3 11 8 25q18 24 23 34q2 4 -14 63q-1 13 -6 39
q-10 12 -20 35q0 18 -13 32t-29 13q-2 0 -33 4q-34 5 -55 5q-25 0 -35 -7q-33 -24 -54 -82q-17 -48 -19 -94q8 -9 23 -17q10 -12 12 -25q3 -14 -6 -40q-10 -29 -23 -29h-132q-8 -5 -18 -5q-22 0 -43.5 20t-21.5 42q0 26 32 40q55 24 72 75q2 20 10 58q4 10 20 31
q14 18 18 33q9 13 22 43q9 30 25 65q5 12 7.5 43t6.5 41q18 24 50 72q0 9 4 29q20 41 20 51q0 7 -2 13.5t-9 17.5q-17 14 -17 29t18.5 26t39.5 11q11 0 31 -9q14 -6 31 2q13 7 25 7q33 0 55 -47q11 -10 28 -39q0 -22 11 -61q22 -35 27 -47q1 -2 19 -61q7 -25 8 -63
q1 -26 21 -57q1 -9 3 -26q1 -23 11 -64q13 -12 31 -37q4 -10 3.5 -31t2.5 -27q15 -20 44 -67q3 -5 21 -12q24 -11 29 -14q19 -12 19 -34q0 -13 -26 -23q-19 -7 -38 -13zM359 376q5 14 5 21q0 2 -13 32q-3 40 -6 81q-9 48 -53 46q-14 -1 -20.5 -21.5t-4.5 -35.5
q-12 -20 -13 -39q-3 -41 -9 -75q-1 -21 24 -25q20 -2 40 -3q11 0 29 6t21 13z" />
    <glyph glyph-name="Acircumflex" unicode="&#xc2;" horiz-adv-x="733" 
d="M403 769l-16 29q-10 4 -37 31q-23 22 -38 22q-10 0 -48 -46q-25 -29 -49 -59q-23 17 -23 34q0 31 53 93t71 62q14 0 44.5 -28.5t39.5 -51.5q26 -52 26 -71q0 -15 -23 -15zM622 10q-45 -17 -66 -12h-98q-11 0 -31 17t-22 27q-3 11 8 25q18 24 23 34q2 4 -14 63
q-1 13 -6 39q-10 12 -20 35q0 18 -13 32t-29 13q-2 0 -33 4q-34 5 -55 5q-25 0 -35 -7q-33 -24 -54 -82q-17 -48 -19 -94q8 -9 23 -17q10 -12 12 -25q3 -14 -6 -40q-10 -29 -23 -29h-132q-8 -5 -18 -5q-22 0 -43.5 20t-21.5 42q0 26 32 40q55 24 72 75q2 20 10 58
q4 10 20 31q14 18 18 33q9 13 22 43q9 30 25 65q5 12 7.5 43t6.5 41q18 24 50 72q0 9 4 29q20 41 20 51q0 7 -2 13.5t-9 17.5q-17 14 -17 29t18.5 26t39.5 11q11 0 31 -9q14 -6 31 2q13 7 25 7q33 0 55 -47q11 -10 28 -39q0 -22 11 -61q22 -35 27 -47q1 -2 19 -61
q7 -25 8 -63q1 -26 21 -57q1 -9 3 -26q1 -23 11 -64q13 -12 31 -37q4 -10 3.5 -31t2.5 -27q15 -20 44 -67q3 -5 21 -12q24 -11 29 -14q19 -12 19 -34q0 -13 -26 -23q-19 -7 -38 -13zM359 376q5 14 5 21q0 2 -13 32q-3 40 -6 81q-9 48 -53 46q-14 -1 -20.5 -21.5t-4.5 -35.5
q-12 -20 -13 -39q-3 -41 -9 -75q-1 -21 24 -25q20 -2 40 -3q11 0 29 6t21 13z" />
    <glyph glyph-name="Atilde" unicode="&#xc3;" horiz-adv-x="733" 
d="M492 917q-2 -31 -28 -67.5t-53 -55.5q-16 -1 -50 -5q-55 -12 -53 -12q-13 0 -24 6t-27 -7q-47 -40 -58 -40q-5 0 -7 5q-8 13 -8 30q0 39 38 81q34 39 68 46q5 1 29 -2h77q11 6 39 27q19 14 29 14q6 0 11 -3q18 -9 17 -17zM622 10q-45 -17 -66 -12h-98q-11 0 -31 17
t-22 27q-3 11 8 25q18 24 23 34q2 4 -14 63q-1 13 -6 39q-10 12 -20 35q0 18 -13 32t-29 13q-2 0 -33 4q-34 5 -55 5q-25 0 -35 -7q-33 -24 -54 -82q-17 -48 -19 -94q8 -9 23 -17q10 -12 12 -25q3 -14 -6 -40q-10 -29 -23 -29h-132q-8 -5 -18 -5q-22 0 -43.5 20t-21.5 42
q0 26 32 40q55 24 72 75q2 20 10 58q4 10 20 31q14 18 18 33q9 13 22 43q9 30 25 65q5 12 7.5 43t6.5 41q18 24 50 72q0 9 4 29q20 41 20 51q0 7 -2 13.5t-9 17.5q-17 14 -17 29t18.5 26t39.5 11q11 0 31 -9q14 -6 31 2q13 7 25 7q33 0 55 -47q11 -10 28 -39q0 -22 11 -61
q22 -35 27 -47q1 -2 19 -61q7 -25 8 -63q1 -26 21 -57q1 -9 3 -26q1 -23 11 -64q13 -12 31 -37q4 -10 3.5 -31t2.5 -27q15 -20 44 -67q3 -5 21 -12q24 -11 29 -14q19 -12 19 -34q0 -13 -26 -23q-19 -7 -38 -13zM359 376q5 14 5 21q0 2 -13 32q-3 40 -6 81q-9 48 -53 46
q-14 -1 -20.5 -21.5t-4.5 -35.5q-12 -20 -13 -39q-3 -41 -9 -75q-1 -21 24 -25q20 -2 40 -3q11 0 29 6t21 13z" />
    <glyph glyph-name="Adieresis" unicode="&#xc4;" horiz-adv-x="733" 
d="M418 912q20 -2 20 -28q0 -25 -17 -52q-18 -30 -44 -41q-67 11 -67 53q0 28 31 49.5t77 18.5zM275 906q23 -13 23 -36q0 -19 -17 -52q-24 -46 -25 -49q-4 -6 -7 -11q-6 -7 -13 -7q-40 -1 -53 58q-3 15 13 40q13 21 27 41q10 19 39 19q8 0 13 -3zM622 10q-45 -17 -66 -12
h-98q-11 0 -31 17t-22 27q-3 11 8 25q18 24 23 34q2 4 -14 63q-1 13 -6 39q-10 12 -20 35q0 18 -13 32t-29 13q-2 0 -33 4q-34 5 -55 5q-25 0 -35 -7q-33 -24 -54 -82q-17 -48 -19 -94q8 -9 23 -17q10 -12 12 -25q3 -14 -6 -40q-10 -29 -23 -29h-132q-8 -5 -18 -5
q-22 0 -43.5 20t-21.5 42q0 26 32 40q55 24 72 75q2 20 10 58q4 10 20 31q14 18 18 33q9 13 22 43q9 30 25 65q5 12 7.5 43t6.5 41q18 24 50 72q0 9 4 29q20 41 20 51q0 7 -2 13.5t-9 17.5q-17 14 -17 29t18.5 26t39.5 11q11 0 31 -9q14 -6 31 2q13 7 25 7q33 0 55 -47
q11 -10 28 -39q0 -22 11 -61q22 -35 27 -47q1 -2 19 -61q7 -25 8 -63q1 -26 21 -57q1 -9 3 -26q1 -23 11 -64q13 -12 31 -37q4 -10 3.5 -31t2.5 -27q15 -20 44 -67q3 -5 21 -12q24 -11 29 -14q19 -12 19 -34q0 -13 -26 -23q-19 -7 -38 -13zM359 376q5 14 5 21q0 2 -13 32
q-3 40 -6 81q-9 48 -53 46q-14 -1 -20.5 -21.5t-4.5 -35.5q-12 -20 -13 -39q-3 -41 -9 -75q-1 -21 24 -25q20 -2 40 -3q11 0 29 6t21 13z" />
    <glyph glyph-name="Aring" unicode="&#xc5;" horiz-adv-x="798" 
d="M387 372q4 20 -4 42q-11 41 -23 83q-14 47 -34 75q-2 1 -9.5 5t-11.5 4q-14 0 -29 -39l-19 -51q2 -9 -6 -40q-9 -35 -9 -47q0 -5 1 -8l-10 -23q4 -18 18 -23q8 0 20 -1q18 -9 45 -9t63 9q5 1 8 23zM493 899q0 -58 -11 -78q-9 -16 -56 -54q-15 -4 -45 -13q15 -31 26 -30
q24 1 35.5 -5.5t25.5 -28.5q10 -97 48 -169q-1 -10 0 -28q9 -13 19 -40q4 -47 13 -87l26 -96q6 -8 16 -25q3 -13 15 -37q25 -37 59 -88q8 -11 49 -39q35 -22 35 -40q0 -12 -11 -26q-21 -26 -60 -26q-17 0 -49.5 6.5t-45.5 6.5q-16 0 -26 -7.5t-48 -9.5q-38 -1 -46.5 5
t-19.5 22q-14 19 -14 31q0 4 2 7q40 27 40 75q0 21 -9 61q-6 7 -13 24q-8 34 -28 46q-1 12 -12.5 20.5t-22.5 7.5q-26 -3 -44 -7q-6 5 -77 -2q-5 5 -12 5q-13 0 -32 -18q-9 -9 -16 -39t-14 -39q-26 -30 -26 -48q0 -16 18 -38q11 -14 30 -31q0 -1 7.5 -20t7.5 -31
q0 -15 -10 -26q-7 -3 -14 -3t-21.5 5.5t-21.5 5.5q-5 0 -9 -2q-40 -15 -70 -15q-52 0 -79 47q-5 8 -2 30q3 21 10 34q2 3 28 12t36 29q15 32 28 46q6 8 8 20q7 66 34 151q-3 12 -3 36q4 16 18.5 35.5t17.5 30.5q1 18 3 53q2 22 14 49.5t25 54.5q16 35 14 51l-12 15
q-1 5 -1 9q0 21 32 38q21 10 43 20l20 15q-17 6 -52 22q0 1 -19 43q-16 36 -16 49q0 28 45 73q72 17 107 17q1 1 6 1q9 0 29 -4q26 -6 31 -6q47 -33 47 -53zM408 876q0 9 -13 19t-23 10q-50 0 -50 -57q0 -13 19 -28q25 -6 22 -6q32 0 40 15q5 10 5 47z" />
    <glyph glyph-name="AE" unicode="&#xc6;" horiz-adv-x="1001" 
d="M919 93q0 -24 -12 -33q-16 -10 -18 -18q-13 -40 -41 -54q-21 -10 -66 -10q-61 0 -114 13q-12 -3 -26 -3q-12 0 -36.5 2.5t-37.5 2.5q-7 -5 -14 -5l-19 9q-36 -16 -79 -16q-13 0 -27 4l-6 6q-4 1 -40 1q-12 0 -12 16q0 7 2.5 22t2.5 21q0 15 21 22q34 11 39 14
q21 14 21 45q0 3 -8 29t-8 28q-3 6 -11 33q-5 20 -19 29q0 11 -9.5 19t-20.5 8q-19 0 -47 -8q-5 4 -18 4q-1 0 -59 -7q-6 5 -12 5q-29 0 -45 -39q-23 -55 -26 -58q-30 -33 -30 -51q0 -13 15.5 -37.5t26.5 -27.5q0 -7 5 -22.5t5 -24.5q0 -34 -26 -34q-7 0 -20.5 5t-21.5 5
q-12 0 -39.5 -9.5t-42.5 -9.5q-25 0 -49 16q-27 17 -27 41q0 37 16 51q5 6 33 17q23 9 34 27q19 23 42 67q14 68 47 152q-1 10 -1 21q0 20 17 43q23 30 27 39q6 14 11 50q4 33 14 52.5t21 40t11 37.5q-11 9 -21 18q-22 24 -22 43q0 14 12 25q9 18 90 15q9 3 27 12l46 2
q9 0 34 -9.5t41.5 -9.5t25.5 -6q26 -2 43 -2q12 0 36.5 5.5t34.5 5.5q25 -1 66 1q49 1 65 1q13 0 31 -5q30 -23 30 -38q0 -19 -9 -56q-10 -43 -21 -43q-22 0 -33 31q-10 7 -17 13q-20 19 -59.5 19t-52.5 16q-9 0 -31.5 3.5t-34.5 3.5q-15 0 -26 -4q0 -19 -3 -38t-3 -23
q0 -16 12 -41q-1 -5 11.5 -35t12.5 -35t8 -22t8 -34q53 -18 59 -18q16 0 35 11q16 -2 23 -6q14 6 56 12q8 1 21.5 16t23.5 15q23 -7 28 -35v-48q0 -16 9 -32.5t9 -23.5q0 -21 -13 -21q-8 0 -56 33.5t-54 44.5q-9 -3 -38 -1q-22 2 -39 -13q-40 0 -56 -20l-2 -42
q17 -64 17 -89q0 -9 16.5 -43.5t16.5 -43.5q15 -30 31 -59q9 -15 27 -17h74q9 0 34.5 16t26.5 24q14 7 48 44q30 31 46 32q33 -27 33 -79zM390 385q0 31 -15.5 94.5t-30.5 86.5q-3 1 -9.5 4.5t-11.5 3.5q-13 0 -31 -39l-24 -52v-4q1 -13 -12 -45.5t-11 -45.5
q-12 -22 -12 -23q0 -25 37 -24q16 -7 41 -7q42 0 56 6q23 10 23 45z" />
    <glyph glyph-name="Ccedilla" unicode="&#xc7;" horiz-adv-x="738" 
d="M635 545q1 -12 1 -24q0 -21 -12 -28q4 -1 -17 -2q-12 0 -17 8q-47 74 -121 106q-11 12 -37 26q-7 -1 -19 2q-19 17 -39 17q-17 0 -40 -13q-18 -10 -37 -21q-32 5 -67 -40l-26 -28q-20 -23 -19 -42q-2 -3 -9.5 -23.5t-7.5 -24.5v-52q0 -46 5 -115q4 -9 9 -26q8 -27 34 -51
q5 -13 15 -30q94 -104 152 -104q19 0 36 9q12 4 38 12q31 9 41 15q22 14 42 46q5 10 48 36q26 16 38 3q7 -10 7 -29q0 -33 -17 -56q-19 -26 -39 -52q-25 -33 -46 -49q-14 -12 -38 -12q-8 0 -24 1.5t-24 1.5q-10 0 -18 -1q-58 -9 -54 -9q-20 0 -37 7q-2 1 -26 4
q-8 -21 -6 -23q6 -7 16 -19q8 -1 18 -12.5t14 -13.5q76 -25 84 -63q-2 -11 8 -36q10 -28 10 -41q0 -12 -7 -22l-19 -10q-3 -2 -19 -15q-12 -10 -15 -8h-145q-8 -2 -23 -5q-15 9 -37 21q-10 3 -25 11t-15 23q0 22 19 38q20 0 60 3q29 3 27 3q31 -8 61 -8q34 0 46 13q4 5 4 9
q0 8 -49 20q-5 1 -11 11.5t-7 11.5q-11 12 -55 54q-6 17 -15 38q-10 14 4 41q-11 4 -17 8q-14 8 -68 32q-38 17 -47 30q-13 23 -51 72q-8 16 -25 42q-13 17 -16 33t-5 31v114q0 31 11 84q7 8 18 25q16 38 46 75q15 8 37 31q0 8 3 25q2 5 16 12q23 12 25 13q10 10 29 24
q17 9 48.5 16.5t35.5 9.5q16 13 54 30q7 1 22 -4q21 -7 24 -7q11 3 32 3l18 -10q16 -9 27 -9h53q14 1 27 1q63 0 99 -36q25 -25 25 -59q0 -29 -19 -69z" />
    <glyph glyph-name="Egrave" unicode="&#xc8;" horiz-adv-x="710" 
d="M410 843q-1 -34 -8 -74q-4 -4 -11 -4q-13 0 -28 10.5t-16 21.5q-2 35 -18 54q-22 26 -25 34q2 17 -19 31.5t-21 21.5q0 8 10 18q15 16 64 16q34 0 44.5 -10t20 -46.5t9.5 -59.5q0 -9 -2 -13zM618 82q-2 -11 -20 -22t-21 -17q-21 -41 -60 -56q-25 -9 -73 -10h-77
q-2 0 -26.5 6.5t-26.5 6.5h-108l-9 -3t-12 -1q-40 21 -72 21t-64 -19q-2 -1 -26 2q-11 -2 -34 -2q-22 3 -33 19q-7 12 0 30q6 14 32 27q34 17 47 28q42 39 51 51q14 19 14 52v60q0 22 7 52t7 27v76q0 29 -7 43.5t-7 32.5v129q0 17 -53 36t-53 38q0 7 4 15q9 16 23 21
q9 4 40.5 2.5t44 1.5t26.5 3q15 0 39 -4q28 -5 39 -6q86 -7 125 -1q1 0 17 5q13 4 21 3q29 -1 41 1q16 2 15 2h77q20 4 48 -4q25 -19 27 -35q0 -6 -13 -33q-14 -31 -16 -42q-4 -29 -25 -29q-24 0 -31 31q-5 4 -16 14q-15 14 -40 17q-22 0 -44 1q-26 1 -35 15q-12 1 -36 4
t-37 3q-18 0 -33 -5q-6 -13 -22 -36q-7 -10 -6 -34q0 -9 12.5 -27.5t12.5 -26.5q-1 -6 -4.5 -27.5t-3.5 -33.5q0 -22 9 -38q1 -1 24 -11q30 -14 50 -14q18 0 42 12q10 5 24 -6q25 8 67 13q7 1 26.5 16t29.5 15q5 0 10 -3q15 -12 15 -31q0 -10 -7 -37q-6 -23 -3 -34
q1 -3 6 -13.5t5 -17.5q0 -11 -13 -23q-3 -2 -6 -2q-7 0 -19 11q-15 12 -18 13q-31 14 -41 20q-24 15 -32 33q-10 -2 -42 0q-26 1 -47 -14q-7 0 -19.5 -2t-37.5 -10q-14 -7 -17 -24l-4 -26q-1 -4 -10 -19q-8 -11 -6 -16q1 -7 15 -23q3 -33 0 -40q-19 -38 -19 -63q0 -10 4 -29
q4 -22 30 -44.5t52 -22.5q10 0 18 5h57q1 0 5.5 -2t9.5 -2q14 0 37 16l20 10q17 8 20 16q39 18 72 51q25 26 49 26q24 -20 24 -53q0 -12 -6 -39z" />
    <glyph glyph-name="Eacute" unicode="&#xc9;" horiz-adv-x="710" 
d="M372 897q0 -12 -13 -21t-19 -23q-14 -12 -26 -37q-15 -34 -34 -59q-7 -9 -24 -9q-30 0 -34 17t-2 25q3 16 22.5 72t27.5 70q15 29 40 29q19 0 37 -15t21.5 -28t3.5 -21zM618 82q-2 -11 -20 -22t-21 -17q-21 -41 -60 -56q-25 -9 -73 -10h-77q-2 0 -26.5 6.5t-26.5 6.5
h-108l-9 -3t-12 -1q-40 21 -72 21t-64 -19q-2 -1 -26 2q-11 -2 -34 -2q-22 3 -33 19q-7 12 0 30q6 14 32 27q34 17 47 28q42 39 51 51q14 19 14 52v60q0 22 7 52t7 27v76q0 29 -7 43.5t-7 32.5v129q0 17 -53 36t-53 38q0 7 4 15q9 16 23 21q9 4 40.5 2.5t44 1.5t26.5 3
q15 0 39 -4q28 -5 39 -6q86 -7 125 -1q1 0 17 5q13 4 21 3q29 -1 41 1q16 2 15 2h77q20 4 48 -4q25 -19 27 -35q0 -6 -13 -33q-14 -31 -16 -42q-4 -29 -25 -29q-24 0 -31 31q-5 4 -16 14q-15 14 -40 17q-22 0 -44 1q-26 1 -35 15q-12 1 -36 4t-37 3q-18 0 -33 -5
q-6 -13 -22 -36q-7 -10 -6 -34q0 -9 12.5 -27.5t12.5 -26.5q-1 -6 -4.5 -27.5t-3.5 -33.5q0 -22 9 -38q1 -1 24 -11q30 -14 50 -14q18 0 42 12q10 5 24 -6q25 8 67 13q7 1 26.5 16t29.5 15q5 0 10 -3q15 -12 15 -31q0 -10 -7 -37q-6 -23 -3 -34q1 -3 6 -13.5t5 -17.5
q0 -11 -13 -23q-3 -2 -6 -2q-7 0 -19 11q-15 12 -18 13q-31 14 -41 20q-24 15 -32 33q-10 -2 -42 0q-26 1 -47 -14q-7 0 -19.5 -2t-37.5 -10q-14 -7 -17 -24l-4 -26q-1 -4 -10 -19q-8 -11 -6 -16q1 -7 15 -23q3 -33 0 -40q-19 -38 -19 -63q0 -10 4 -29q4 -22 30 -44.5
t52 -22.5q10 0 18 5h57q1 0 5.5 -2t9.5 -2q14 0 37 16l20 10q17 8 20 16q39 18 72 51q25 26 49 26q24 -20 24 -53q0 -12 -6 -39z" />
    <glyph glyph-name="Ecircumflex" unicode="&#xca;" horiz-adv-x="710" 
d="M403 769l-16 29q-10 4 -37 31q-23 22 -38 22q-10 0 -48 -46q-25 -29 -49 -59q-23 17 -23 34q0 31 53 93t71 62q14 0 44.5 -28.5t39.5 -51.5q26 -52 26 -71q0 -15 -23 -15zM618 82q-2 -11 -20 -22t-21 -17q-21 -41 -60 -56q-25 -9 -73 -10h-77q-2 0 -26.5 6.5t-26.5 6.5
h-108l-9 -3t-12 -1q-40 21 -72 21t-64 -19q-2 -1 -26 2q-11 -2 -34 -2q-22 3 -33 19q-7 12 0 30q6 14 32 27q34 17 47 28q42 39 51 51q14 19 14 52v60q0 22 7 52t7 27v76q0 29 -7 43.5t-7 32.5v129q0 17 -53 36t-53 38q0 7 4 15q9 16 23 21q9 4 40.5 2.5t44 1.5t26.5 3
q15 0 39 -4q28 -5 39 -6q86 -7 125 -1q1 0 17 5q13 4 21 3q29 -1 41 1q16 2 15 2h77q20 4 48 -4q25 -19 27 -35q0 -6 -13 -33q-14 -31 -16 -42q-4 -29 -25 -29q-24 0 -31 31q-5 4 -16 14q-15 14 -40 17q-22 0 -44 1q-26 1 -35 15q-12 1 -36 4t-37 3q-18 0 -33 -5
q-6 -13 -22 -36q-7 -10 -6 -34q0 -9 12.5 -27.5t12.5 -26.5q-1 -6 -4.5 -27.5t-3.5 -33.5q0 -22 9 -38q1 -1 24 -11q30 -14 50 -14q18 0 42 12q10 5 24 -6q25 8 67 13q7 1 26.5 16t29.5 15q5 0 10 -3q15 -12 15 -31q0 -10 -7 -37q-6 -23 -3 -34q1 -3 6 -13.5t5 -17.5
q0 -11 -13 -23q-3 -2 -6 -2q-7 0 -19 11q-15 12 -18 13q-31 14 -41 20q-24 15 -32 33q-10 -2 -42 0q-26 1 -47 -14q-7 0 -19.5 -2t-37.5 -10q-14 -7 -17 -24l-4 -26q-1 -4 -10 -19q-8 -11 -6 -16q1 -7 15 -23q3 -33 0 -40q-19 -38 -19 -63q0 -10 4 -29q4 -22 30 -44.5
t52 -22.5q10 0 18 5h57q1 0 5.5 -2t9.5 -2q14 0 37 16l20 10q17 8 20 16q39 18 72 51q25 26 49 26q24 -20 24 -53q0 -12 -6 -39z" />
    <glyph glyph-name="Edieresis" unicode="&#xcb;" horiz-adv-x="710" 
d="M418 912q20 -2 20 -28q0 -25 -17 -52q-18 -30 -44 -41q-67 11 -67 53q0 28 31 49.5t77 18.5zM275 906q23 -13 23 -36q0 -19 -17 -52q-24 -46 -25 -49q-4 -6 -7 -11q-6 -7 -13 -7q-40 -1 -53 58q-3 15 13 40q13 21 27 41q10 19 39 19q8 0 13 -3zM618 82q-2 -11 -20 -22
t-21 -17q-21 -41 -60 -56q-25 -9 -73 -10h-77q-2 0 -26.5 6.5t-26.5 6.5h-108l-9 -3t-12 -1q-40 21 -72 21t-64 -19q-2 -1 -26 2q-11 -2 -34 -2q-22 3 -33 19q-7 12 0 30q6 14 32 27q34 17 47 28q42 39 51 51q14 19 14 52v60q0 22 7 52t7 27v76q0 29 -7 43.5t-7 32.5v129
q0 17 -53 36t-53 38q0 7 4 15q9 16 23 21q9 4 40.5 2.5t44 1.5t26.5 3q15 0 39 -4q28 -5 39 -6q86 -7 125 -1q1 0 17 5q13 4 21 3q29 -1 41 1q16 2 15 2h77q20 4 48 -4q25 -19 27 -35q0 -6 -13 -33q-14 -31 -16 -42q-4 -29 -25 -29q-24 0 -31 31q-5 4 -16 14q-15 14 -40 17
q-22 0 -44 1q-26 1 -35 15q-12 1 -36 4t-37 3q-18 0 -33 -5q-6 -13 -22 -36q-7 -10 -6 -34q0 -9 12.5 -27.5t12.5 -26.5q-1 -6 -4.5 -27.5t-3.5 -33.5q0 -22 9 -38q1 -1 24 -11q30 -14 50 -14q18 0 42 12q10 5 24 -6q25 8 67 13q7 1 26.5 16t29.5 15q5 0 10 -3
q15 -12 15 -31q0 -10 -7 -37q-6 -23 -3 -34q1 -3 6 -13.5t5 -17.5q0 -11 -13 -23q-3 -2 -6 -2q-7 0 -19 11q-15 12 -18 13q-31 14 -41 20q-24 15 -32 33q-10 -2 -42 0q-26 1 -47 -14q-7 0 -19.5 -2t-37.5 -10q-14 -7 -17 -24l-4 -26q-1 -4 -10 -19q-8 -11 -6 -16
q1 -7 15 -23q3 -33 0 -40q-19 -38 -19 -63q0 -10 4 -29q4 -22 30 -44.5t52 -22.5q10 0 18 5h57q1 0 5.5 -2t9.5 -2q14 0 37 16l20 10q17 8 20 16q39 18 72 51q25 26 49 26q24 -20 24 -53q0 -12 -6 -39z" />
    <glyph glyph-name="Igrave" unicode="&#xcc;" horiz-adv-x="501" 
d="M319 843q-2 -34 -8 -74q-4 -4 -11 -4q-14 0 -29 10.5t-15 21.5q-3 35 -19 54q-22 26 -25 34q3 17 -18 31.5t-21 21.5q0 8 10 18q14 16 63 16q35 0 45 -10t19.5 -46.5t9.5 -59.5q0 -9 -1 -13zM380 692q0 -12 -27 -29q-5 -6 -18 -15q-43 -22 -43 -71q0 -13 3.5 -38.5
t3.5 -36.5q0 -9 -1.5 -16t-11.5 -35q-5 -14 -4 -39l9 -203q-2 -17 -2 -18l2 -52q1 -18 16 -34t38 -13q11 -17 11 -36q0 -42 -41 -49q-22 1 -64 -2l-61 -12q-37 -8 -61 -8q-49 0 -82 30q-10 9 -2 34q9 13 43 37q30 21 36 43q-1 15 -1 44q1 16 2 45q1 4 7 23.5t6 21.5l-4 87
l-7.5 13.5t-6.5 21.5q2 25 7 36q4 7 3 29l-6 131q-12 19 -25 45q-4 15 -21.5 35t-17.5 28q0 10 17 20q25 15 79 15q22 0 58.5 -3t45.5 -3h51q11 3 23 3q16 0 29 -7q17 -8 17 -22z" />
    <glyph glyph-name="Iacute" unicode="&#xcd;" horiz-adv-x="501" 
d="M320 897q0 -12 -12 -20q-15 -10 -20 -24q-15 -12 -26 -37q-15 -34 -34 -59q-7 -9 -25 -9q-29 0 -33 17t-3 25q4 16 23.5 72t26.5 70q16 29 41 29q19 0 37 -15t21.5 -28t3.5 -21zM380 692q0 -12 -27 -29q-5 -6 -18 -15q-43 -22 -43 -71q0 -13 3.5 -38.5t3.5 -36.5
q0 -9 -1.5 -16t-11.5 -35q-5 -14 -4 -39l9 -203q-2 -17 -2 -18l2 -52q1 -18 16 -34t38 -13q11 -17 11 -36q0 -42 -41 -49q-22 1 -64 -2l-61 -12q-37 -8 -61 -8q-49 0 -82 30q-10 9 -2 34q9 13 43 37q30 21 36 43q-1 15 -1 44q1 16 2 45q1 4 7 23.5t6 21.5l-4 87l-7.5 13.5
t-6.5 21.5q2 25 7 36q4 7 3 29l-6 131q-12 19 -25 45q-3 12 -19 40q-13 24 -13 36q0 16 19 27q16 10 43 10q25 0 72 -10.5t59 -10.5h51q11 3 23 3q16 0 29 -7q17 -8 17 -22z" />
    <glyph glyph-name="Icircumflex" unicode="&#xce;" horiz-adv-x="501" 
d="M299 769l-17 29q-9 4 -37 31q-23 22 -37 22q-10 0 -49 -46q-24 -29 -49 -59q-22 17 -22 34q0 31 52.5 93t71.5 62q14 0 44 -28.5t40 -51.5q25 -52 25 -71q0 -15 -22 -15zM380 692q0 -12 -27 -29q-5 -6 -18 -15q-43 -22 -43 -71q0 -13 3.5 -38.5t3.5 -36.5q0 -9 -1.5 -16
t-11.5 -35q-5 -14 -4 -39l9 -203q-2 -17 -2 -18l2 -52q1 -18 16 -34t38 -13q11 -17 11 -36q0 -42 -41 -49q-22 1 -64 -2l-61 -12q-37 -8 -61 -8q-49 0 -82 30q-10 9 -2 34q9 13 43 37q30 21 36 43q-1 15 -1 44q1 16 2 45q1 4 7 23.5t6 21.5l-4 87l-7.5 13.5t-6.5 21.5
q2 25 7 36q4 7 3 29l-6 131q-12 19 -25 45q-3 12 -19 40q-13 24 -13 36q0 16 19 27q16 10 43 10q25 0 72 -10.5t59 -10.5h51q11 3 23 3q16 0 29 -7q17 -8 17 -22z" />
    <glyph glyph-name="Idieresis" unicode="&#xcf;" horiz-adv-x="501" 
d="M327 912q19 -2 19 -28q0 -25 -16 -52q-18 -30 -45 -41q-67 11 -67 53q0 28 31.5 49.5t77.5 18.5zM184 906q22 -13 22 -36q0 -19 -17 -52q-24 -46 -25 -49q-3 -6 -7.5 -12t-11.5 -6q-40 -1 -53 58q-3 15 12 40q14 21 26 40.5t40 19.5q8 0 14 -3zM380 692q0 -12 -27 -29
q-5 -6 -18 -15q-43 -22 -43 -71q0 -13 3.5 -38.5t3.5 -36.5q0 -9 -1.5 -16t-11.5 -35q-5 -14 -4 -39l9 -203q-2 -17 -2 -18l2 -52q1 -18 16 -34t38 -13q11 -17 11 -36q0 -42 -41 -49q-22 1 -64 -2l-61 -12q-37 -8 -61 -8q-49 0 -82 30q-10 9 -2 34q9 13 43 37q30 21 36 43
q-1 15 -1 44q1 16 2 45q1 4 7 23.5t6 21.5l-4 87l-7.5 13.5t-6.5 21.5q2 25 7 36q4 7 3 29l-6 131q-12 19 -25 45q-3 12 -19 40q-13 24 -13 36q0 16 19 27q16 10 43 10q25 0 72 -10.5t59 -10.5h51q11 3 23 3q16 0 29 -7q17 -8 17 -22z" />
    <glyph glyph-name="Eth" unicode="&#xd0;" horiz-adv-x="847" 
d="M721 279q0 -27 -6 -42q-4 -9 -30 -66q-8 -9 -22 -24q-5 -6 -13 -25q-5 -12 -15 -13q-30 -5 -49 -28q-24 -30 -44 -39q-12 0 -32 -4q-47 -21 -55 -21h-70q-1 0 -23 -11t-44 -11q-13 0 -27 3q-2 1 -16.5 10t-19.5 8q-30 -3 -43.5 -10.5t-39.5 -7.5h-87q-25 3 -55 15
q-36 15 -40 29q-1 4 -1 9q0 29 65 58q29 12 29 55q0 9 -1 18q-1 2 10 19.5t11 34.5q0 9 -3 18q-14 35 -16 58l-3 2q-8 4 -31 6t-36 13q-20 9 -20 29q0 24 21 42q7 6 18 5q7 -5 37 -13q0 3 8.5 8t8.5 6q16 30 17 37q-2 -24 -2 14v122q0 29 -36 46.5t-41 39.5q-2 7 12 22
q7 7 32 16q34 12 47 19q10 5 19 0q10 -8 21 -15q7 -5 25 -5h77q-4 0 28 3q25 3 36 0q17 -2 51 -11q3 -1 48 -8q27 -4 53 -30q3 -4 12 0q9 3 14 10q29 -2 48 -34q9 -1 24 -6l94 -70q55 -49 55 -106q15 -73 0 -175zM604 342q-6 87 -13 126q-1 8 -11 21q-6 6 -11 13
q-13 29 -29 44.5t-54 37.5q-14 13 -38 31q-11 6 -36.5 10t-26.5 4q-5 2 -20 11q-11 6 -17 6q-4 0 -6 -1q-23 -13 -45 -26q-26 -16 -38 -31q-7 -9 -8 -28v-26q-6 -18 -14 -50q-1 -10 7.5 -30t8.5 -22q0 -5 5.5 -12t5.5 -13q12 0 39 1q51 1 68.5 -7t17.5 -24
q0 -18 -19.5 -37.5t-37.5 -22.5q-24 4 -72 7q-4 0 -15 -2q-2 -21 -4 -35q3 -33 4 -88q-3 -4 -6 -11t10 -18q0 -32 19 -67q23 -41 53 -41q17 0 35 14q3 2 16 4t42 2q84 42 127 94q8 9 17 37q5 15 11 29q10 13 25 35q0 11 1 31q0 9 4.5 20.5t4.5 13.5z" />
    <glyph glyph-name="Ntilde" unicode="&#xd1;" horiz-adv-x="881" 
d="M578 891q-2 -30 -30 -69q-24 -35 -51 -53q-17 -1 -50 -6q-55 -11 -53 -11q-13 0 -25 6q-11 6 -26 -8q-47 -39 -58 -39q-5 0 -7 4q-8 14 -8 31q0 39 36 79t70 47q5 2 29 -2h77q11 6 39 28q18 14 29 14q5 0 11 -3q18 -10 17 -18zM772 724q27 -9 27 -33q0 -17 -14.5 -30.5
t-33.5 -10.5q-17 -44 -26 -85q2 -49 3 -124q-1 -41 -4 -124q-1 -7 0 -9q5 -23 5 -47v-196q0 -8 2 -19q1 -7 0 -13q-2 -7 -9 -18.5t-21.5 -16.5t-26.5 -2q-14 3 -29 25q-12 19 -25 39q-10 6 -30 22q-10 14 -34 36q-69 43 -126 104q-20 16 -87 86q-4 10 -14 27q-36 43 -71 86
q-57 63 -84 63q-9 0 -11.5 -12.5t-3.5 -23.5q-7 -27 -8 -63q-1 -39 7 -55q14 -29 14 -39q0 -14 -14 -32q-4 -6 -5 -19q-1 -14 5 -22q13 -18 15 -38l4 -46q2 -15 22 -24q10 -6 16 -13q28 -35 28 -72q0 -29 -32 -27l-64 2q-8 1 -22 -8.5t-26 -8.5q-46 2 -80 18q-15 6 -15 21
q0 20 25 50q22 26 37 33q17 58 17 90q0 36 -16 59v21q1 17 1 25l4 27t4 46q0 27 -8 40q0 -3 0 26v108q-1 -5 -1 30q-1 26 -37.5 51t-36.5 39q0 10 10 22q19 23 63 25q36 1 72 1q15 8 46 20q24 7 34.5 -12t16.5 -48q5 -20 9 -39q16 -20 38 -51q2 -9 10 -24q7 -8 72 -75
q45 -46 70 -82q8 -3 24 -10q10 -5 29 -18q56 -56 98 -71q6 -2 14.5 -21.5t19.5 -23.5q-3 -19 19 -19q11 0 15 11q4 8 -1 23q4 6 7 12q3 8 -1 13v61q0 1 2 26t2 65v56q0 102 -22 129q-10 12 -29 26q-8 -1 -23 2q-16 11 -16 33q0 27 21 32q2 0 53 -5q29 -3 44 -1q18 3 23 2z
" />
    <glyph glyph-name="Ograve" unicode="&#xd2;" horiz-adv-x="896" 
d="M528 843q-1 -34 -8 -74q-4 -4 -11 -4q-13 0 -28 10.5t-16 21.5q-3 35 -19 54q-22 26 -25 34q3 17 -18 31.5t-21 21.5q0 8 10 18q14 16 63 16q35 0 45 -10t19.5 -46.5t9.5 -59.5q0 -9 -1 -13zM771 329q-8 -53 -39.5 -115t-69.5 -101q-23 -24 -73 -57q-55 -36 -99 -54
q-8 -3 -42.5 -1t-50.5 -5q-6 -2 -14 -2q-11 0 -31 4q-23 4 -28 5q-23 -4 -66 -1q-23 19 -70 50q-17 4 -51 17q-28 14 -48 41q-19 24 -37 48q-31 42 -46 77q1 14 -6 96q-1 4 -4 14.5t-3 16.5q6 121 80 230q9 4 62 47q33 26 65 22q2 -1 15 9t20 13q17 3 39 8q94 45 137 45
q42 0 73 -30q11 -12 39 -21q34 -11 45 -17q8 -5 21.5 -7t20 -5t58.5 -40q38 -27 62.5 -75.5t24.5 -91.5q0 9 16 -58v-62zM637 257v159q0 27 -28.5 63t-50.5 51q-10 7 -23 22q-15 19 -22 26q-33 30 -68 41q-45 14 -65 14h-65q-45 0 -74.5 -19.5t-55.5 -67.5q-43 -80 -43 -128
q0 -19 5 -36q10 -34 10 -45v-64q0 5 19 -44q1 -10 6 -26q10 -10 24 -28q6 -16 16 -36q12 -14 36 -31.5t36 -19.5q13 2 34 2q10 -5 26 -12q15 3 36 3q13 -5 27 -5q43 0 131 59q5 4 16 4q10 -1 10 0q57 75 63 118z" />
    <glyph glyph-name="Oacute" unicode="&#xd3;" horiz-adv-x="896" 
d="M411 897q0 -12 -13 -21t-19 -23q-14 -12 -26 -37q-15 -34 -34 -59q-7 -9 -24 -9q-29 0 -33.5 17t-2.5 25q3 16 22.5 72t27.5 70q15 29 40 29q19 0 37.5 -15t21.5 -28t3 -21zM771 329q-8 -53 -39.5 -115t-69.5 -101q-23 -24 -73 -57q-55 -36 -99 -54q-8 -3 -42.5 -1
t-50.5 -5q-6 -2 -14 -2q-11 0 -31 4q-23 4 -28 5q-23 -4 -66 -1q-23 19 -70 50q-17 4 -51 17q-28 14 -48 41q-19 24 -37 48q-31 42 -46 77q1 14 -6 96q-1 4 -4 14.5t-3 16.5q6 121 80 230q9 4 62 47q33 26 65 22q2 -1 15 9t20 13q17 5 39 12q89 42 134 42q44 0 76 -31
q11 -12 39 -21q34 -11 45 -17q8 -5 21.5 -7t20 -5t58.5 -40q38 -27 62.5 -75.5t24.5 -91.5q0 9 16 -58v-62zM637 257v159q0 27 -28.5 63t-50.5 51q-10 7 -23 22q-15 19 -22 26q-33 30 -68 41q-45 14 -65 14h-65q-45 0 -74.5 -19.5t-55.5 -67.5q-43 -80 -43 -128q0 -19 5 -36
q10 -34 10 -45v-64q0 5 19 -44q1 -10 6 -26q10 -10 24 -28q6 -16 16 -36q12 -14 36 -31.5t36 -19.5q13 2 34 2q10 -5 26 -12q15 3 36 3q13 -5 27 -5q43 0 131 59q5 4 16 4q10 -1 10 0q57 75 63 118z" />
    <glyph glyph-name="Ocircumflex" unicode="&#xd4;" horiz-adv-x="896" 
d="M469 769l-17 29q-9 4 -37 31q-23 22 -37 22q-11 0 -49 -46q-24 -29 -49 -59q-22 17 -22 34q0 31 52.5 93t71.5 62q14 0 44 -28.5t40 -51.5q25 -52 25 -71q0 -15 -22 -15zM771 329q-8 -53 -39.5 -115t-69.5 -101q-23 -24 -73 -57q-55 -36 -99 -54q-8 -3 -42.5 -1t-50.5 -5
q-6 -2 -14 -2q-11 0 -31 4q-23 4 -28 5q-23 -4 -66 -1q-23 19 -70 50q-17 4 -51 17q-28 14 -48 41q-19 24 -37 48q-31 42 -46 77q1 14 -6 96q-1 4 -4 14.5t-3 16.5q6 121 80 230q9 4 62 47q33 26 65 22q2 -1 15 9t20 13q17 3 39 8q94 45 137 45q42 0 73 -30q11 -12 39 -21
q34 -11 45 -17q8 -5 21.5 -7t20 -5t58.5 -40q38 -27 62.5 -75.5t24.5 -91.5q0 9 16 -58v-62zM637 257v159q0 27 -28.5 63t-50.5 51q-10 7 -23 22q-15 19 -22 26q-33 30 -68 41q-45 14 -65 14h-65q-45 0 -74.5 -19.5t-55.5 -67.5q-43 -80 -43 -128q0 -19 5 -36q10 -34 10 -45
v-64q0 5 19 -44q1 -10 6 -26q10 -10 24 -28q6 -16 16 -36q12 -14 36 -31.5t36 -19.5q13 2 34 2q10 -5 26 -12q15 3 36 3q13 -5 27 -5q43 0 131 59q5 4 16 4q10 -1 10 0q57 75 63 118z" />
    <glyph glyph-name="Otilde" unicode="&#xd5;" horiz-adv-x="896" 
d="M550 922q-2 -31 -28.5 -67.5t-53.5 -55.5q-16 -1 -49 -5q-55 -12 -53 -12q-14 0 -25 6t-27 -7q-46 -39 -57 -39q-5 0 -8 4q-7 14 -7 30q0 39 37 81q35 39 68 46q6 1 29 -2h77q11 6 40 27q18 14 28 14q6 0 11 -3q18 -9 18 -17zM771 329q-8 -53 -39.5 -115t-69.5 -101
q-23 -24 -73 -57q-55 -36 -99 -54q-8 -3 -42.5 -1t-50.5 -5q-6 -2 -14 -2q-11 0 -31 4q-23 4 -28 5q-23 -4 -66 -1q-23 19 -70 50q-17 4 -51 17q-28 14 -48 41q-19 24 -37 48q-31 42 -46 77q1 14 -6 96q-1 4 -4 14.5t-3 16.5q6 121 80 230q9 4 62 47q33 26 65 22q2 -1 15 9
t20 13q22 3 50 8q93 45 130 45q38 0 69 -30q11 -12 39 -21q34 -11 45 -17q8 -5 21.5 -7t20 -5t58.5 -40q38 -27 62.5 -75.5t24.5 -91.5q0 9 16 -58v-62zM637 257v159q0 27 -28.5 63t-50.5 51q-10 7 -23 22q-15 19 -22 26q-33 30 -68 41q-45 14 -65 14h-65q-45 0 -74.5 -19.5
t-55.5 -67.5q-43 -80 -43 -128q0 -19 5 -36q10 -34 10 -45v-64q0 5 19 -44q1 -10 6 -26q10 -10 24 -28q6 -16 16 -36q12 -14 36 -31.5t36 -19.5q13 2 34 2q10 -5 26 -12q15 3 36 3q13 -5 27 -5q43 0 131 59q5 4 16 4q10 -1 10 0q57 75 63 118z" />
    <glyph glyph-name="Odieresis" unicode="&#xd6;" horiz-adv-x="896" 
d="M497 912q19 -2 19 -28q0 -25 -16 -52q-18 -30 -45 -41q-67 11 -67 53q0 28 31.5 49.5t77.5 18.5zM354 906q23 -13 23 -33q0 -15 -17 -41q-20 -35 -24 -44q-3 -4 -27.5 -11.5t-32.5 -7.5q-18 0 -18 9q0 2 2.5 13t1.5 18q-3 15 12 40q14 21 26 40.5t40 19.5q8 0 14 -3z
M771 329q-8 -53 -39.5 -115t-69.5 -101q-23 -24 -73 -57q-55 -36 -99 -54q-8 -3 -42.5 -1t-50.5 -5q-6 -2 -14 -2q-11 0 -31 4q-23 4 -28 5q-23 -4 -66 -1q-23 19 -70 50q-17 4 -51 17q-28 14 -48 41q-19 24 -37 48q-31 42 -46 77q1 14 -6 96q-1 4 -4 14.5t-3 16.5
q6 121 80 230q9 4 62 47q33 26 65 22q2 -1 15 9t20 13q17 4 41 10q95 46 126 46q36 0 66 -30q22 -21 57 -42q8 -5 43 -6t41.5 -4.5t58.5 -40.5q38 -27 62.5 -75.5t24.5 -91.5q0 9 16 -58v-62zM637 257v159q0 27 -28.5 63t-50.5 51q-10 7 -23 22q-15 19 -22 26q-33 30 -68 41
q-45 14 -65 14h-65q-45 0 -74.5 -19.5t-55.5 -67.5q-43 -80 -43 -128q0 -19 5 -36q10 -34 10 -45v-64q0 5 19 -44q1 -10 6 -26q10 -10 24 -28q6 -16 16 -36q12 -14 36 -31.5t36 -19.5q13 2 34 2q10 -5 26 -12q15 3 36 3q13 -5 27 -5q43 0 131 59q5 4 16 4q10 -1 10 0
q57 75 63 118z" />
    <glyph glyph-name="multiply" unicode="&#xd7;" 
d="M387 71q-10 -9 -29 -17q-22 -10 -30 -3l-5 12q-22 -4 -34 9q-4 4 -8.5 14.5t-8.5 15.5q-60 52 -85 51q-21 0 -47 -26q-6 -6 -29 -30t-31 -31q-31 -31 -57 -13l-15 2q-6 7 -2 26q-14 30 29 72q6 6 39 38q12 10 17 15l7 8q6 31 -9 51q-20 23 -40 47q0 8 -13 16l-22 34
q6 11 -2 22.5t2 34.5q39 6 62 -2q61 -55 93 -79q38 -22 65 5q78 76 80 78l9 5q39 6 56 -12q21 -21 -16 -58q-7 -6 -18 -15.5t-14 -12.5q-22 -21 -35 -46q-18 -36 -1 -54q7 -7 21 -12q4 -13 14 -25q7 -9 20 -22q19 -19 21 -20l6 -2q8 -9 14 -37.5t-4 -38.5z" />
    <glyph glyph-name="Oslash" unicode="&#xd8;" horiz-adv-x="896" 
d="M782 331q-7 -53 -38.5 -115t-69.5 -101q-23 -24 -74 -57q-55 -36 -99 -54q-7 -3 -42 -1t-51 -5q-5 -2 -14 -2q-11 0 -32 4t-27 4q-23 -3 -66 0q-23 19 -70 50q-17 4 -51 17q-2 1 -10.5 15.5t-21.5 15.5l-28 4q-9 -13 -18.5 -25.5t-22.5 -20.5q-17 -9 -31 -2
q-30 15 -30 36q0 5 1 10q10 37 56 56q12 9 12 19q0 11 -16 30q-19 21 -21 28q0 13 -7 96q-1 3 -4 14t-3 16q6 122 81 231q8 4 61 47q33 26 65 22q2 -1 15 9t20 13q19 5 44 13q87 42 130 42t75 -33q12 -11 40 -20q33 -11 45 -17q7 -5 21 -7t19 -4q14 -10 40 -29q14 -1 30 -2
q12 11 36 14q10 1 25 -5t17 -18q-13 -19 -40 -53q39 -58 38 -115q0 9 16 -58v-62zM569 532q-10 7 -22 22q-16 19 -23 26q-32 30 -68 41q-45 14 -65 14h-65q-44 0 -74 -19.5t-55 -67.5q-43 -81 -43 -128q0 -19 5 -36q9 -34 9 -45v-64q0 -10 7 -19q11 -16 34 -13l60 73
q6 8 30.5 10.5t29.5 6.5q18 21 52 55q7 6 40 12q30 6 40 17q35 43 103 99q3 7 5 16zM648 259v158q0 45 -27 45q-7 0 -14 -3q-20 -20 -49 -36q-48 -26 -134 -71q-5 -3 -31 -33.5t-43 -43.5q-33 -23 -77 -44q-38 -17 -53 -31q-2 -10 -3 -23q6 -16 16 -37q12 -13 36 -31t37 -19
q12 2 33 2q10 -6 26 -12q15 3 37 3q12 -5 27 -5q42 0 130 59q6 4 16 3.5t11 0.5q56 75 62 118z" />
    <glyph glyph-name="Ugrave" unicode="&#xd9;" horiz-adv-x="708" 
d="M449 843q-1 -34 -8 -74q-3 -4 -11 -4q-13 0 -28 10.5t-16 21.5q-2 35 -18 54q-22 26 -25 34q2 17 -19 31.5t-21 21.5q0 8 10 18q15 16 64 16q34 0 44.5 -10t20 -46.5t9.5 -59.5q0 -9 -2 -13zM660 689q8 -10 8 -19q0 -11 -18 -26q-28 -22 -34 -28q-21 -25 -23.5 -39.5
t-4.5 -27.5q-9 -10 -21 -31q-2 -3 9 -17.5t12 -20.5q3 -28 16 -64q0 -19 2 -50q2 -12 2 -22q0 -17 -9 -48t-9 -59q0 -11 1 -24q0 -1 -7 -13t-7 -19q-1 -35 -26 -69q-19 -21 -37 -43q-31 -38 -86 -52q-48 -8 -95 -15q-9 -3 -17.5 -4t-17.5 -1q-16 0 -49 7q-38 10 -53 11
q-18 10 -53 26q-55 15 -83 73l-38 98q7 21 7 25v52q0 -1 -5.5 31t-4.5 46q5 53 3 59q-8 26 3 63q5 18 5 33q0 21 -18 66q-4 9 -44 39.5t-40 42.5t16.5 26.5t32.5 14.5q10 0 16 -6q34 10 45 10h61q1 0 4 -2.5t5 -2.5q39 -5 70 -1q42 -19 42 -50q0 -4 -2 -8q-10 -7 -20 -13
q-14 -9 -16 -21q1 -16 -1 -65q-8 -11 -21 -36q-1 0 -1 -15v-89q0 -10 10 -27.5t10 -21.5q0 -7 -6.5 -17t-12.5 -19q-4 -6 8 -29q13 -26 13 -31v-99q0 -18 68 -100q16 -20 37 -22q15 -2 31 -3l33 9q12 17 27.5 22.5t31.5 25.5q5 6 16 32q12 30 12 42v52l7.5 12t6.5 18
q-2 14 -8 28q-6 10 -6 32v137q0 129 -4 137q-2 3 -25.5 15t-29.5 23q-12 24 -12 41q0 11 6 15q52 35 102 35q10 0 18 -2q2 0 11.5 3t11.5 3h49q37 0 50 -3q28 -7 46 -30z" />
    <glyph glyph-name="Uacute" unicode="&#xda;" horiz-adv-x="708" 
d="M320 897q0 -12 -12 -20q-15 -10 -20 -24q-15 -12 -26 -37q-15 -34 -34 -59q-7 -9 -25 -9q-29 0 -33 17t-3 25q4 16 23.5 72t26.5 70q16 29 41 29q19 0 37 -15t21.5 -28t3.5 -21zM660 689q8 -10 8 -19q0 -11 -18 -26q-28 -22 -34 -28q-21 -25 -23.5 -39.5t-4.5 -27.5
q-9 -10 -21 -31q-2 -3 9 -17.5t12 -20.5q3 -28 16 -64q0 -19 2 -50q2 -12 2 -22q0 -17 -9 -48t-9 -59q0 -11 1 -24q0 -1 -7 -13t-7 -19q-1 -35 -26 -69q-19 -21 -37 -43q-31 -38 -86 -52q-48 -8 -95 -15q-9 -3 -17.5 -4t-17.5 -1q-16 0 -49 7q-38 10 -53 11q-18 10 -53 26
q-55 15 -83 73l-38 98q7 21 7 25v52q0 -1 -5.5 31t-4.5 46q5 53 3 59q-8 26 3 63q5 18 5 33q0 21 -18 66q-4 9 -44 39.5t-40 42.5t16.5 26.5t32.5 14.5q10 0 16 -6q34 10 45 10h61q1 0 4 -2.5t5 -2.5q39 -5 70 -1q42 -19 42 -50q0 -4 -2 -8q-10 -7 -20 -13q-14 -9 -16 -21
q1 -16 -1 -65q-8 -11 -21 -36q-1 0 -1 -15v-89q0 -10 10 -27.5t10 -21.5q0 -7 -6.5 -17t-12.5 -19q-4 -6 8 -29q13 -26 13 -31v-99q0 -18 68 -100q16 -20 37 -22q15 -2 31 -3l33 9q12 17 27.5 22.5t31.5 25.5q5 6 16 32q12 30 12 42v52l7.5 12t6.5 18q-2 14 -8 28
q-6 10 -6 32v137q0 129 -4 137q-2 3 -25.5 15t-29.5 23q-12 24 -12 41q0 11 6 15q52 35 102 35q10 0 18 -2q2 0 11.5 3t11.5 3h49q37 0 50 -3q28 -7 46 -30z" />
    <glyph glyph-name="Ucircumflex" unicode="&#xdb;" horiz-adv-x="708" 
d="M403 769l-16 29q-10 4 -37 31q-23 22 -38 22q-10 0 -48 -46q-25 -29 -49 -59q-23 17 -23 34q0 31 53 93t71 62q14 0 44.5 -28.5t39.5 -51.5q26 -52 26 -71q0 -15 -23 -15zM660 689q8 -10 8 -19q0 -11 -18 -26q-28 -22 -34 -28q-21 -25 -23.5 -39.5t-4.5 -27.5
q-9 -10 -21 -31q-2 -3 9 -17.5t12 -20.5q3 -28 16 -64q0 -19 2 -50q2 -12 2 -22q0 -17 -9 -48t-9 -59q0 -11 1 -24q0 -1 -7 -13t-7 -19q-1 -35 -26 -69q-19 -21 -37 -43q-31 -38 -86 -52q-48 -8 -95 -15q-9 -3 -17.5 -4t-17.5 -1q-16 0 -49 7q-38 10 -53 11q-18 10 -53 26
q-55 15 -83 73l-38 98q7 21 7 25v52q0 -1 -5.5 31t-4.5 46q5 53 3 59q-8 26 3 63q5 18 5 33q0 21 -18 66q-4 9 -44 39.5t-40 42.5t16.5 26.5t32.5 14.5q10 0 16 -6q34 10 45 10h61q1 0 4 -2.5t5 -2.5q39 -5 70 -1q42 -19 42 -50q0 -4 -2 -8q-10 -7 -20 -13q-14 -9 -16 -21
q1 -16 -1 -65q-8 -11 -21 -36q-1 0 -1 -15v-89q0 -10 10 -27.5t10 -21.5q0 -7 -6.5 -17t-12.5 -19q-4 -6 8 -29q13 -26 13 -31v-99q0 -18 68 -100q16 -20 37 -22q15 -2 31 -3l33 9q12 17 27.5 22.5t31.5 25.5q5 6 16 32q12 30 12 42v52l7.5 12t6.5 18q-2 14 -8 28
q-6 10 -6 32v137q0 129 -4 137q-2 3 -25.5 15t-29.5 23q-12 24 -12 41q0 11 6 15q52 35 102 35q10 0 18 -2q2 0 11.5 3t11.5 3h49q37 0 50 -3q28 -7 46 -30z" />
    <glyph glyph-name="Udieresis" unicode="&#xdc;" horiz-adv-x="708" 
d="M418 912q20 -2 20 -28q0 -25 -17 -52q-18 -30 -44 -41q-67 11 -67 53q0 28 31 49.5t77 18.5zM275 906q23 -13 23 -36q0 -19 -17 -52q-24 -46 -25 -49q-4 -6 -7 -11q-6 -7 -13 -7q-40 -1 -53 58q-3 15 13 40q13 21 27 41q10 19 39 19q8 0 13 -3zM660 689q8 -10 8 -19
q0 -11 -18 -26q-28 -22 -34 -28q-21 -25 -23.5 -39.5t-4.5 -27.5q-9 -10 -21 -31q-2 -3 9 -17.5t12 -20.5q3 -28 16 -64q0 -19 2 -50q2 -12 2 -22q0 -17 -9 -48t-9 -59q0 -11 1 -24q0 -1 -7 -13t-7 -19q-1 -35 -26 -69q-19 -21 -37 -43q-31 -38 -86 -52q-48 -8 -95 -15
q-9 -3 -17.5 -4t-17.5 -1q-16 0 -49 7q-38 10 -53 11q-18 10 -53 26q-55 15 -83 73l-38 98q7 21 7 25v52q0 -1 -5.5 31t-4.5 46q5 53 3 59q-8 26 3 63q5 18 5 33q0 21 -18 66q-4 9 -44 39.5t-40 42.5t16.5 26.5t32.5 14.5q10 0 16 -6q34 10 45 10h61q1 0 4 -2.5t5 -2.5
q39 -5 70 -1q42 -19 42 -50q0 -4 -2 -8q-10 -7 -20 -13q-14 -9 -16 -21q1 -16 -1 -65q-8 -11 -21 -36q-1 0 -1 -15v-89q0 -10 10 -27.5t10 -21.5q0 -7 -6.5 -17t-12.5 -19q-4 -6 8 -29q13 -26 13 -31v-99q0 -18 68 -100q16 -20 37 -22q15 -2 31 -3l33 9q12 17 27.5 22.5
t31.5 25.5q5 6 16 32q12 30 12 42v52l7.5 12t6.5 18q-2 14 -8 28q-6 10 -6 32v137q0 129 -4 137q-2 3 -25.5 15t-29.5 23q-12 24 -12 41q0 11 6 15q52 35 102 35q10 0 18 -2q2 0 11.5 3t11.5 3h49q37 0 50 -3q28 -7 46 -30z" />
    <glyph glyph-name="Yacute" unicode="&#xdd;" horiz-adv-x="585" 
d="M241 897q0 -12 -11 -20q-15 -10 -21 -24q-14 -12 -25 -37q-16 -34 -35 -59q-7 -9 -24 -9q-29 0 -33.5 17t-2.5 25q3 16 22.5 72t27.5 70q15 29 40 29q19 0 39 -16q17 -14 20 -27t3 -21zM516 678q-13 -23 -54 -31q-37 -7 -42 -32l-12 -55q-5 -21 -17 -37l-32 -36
q-27 -35 -27 -59q0 -2 -8 -16t-10 -21q-7 -20 -10 -62t-7 -85q0 -14 7 -40q3 -8 -1 -43q-3 -33 5 -51q6 -13 34 -26q34 -15 40 -21q19 -16 19 -44q0 -7 -2 -11q-9 -11 -40 -5q-16 -4 -49 -12h-183q-7 0 -18.5 -2t-16.5 -2q-21 0 -38 25q-5 7 3 24q11 25 48.5 45t44.5 30
q9 14 9 37v12q1 19 7 29q-3 11 -3 25q0 6 3 39q2 26 0 45q-5 11 -14 32q-3 23 -17 66q-11 31 -23 63q-15 40 -41 65q-4 18 -20 49q-17 22 -30 35q-23 24 -35 24q-27 2 -27 30q0 24 13 48q5 8 16 9.5t21 2.5h128q27 0 52 -23q9 -9 9 -18q0 -8 -8 -19q-11 -17 -12 -20t-1 -10
q0 -43 20 -54q-8 -4 -5 -10q12 -27 34 -77q3 -12 6 -23q6 -15 17 -17q-2 0 20 5q83 91 83 170q0 14 -3 27q-25 26 -25 43q0 35 97 35q22 0 52 -2q9 -1 21.5 -8t10.5 -13q12 -1 14 -12q2 -10 -3 -18z" />
    <glyph glyph-name="Thorn" unicode="&#xde;" horiz-adv-x="676" 
d="M586 460q8 -26 8 -48q0 -20 -9 -46q-14 -43 -15 -48q-21 -81 -119 -141q-5 -3 -27 -2q-25 1 -35 -1q-11 -10 -36 -21q-16 -1 -37 6.5t-28 7.5q-10 0 -20 -7q-10 4 -23.5 -13.5t-13.5 -36.5q0 -8 3 -15q35 -6 49.5 -13t37.5 -11t23 -34q0 -27 -18 -38q-5 -3 -18 -1
q-20 2 -19 2q-74 0 -162 -2q-56 -2 -81 1q-15 1 -34.5 21t-19.5 38q0 5 1 9l62 50q39 35 34 67q0 2 3.5 20.5t3.5 31.5q0 10 -2 18q-7 23 -7 34q0 4 1 12t1 14q0 8 -1 18q-5 14 -12 42q-2 22 3 72q4 38 -5 81q-2 0 -6 21q1 12 -5 33.5t-17 48.5q-21 35 -47.5 32t-26.5 17
q0 19 13 31q22 18 51 27q4 2 10 2q10 0 29 -7q26 -8 33 -10q55 -11 89 0q29 10 52 10q33 0 55 -22q4 -4 4 -8q0 -10 -20 -25q-17 -11 -33 -23q-11 -7 -23 -14q-13 -11 -10 -39q17 -9 34 -9h46q21 0 58 6q10 4 22 4q24 0 60 -18q50 -24 74 -42q55 -38 70 -82zM464 348v61
q2 4 2 9q0 13 -18 40q-17 24 -34 49q-7 11 -9 12q-16 11 -33 21q-38 25 -92 25q-29 0 -48 -8q-6 -10 -15 -24q-10 -19 -16 -58q7 -13 8 -37q1 -15 1 -30q0 -3 5 -13t4 -13q-8 -26 -8 -45q0 -18 8 -38q6 -13 12 -44v-17q0 -12 7 -16q11 -8 54 -5q8 5 22 10q86 7 113 57
q5 10 24 36q12 16 13 28z" />
    <glyph glyph-name="germandbls" unicode="&#xdf;" horiz-adv-x="496" 
d="M456 233q0 -5 -9 -23q-11 -24 -17 -48q-7 -29 -25 -40q-37 -25 -50 -39q-29 1 -58 -18q-13 -8 -47 -4q-12 9 -30 31q-32 55 -32 82q0 24 18 39q3 3 19 1q36 -2 52 -24q3 -34 18 -34q12 0 38 14q9 4 9 15q0 24 -38 70q-22 28 -54 76q-19 30 -24 49q0 3 17 23q22 24 28 32
q45 71 45 101q0 21 -22 64q-24 4 -39 15q-2 2 -18 0q-58 -5 -71 -102l-1 -68q-1 -27 2 -65q5 -9 11 -25q-8 -14 -16 -31l-2 -134q0 -7 6 -38q6 -35 12 -51q2 -5 34.5 -36.5t34.5 -43.5q3 -24 -24 -35q-11 -5 -45 -11h-69q-11 0 -53 9q-45 10 -47 14t-2 9q0 22 30 43
q5 12 11 26l1 78q-3 29 1 73q-3 34 -5 67q-4 41 -30 65q-5 5 -7 17q-2 13 4 19q29 29 35 70q5 35 9 69q5 11 12 35q4 16 14 35q5 8 24.5 16t25.5 12q15 18 56 47q18 2 54 11l38 16q19 6 42 3q8 0 46 -22q42 -24 45 -38q8 -12 19 -76q5 -25 5 -29q0 -46 -68 -82
q-25 -4 -39 -56q-3 -11 -3 -15q0 -5 9 -4t15 -7q19 -11 43 -27q11 -6 21 -11q14 -9 25 -27q2 -4 8.5 -37t7.5 -45z" />
    <glyph glyph-name="agrave" unicode="&#xe0;" horiz-adv-x="465" 
d="M316 639q-1 -34 -8 -74q-3 -4 -10 -4q-14 0 -29 10.5t-16 22.5q-2 34 -29 71q-33 47 -36 53q3 16 -16 32.5t-19 24.5q0 9 10 19q15 16 64 16q34 0 45.5 -11t30 -78t13.5 -82zM387 26q-8 -11 -21.5 -30.5t-32.5 -19.5q-14 0 -36 12l-34 18q-9 12 -29 31q-4 2 -13 2
q-31 0 -39 -23q-37 -42 -77 -33q-5 1 -29 15.5t-37 26.5q-43 30 -43 78q0 25 13 38q54 55 116 67q6 1 19.5 16.5t23.5 21.5q2 2 33 13q20 8 30 24q16 28 18 46q8 56 -49 56q-59 0 -90 -47q-5 -8 -27 -9q-18 -1 -31 2q-19 3 -18 11q0 21 14 46q16 31 41 37q8 7 26 20
q9 3 28 10q10 12 30 25q40 8 57 10q75 5 103 -41q7 -1 15 -14q9 -18 10 -18q16 -19 16 -48q0 -18 -10 -62q1 7 2 -59q0 -1 -4 -38q-2 -23 4 -31q-6 -61 -5 -81q5 -8 19.5 -29.5t6.5 -42.5zM239 193q-11 24 -32 16q-22 -8 -44 -38.5t-22 -54.5q0 -31 38 -34q3 -2 9 -5
q8 -4 28 9.5t22 19.5q2 10 0 25t-1 19q8 30 2 43z" />
    <glyph glyph-name="aacute" unicode="&#xe1;" horiz-adv-x="465" 
d="M293 815q2 -9 2 -17q0 -22 -19 -47q-24 -31 -28 -42q-15 -11 -26 -36q-15 -34 -34 -59q-7 -9 -25 -9q-29 0 -33 17t-2 25q3 15 30.5 91t35.5 91q15 29 40 29q19 0 39 -16q17 -14 20 -27zM387 26q-8 -11 -21.5 -30.5t-32.5 -19.5q-14 0 -36 12l-34 18q-9 12 -29 31
q-4 2 -13 2q-31 0 -39 -23q-37 -42 -77 -33q-5 1 -29 15.5t-37 26.5q-43 30 -43 78q0 25 13 38q54 55 116 67q6 1 19.5 16.5t23.5 21.5q2 2 33 13q20 8 30 24q16 28 18 46q8 56 -49 56q-59 0 -90 -47q-5 -8 -27 -9q-18 -1 -31 2q-19 3 -18 11q0 21 14 46q16 31 41 37
q8 7 26 20q9 3 28 10q10 12 30 25q40 8 57 10q75 5 103 -41q7 -1 15 -14q9 -18 10 -18q16 -19 16 -48q0 -18 -10 -62q1 7 2 -59q0 -1 -4 -38q-2 -23 4 -31q-6 -61 -5 -81q5 -8 19.5 -29.5t6.5 -42.5zM239 193q-11 24 -32 16q-22 -8 -44 -38.5t-22 -54.5q0 -31 38 -34
q3 -2 9 -5q8 -4 28 9.5t22 19.5q2 10 0 25t-1 19q8 30 2 43z" />
    <glyph glyph-name="acircumflex" unicode="&#xe2;" horiz-adv-x="465" 
d="M307 562l-17 30q-11 5 -36 54q-24 45 -37 45q-10 0 -49 -69q-43 -76 -49 -82q-23 17 -23 34q0 32 53 114t71 82q13 0 44 -49q27 -42 40 -72q26 -52 26 -71q0 -16 -23 -16zM387 26q-8 -11 -21.5 -30.5t-32.5 -19.5q-14 0 -36 12l-34 18q-9 12 -29 31q-4 2 -13 2
q-31 0 -39 -23q-37 -42 -77 -33q-5 1 -29 15.5t-37 26.5q-43 30 -43 78q0 25 13 38q54 55 116 67q6 1 19.5 16.5t23.5 21.5q2 2 33 13q20 8 30 24q16 28 18 46q8 56 -49 56q-59 0 -90 -47q-5 -8 -27 -9q-18 -1 -31 2q-19 3 -18 11q0 21 14 46q16 31 41 37q8 7 26 20
q9 3 28 10q10 12 30 25q40 8 57 10q75 5 103 -41q7 -1 15 -14q9 -18 10 -18q16 -19 16 -48q0 -18 -10 -62q1 7 2 -59q0 -1 -4 -38q-2 -23 4 -31q-6 -61 -5 -81q5 -8 19.5 -29.5t6.5 -42.5zM239 193q-11 24 -32 16q-22 -8 -44 -38.5t-22 -54.5q0 -31 38 -34q3 -2 9 -5
q8 -4 28 9.5t22 19.5q2 10 0 25t-1 19q8 30 2 43z" />
    <glyph glyph-name="atilde" unicode="&#xe3;" horiz-adv-x="465" 
d="M390 748q-2 -30 -29 -69q-25 -35 -52 -53q-16 -1 -49 -6q-55 -11 -54 -11q-13 0 -24 6t-27 -8q-46 -39 -57 -39q-6 0 -8 4q-7 14 -7 30q0 40 36 80t69 47q6 1 29 -2h77q11 6 40 28q18 13 28 13q6 0 11 -2q18 -10 17 -18zM387 26q-8 -11 -21.5 -30.5t-32.5 -19.5
q-14 0 -36 12l-34 18q-9 12 -29 31q-4 2 -13 2q-31 0 -39 -23q-37 -42 -77 -33q-5 1 -29 15.5t-37 26.5q-43 30 -43 78q0 25 13 38q54 55 116 67q6 1 19.5 16.5t23.5 21.5q2 2 33 13q20 8 30 24q16 28 18 46q8 56 -49 56q-59 0 -90 -47q-5 -8 -27 -9q-18 -1 -31 2
q-19 3 -18 11q0 21 14 46q16 31 41 37q8 7 26 20q9 3 28 10q10 12 30 25q40 8 57 10q75 5 103 -41q7 -1 15 -14q9 -18 10 -18q16 -19 16 -48q0 -18 -10 -62q1 7 2 -59q0 -1 -4 -38q-2 -23 4 -31q-6 -61 -5 -81q5 -8 19.5 -29.5t6.5 -42.5zM239 193q-11 24 -32 16
q-22 -8 -44 -38.5t-22 -54.5q0 -31 38 -34q3 -2 9 -5q8 -4 28 9.5t22 19.5q2 10 0 25t-1 19q8 30 2 43z" />
    <glyph glyph-name="adieresis" unicode="&#xe4;" horiz-adv-x="465" 
d="M362 743q19 -1 19 -28q0 -25 -16 -52q-18 -30 -45 -40q-67 11 -67 53q0 28 31 49t78 18zM219 737q22 -13 22 -36q0 -19 -17 -51q-24 -47 -25 -50q-4 -5 -7 -11q-6 -7 -12 -7q-40 0 -53 59q-3 14 12 39q14 21 27 42q10 19 39 19q8 0 14 -4zM387 26q-8 -11 -21.5 -30.5
t-32.5 -19.5q-14 0 -36 12l-34 18q-9 12 -29 31q-4 2 -13 2q-31 0 -39 -23q-37 -42 -77 -33q-5 1 -29 15.5t-37 26.5q-43 30 -43 78q0 25 13 38q54 55 116 67q6 1 19.5 16.5t23.5 21.5q2 2 33 13q20 8 30 24q16 28 18 46q8 56 -49 56q-59 0 -90 -47q-5 -8 -27 -9
q-18 -1 -31 2q-19 3 -18 11q0 21 14 46q16 31 41 37q8 7 26 20q9 3 28 10q10 12 30 25q40 8 57 10q75 5 103 -41q7 -1 15 -14q9 -18 10 -18q16 -19 16 -48q0 -18 -10 -62q1 7 2 -59q0 -1 -4 -38q-2 -23 4 -31q-6 -61 -5 -81q5 -8 19.5 -29.5t6.5 -42.5zM239 193
q-11 24 -32 16q-22 -8 -44 -38.5t-22 -54.5q0 -31 38 -34q3 -2 9 -5q8 -4 28 9.5t22 19.5q2 10 0 25t-1 19q8 30 2 43z" />
    <glyph glyph-name="aring" unicode="&#xe5;" horiz-adv-x="465" 
d="M355 739q0 -57 -11 -78q-9 -16 -56 -53q-8 -1 -29 -8.5t-31 -7.5h-38q-22 8 -65 28l-19 42q-16 36 -16 49q0 28 46 73q71 18 106 18q1 1 6 1q9 0 29 -5q26 -5 31 -6q47 -32 47 -53zM387 26q-8 -11 -21.5 -30.5t-32.5 -19.5q-14 0 -36 12l-34 18q-9 12 -29 31q-4 2 -13 2
q-31 0 -39 -23q-37 -42 -77 -33q-5 1 -29 15.5t-37 26.5q-43 30 -43 78q0 25 13 38q54 55 116 67q6 1 19.5 16.5t23.5 21.5q2 2 33 13q20 8 30 24q16 28 18 46q8 56 -49 56q-59 0 -90 -47q-5 -8 -27 -9q-18 -1 -31 2q-19 3 -18 11q0 21 14 46q16 31 41 37q8 7 26 20
q9 3 28 10q10 12 30 25q40 8 57 10q75 5 103 -41q7 -1 15 -14q9 -18 10 -18q16 -19 16 -48q0 -18 -10 -62q1 7 2 -59q0 -1 -4 -38q-2 -23 4 -31q-6 -61 -5 -81q5 -8 19.5 -29.5t6.5 -42.5zM271 716q0 10 -13.5 19.5t-23.5 9.5q-50 0 -50 -56q0 -14 19 -29q25 -5 22 -5
q32 0 40 15q6 9 6 46zM239 193q-11 24 -32 16q-22 -8 -44 -38.5t-22 -54.5q0 -31 38 -34q3 -2 9 -5q8 -4 28 9.5t22 19.5q2 10 0 25t-1 19q8 30 2 43z" />
    <glyph glyph-name="ae" unicode="&#xe6;" horiz-adv-x="552" 
d="M513 320q-14 -19 -48 -26q-8 -9 -27 -20q-16 0 -32 -1q-30 -1 -45 -9q-44 -23 -51 -72q-4 -27 2 -37l-2 -26q19 -59 48 -59h54q6 0 23.5 7.5t26.5 7.5q17 0 22 -26q1 -10 -16 -27.5t-32 -20.5q-20 -3 -30 -7q-3 -2 -13 -12t-15 -10q-8 1 -16 9t-13 10q-10 -17 -29 -17
q-17 0 -45 15q-19 11 -39 22q14 -7 21 -6q-11 16 -16 32q-7 4 -43 -15.5t-40 -35.5q-32 -41 -65 -33q-5 1 -25 15.5t-30 25.5q-37 29 -37 77q0 23 11 37q46 53 98 65q5 1 15 14q13 17 21 23q2 2 27 12q18 8 25 24q15 28 16 45v1q6 53 -41 53q-32 0 -48.5 -17t-30.5 -32
q-7 -5 -19 -5q-16 -1 -27 1q-16 3 -15 11q0 21 11 45q14 30 35 36q7 7 22 20q8 2 24 9q8 12 25 25q34 8 48 9q51 4 74 -21q7 2 20 8q23 15 45 30q5 3 27 7q9 1 19 1q84 0 117 -93q6 -11 11 -22q8 -16 8 -28q0 -10 -6 -19zM359 303q34 4 34 40q0 23 -14 45t-31 22
q-25 0 -41 -37q-14 -33 -12 -59q4 -10 10 -24q13 -11 36 5q7 4 18 8zM342 2q-5 1 -12 1q1 -3 12 -1zM209 137q4 14 -3 31q-10 23 -28 16q-18 -8 -36.5 -37.5t-18.5 -53.5q0 -31 32 -33q3 -2 7 -5q7 -4 24 9.5t18.5 19.5t2.5 15q-1 24 2 38z" />
    <glyph glyph-name="ccedilla" unicode="&#xe7;" horiz-adv-x="428" 
d="M389 377q4 -18 -8 -41q-25 -31 -54 -31q-16 0 -35 9q-21 23 -53 48q-9 1 -61.5 -30t-51.5 -92l12 -73q2 -19 5 -38q4 -24 16 -33q25 -22 65 -22q41 0 77 22q8 5 19 5q18 0 34.5 -11.5t16.5 -25.5q0 -16 -22 -27q-26 1 -66 -37q-10 2 -28 1q-14 -7 -27 -14
q-21 -10 -36 -10q-10 0 -18 4q3 -4 2 -9t0 -7q8 -1 18 -12.5t15 -13.5q75 -25 83 -63q-1 -11 8 -36q11 -28 11 -41q0 -12 -7 -22q-1 0 -20 -10q-3 -2 -19 -15q-12 -10 -15 -8h-145q-8 -2 -23 -5q-15 9 -37 21q-10 3 -25 11t-15 23q0 22 19 38q21 0 60 3q29 3 27 3
q32 -8 62 -8q33 0 45 13q4 5 4 9q0 8 -49 20q-5 1 -11 11.5t-7 11.5q-11 12 -55 54q-6 17 -14 38q-10 12 1 37q-44 19 -70 65q-23 41 -23 86q0 18 3 33q-1 11 3 32q10 29 21 58q19 48 41 61q10 1 28 8q15 14 73 50q11 2 33 10q1 0 16 12q11 9 17 9q19 -2 38 -3q31 -5 59 -21
q16 -6 31 -12q26 -13 32 -35z" />
    <glyph glyph-name="egrave" unicode="&#xe8;" horiz-adv-x="481" 
d="M329 639q-1 -34 -8 -74q-3 -4 -10 -4q-14 0 -29 10.5t-16 22.5q-2 34 -29 71q-33 47 -35 53q2 16 -17 32.5t-19 24.5q0 9 10 19q15 16 64 16q34 0 45.5 -11t30 -78t13.5 -82zM397 336l-16 -20q-14 -13 -32 -19h-57q-7 0 -54 -31t-57.5 -44.5t-10.5 -28.5q0 -29 30 -62
t60 -33q11 0 30 7t29 8q11 8 28 18q17 7 37 -3t20 -34q0 -29 -27 -45q-44 -26 -59.5 -29.5t-29.5 -6.5q-18 -5 -69 -11q-45 -6 -56 -6q-65 0 -92 53q1 12 -11.5 27t-23.5 30q-6 8 -20 47v59q0 1 -7 14t-8 20q-4 24 14 66q17 39 41 69q3 5 30 52q17 31 44 45q9 5 27 4
q20 -2 27 0q16 5 32 12q2 1 31 1h67q1 0 33 -23.5t38 -27.5q34 -16 34 -53q0 -31 -22 -55zM272 356q5 23 -25 51t-51 27q-9 0 -34 -20t-25 -32q0 -3 2 -5q-3 -7 -3 -20q0 -24 9 -45q9 -24 22 -24q9 0 18 10q6 12 45.5 32t41.5 26z" />
    <glyph glyph-name="eacute" unicode="&#xe9;" horiz-adv-x="429" 
d="M254 815q2 -9 2 -17q0 -22 -19 -47q-24 -31 -28 -42q-15 -11 -26 -36q-15 -34 -34 -59q-7 -9 -25 -9q-29 0 -33 17t-3 25q3 15 31 91t36 91q15 29 40 29q19 0 39 -16q17 -14 20 -27zM394 310q-17 -19 -57 -25q-9 -9 -32 -20h-38q-36 -1 -53 -9q-56 -25 -62 -76
q-4 -9 -12 -26l24 -52q18 -35 46 -33h64q7 0 28 6.5t31 6.5q21 0 26 -24q2 -10 -18.5 -27t-38.5 -20q-23 -3 -35 -7q-3 -1 -15 -10.5t-18 -9.5q-9 0 -20 8.5t-19 9.5q-32 0 -87 2q-21 2 -36 42q-2 6 -18 19t-21 26l-24 56q-13 33 -13 58q0 15 5 43t5 42q6 9 13 28
q3 55 63 94q10 6 27.5 10t23.5 7q26 15 52 29q7 4 33 7q10 1 21 1q100 0 140 -90q6 -10 12 -21q9 -16 9 -27q0 -10 -6 -18zM212 293q40 4 40 39q0 23 -17 44t-36 21q-26 0 -44.5 -28.5t-18.5 -55.5q0 -37 27 -37q12 0 27 9q8 4 22 8z" />
    <glyph glyph-name="ecircumflex" unicode="&#xea;" horiz-adv-x="467" 
d="M294 562l-17 30q-11 5 -36 54q-24 45 -37 45q-10 0 -49 -69q-43 -76 -49 -82q-23 17 -23 34q0 32 53 114t71 82q12 0 44 -49q27 -42 40 -72q26 -52 26 -71q0 -16 -23 -16zM385 345q-14 -33 -75 -53q-12 -10 -38 -24q-17 1 -52 -4q-16 -11 -45 -31q-10 0 -30 -4
q-22 -11 -22 -44q0 -21 9 -48q1 -4 16 -13q19 -12 20 -13q21 -16 57 -18q11 0 29.5 6t20.5 6h62q4 0 12 -7.5t7 -11.5q-20 -67 -119 -79q-15 -7 -45 -16q-8 -1 -49 11q-12 0 -33 6q-42 26 -61 66q-11 24 -20 78q-12 11 -28 34q-3 9 -3 24v74q5 30 15 63q16 52 69 84
q50 28 101 55q24 -2 93 -21q18 2 48 -3q66 -51 66 -95q0 -11 -5 -22zM211 330q4 17 -14.5 39t-39.5 22t-28 -16q-2 -12 -7 -33q-12 -31 -12 -45q0 -11 6 -19q22 -16 43 3q16 13 31 26q19 16 21 23z" />
    <glyph glyph-name="edieresis" unicode="&#xeb;" horiz-adv-x="449" 
d="M362 743q19 -1 19 -28q0 -25 -16 -52q-18 -30 -45 -40q-67 11 -67 53q0 28 31 49t78 18zM219 737q22 -13 22 -36q0 -19 -17 -51q-24 -47 -25 -50q-4 -5 -7 -11q-6 -7 -12 -7q-40 0 -53 59q-3 14 12 39q14 21 27 42q10 19 39 19q8 0 14 -4zM394 310q-17 -19 -57 -25
q-9 -9 -32 -20h-38q-36 -1 -53 -9q-56 -25 -62 -76q-4 -9 -12 -26l24 -52q18 -35 46 -33h64q7 0 28 6.5t31 6.5q21 0 26 -24q2 -10 -18.5 -27t-38.5 -20q-23 -3 -35 -7q-3 -1 -15 -10.5t-18 -9.5q-9 0 -20 8.5t-19 9.5q-32 0 -87 2q-21 2 -36 42q-2 6 -18 19t-21 26l-24 56
q-13 33 -13 58q0 15 5 43t5 42q6 9 13 28q3 55 63 94q10 6 27.5 10t23.5 7q26 15 52 29q7 4 33 7q10 1 21 1q100 0 140 -90q6 -10 12 -21q9 -16 9 -27q0 -10 -6 -18zM212 293q40 4 40 39q0 23 -17 44t-36 21q-26 0 -44.5 -28.5t-18.5 -55.5q0 -37 27 -37q12 0 27 9q8 4 22 8
z" />
    <glyph glyph-name="igrave" unicode="&#xec;" horiz-adv-x="255" 
d="M199 639q-1 -34 -8 -74q-4 -4 -11 -4q-13 0 -28 10.5t-16 22.5q-3 34 -29 71q-34 47 -36 53q2 16 -17 32.5t-19 24.5q0 9 11 19q14 16 63 16q35 0 46 -11t30 -78t14 -82zM217 61q8 -18 -6 -36q-7 -8 -17 -12.5t-18 -7.5h-74q-10 0 -26.5 -5.5t-25.5 -5.5q-23 0 -50 28
q-3 3 -2 30q62 44 62 106v99q0 48 -40 97q-2 41 34 72q9 -3 24 12q18 20 26 23q20 7 33 -3q30 -24 30 -69q0 -11 -2 -25.5t-2 -17.5v-63q0 -2 3.5 -7t3.5 -7q4 -17 4 -28q0 -9 -3 -17.5t-3 -12.5v-59q0 -32 13 -44q23 -21 36 -47z" />
    <glyph glyph-name="iacute" unicode="&#xed;" horiz-adv-x="255" 
d="M228 815q2 -9 2 -17q0 -22 -19 -47q-24 -31 -29 -42q-14 -11 -25 -36q-15 -34 -35 -59q-7 -9 -24 -9q-29 0 -33.5 17t-2.5 25q3 15 31 91t36 91q15 29 40 29q19 0 37 -15t22 -28zM217 61q8 -18 -6 -36q-7 -8 -17 -12.5t-18 -7.5h-74q-10 0 -26.5 -5.5t-25.5 -5.5
q-23 0 -50 28q-3 3 -2 30q62 44 62 106v99q0 48 -40 97q-2 41 34 72q9 -3 24 12q18 20 26 23q20 7 33 -3q30 -24 30 -69q0 -11 -2 -25.5t-2 -17.5v-63q0 -2 3.5 -7t3.5 -7q4 -17 4 -28q0 -9 -3 -17.5t-3 -12.5v-59q0 -32 13 -44q23 -21 36 -47z" />
    <glyph glyph-name="icircumflex" unicode="&#xee;" horiz-adv-x="255" 
d="M191 645q22 -43 22 -73q0 -40 -30 -40l-11 38q-12 6 -24 39t-26 33q-9 0 -30 -45q-23 -50 -30 -57q-23 16 -23 34q0 34 36.5 115t52.5 81q12 0 34 -51q15 -37 29 -74zM217 61q8 -18 -6 -36q-7 -8 -17 -12.5t-18 -7.5h-74q-10 0 -26.5 -5.5t-25.5 -5.5q-23 0 -50 28
q-3 3 -2 30q62 44 62 106v99q0 48 -40 97q-2 41 34 72q9 -3 24 12q18 20 26 23q20 7 33 -3q30 -24 30 -69q0 -11 -2 -25.5t-2 -17.5v-63q0 -2 3.5 -7t3.5 -7q4 -17 4 -28q0 -9 -3 -17.5t-3 -12.5v-59q0 -32 13 -44q23 -21 36 -47z" />
    <glyph glyph-name="idieresis" unicode="&#xef;" horiz-adv-x="255" 
d="M270 744q18 -6 18 -32q0 -25 -16.5 -51.5t-43.5 -37.5q-28 -7 -28 48q0 30 13.5 52.5t38.5 22.5q8 0 18 -2zM179 741q19 -11 19 -21q0 -8 -22 -26q-26 -20 -32 -37q-1 -1 -7 -23q-6 -18 -12 -18q-22 -1 -28 5t-10 24q-3 14 13 39q13 21 27 42q10 19 39 19q8 0 13 -4z
M217 61q8 -18 -6 -36q-7 -8 -17 -12.5t-18 -7.5h-74q-10 0 -26.5 -5.5t-25.5 -5.5q-23 0 -50 28q-3 3 -2 30q62 44 62 106v99q0 48 -40 97q-2 41 34 72q9 -3 24 12q18 20 26 23q20 7 33 -3q30 -24 30 -69q0 -11 -2 -25.5t-2 -17.5v-63q0 -2 3.5 -7t3.5 -7q4 -17 4 -28
q0 -9 -3 -17.5t-3 -12.5v-59q0 -32 13 -44q23 -21 36 -47z" />
    <glyph glyph-name="eth" unicode="&#xf0;" horiz-adv-x="527" 
d="M489 284l-10 -49l3 -12h-5q-1 -26 -8 -52q-9 -8 -62 -82q-45 -63 -80 -79q-22 -1 -57 -4q-5 -1 -15.5 -7t-15.5 -6t-16 4.5t-16 5.5q-19 -9 -30 -9q-7 0 -20.5 7t-21.5 7q-128 113 -128 184l1 116q0 6 24.5 46t30.5 45q43 35 73 44q19 6 83 11l29 3q25 4 25 17
q0 10 -14.5 21t-25.5 11q-1 29 -36 51q-12 2 -25 4q-3 -1 -8 -15t-13 -17q-12 -6 -33 -1q-7 2 -18 -1q-14 -3 -19 -3q-9 0 -18 5q-27 5 -27 40q0 13 5 24q4 7 12 9q16 -1 54 4q3 9 12 21q3 6 3 11q0 13 -25 22q-35 11 -42 17q-1 5 -7 22t-6 23q0 2 16 11t16 10l39 -16
q8 -2 17 -11q6 -7 22 -7q34 0 43 -9q12 -14 21 -17q3 -1 18 -15l32 8q4 1 30 20q21 15 31 13q36 -6 36 -53q0 -26 -14 -33q-5 0 -35 -9q-5 -11 -6 -25q5 -14 30 -36q34 -29 37 -32q13 -15 35 -48.5t34 -48.5q3 -13 26 -72q19 -51 19 -68zM358 146q0 14 -6 42t-11 36
q9 16 9 36q0 13 -4 27l-3 1l3 1q-7 24 -29 54.5t-41 39.5q-62 26 -81 26q-30 0 -38 -36q-38 -42 -38 -81l-2 -38q-1 -21 2 -36q2 -8 11 -33q7 -19 7 -32t29 -27q5 -14 15 -35q3 -3 40 -17.5t42 -14.5q95 0 95 87z" />
    <glyph glyph-name="ntilde" unicode="&#xf1;" 
d="M390 748q-2 -30 -29 -69q-25 -35 -52 -53q-16 -1 -49 -6q-55 -11 -54 -11q-13 0 -24 6t-27 -8q-46 -39 -57 -39q-6 0 -8 4q-7 14 -7 30q0 40 36 80t69 47q6 1 29 -2h77q11 6 40 28q18 13 28 13q6 0 11 -2q18 -10 17 -18zM504 90q2 -8 2 -15q0 -24 -25 -46
q-24 -18 -47 -35q-11 2 -32 0q-13 -5 -25 -5q-19 0 -42 19.5t-23 38.5q0 5 6 17.5t7 16.5q0 10 2 28v80q0 -6 2 49q1 38 -1 114q-1 16 -25 30l-32 16q-19 1 -45 -12q-19 -12 -39 -24q-26 -15 -26 -72q0 -10 1 -18q1 -3 -5.5 -16t-6.5 -20q0 -5 12 -40q2 -10 -1.5 -30
t-3.5 -28q0 -25 21 -41q8 -6 13.5 -17t5.5 -25q0 -22 -14 -42t-36 -25q-12 -3 -91 0q-10 0 -17 12q-2 7 -9 18q-14 14 -14 29t14 33l5 33v67q0 27 6 51q3 10 -5 42q0 17 -5 51q-1 4 -15 24q-12 17 -12 27q0 4 2 7q5 14 24 35q23 27 40 26q9 5 21 14q10 18 26 18q26 0 40 -31
q11 -24 44 -31l42 15q6 7 30 15t31 13q14 11 34 11q12 0 32.5 -5t27 -5t15.5 -17q11 -20 18 -24q7 -10 19 -35q-1 -19 5 -64q2 -8 -5 -43v-93q0 -68 19 -81q12 -4 35 -10z" />
    <glyph glyph-name="ograve" unicode="&#xf2;" horiz-adv-x="522" 
d="M329 639q-1 -34 -8 -74q-3 -4 -10 -4q-14 0 -29 10.5t-16 22.5q-2 34 -29 71q-33 47 -35 53q2 16 -17 32.5t-19 24.5q0 9 10 19q15 16 64 16q34 0 45.5 -11t30 -78t13.5 -82zM469 171q-8 -7 -19 -24l-17 -28q-18 -25 -51 -61q-37 -38 -55 -48q-19 -1 -57 -4q-1 0 -27 -12
q-4 -2 -16 3q-15 6 -20 6q-12 -6 -36 -9l-15.5 7.5t-20.5 6.5q-135 119 -127 190v110q0 6 25 46t30 45q54 42 85 51q17 4 77 4h74q8 -8 27 -15q28 -11 32 -13q9 -6 22 -16q7 -13 26 -26q36 -24 44 -31q28 -66 28 -120q0 -31 -9 -62zM355 166q-1 21 -14 58q9 16 9 36
q0 33 -21.5 67.5t-52.5 55.5q-15 4 -62 21q-16 6 -26 4q-25 -6 -31 -35q-23 -25 -37 -73q-3 -11 6 -46l12 -40q5 -23 2 -42t-3 -21q2 -8 15 -16q7 -4 14 -9q5 -15 15 -35q7 -8 18 -10q18 -4 21 -5q12 -6 24.5 -12.5t21.5 -4.5q28 5 67 19q25 22 25 68q0 11 -3 20z" />
    <glyph glyph-name="oacute" unicode="&#xf3;" horiz-adv-x="522" 
d="M267 815q2 -9 2 -17q0 -22 -19 -47q-24 -31 -28 -42q-15 -11 -26 -36q-15 -34 -34 -59q-7 -9 -25 -9q-29 0 -33 17t-3 25q4 15 31.5 91t35.5 91q15 29 40 29q19 0 39 -16q17 -14 20 -27zM469 171q-8 -7 -19 -24l-17 -28q-18 -25 -51 -61q-37 -38 -55 -48q-19 -1 -57 -4
q-1 0 -27 -12q-4 -2 -16 3q-15 6 -20 6q-12 -6 -36 -9l-15.5 7.5t-20.5 6.5q-135 119 -127 190v110q0 6 25 46t30 45q54 42 85 51q17 4 77 4h74q8 -8 27 -15q28 -11 32 -13q9 -6 22 -16q7 -13 26 -26q36 -24 44 -31q28 -66 28 -120q0 -31 -9 -62zM355 166q-1 21 -14 58
q9 16 9 36q0 33 -21.5 67.5t-52.5 55.5q-15 4 -62 21q-16 6 -26 4q-25 -6 -31 -35q-23 -25 -37 -73q-3 -11 6 -46l12 -40q5 -23 2 -42t-3 -21q2 -8 15 -16q7 -4 14 -9q5 -15 15 -35q7 -8 18 -10q18 -4 21 -5q12 -6 24.5 -12.5t21.5 -4.5q28 5 67 19q25 22 25 68q0 11 -3 20z
" />
    <glyph glyph-name="ocircumflex" unicode="&#xf4;" horiz-adv-x="522" 
d="M333 562l-17 30q-11 5 -36 54q-24 45 -37 45q-10 0 -49 -69q-43 -76 -49 -82q-23 17 -23 34q0 32 53 114t71 82q13 0 44 -49q27 -42 40 -72q26 -52 26 -71q0 -16 -23 -16zM469 171q-8 -7 -19 -24l-17 -28q-18 -25 -51 -61q-37 -38 -55 -48q-19 -1 -57 -4q-1 0 -27 -12
q-4 -2 -16 3q-15 6 -20 6q-12 -6 -36 -9l-15.5 7.5t-20.5 6.5q-135 119 -127 190v110q0 6 25 46t30 45q54 42 85 51q17 4 77 4h74q8 -8 27 -15q28 -11 32 -13q9 -6 22 -16q7 -13 26 -26q36 -24 44 -31q28 -66 28 -120q0 -31 -9 -62zM355 166q-1 21 -14 58q9 16 9 36
q0 33 -21.5 67.5t-52.5 55.5q-15 4 -62 21q-16 6 -26 4q-25 -6 -31 -35q-23 -25 -37 -73q-3 -11 6 -46l12 -40q5 -23 2 -42t-3 -21q2 -8 15 -16q7 -4 14 -9q5 -15 15 -35q7 -8 18 -10q18 -4 21 -5q12 -6 24.5 -12.5t21.5 -4.5q28 5 67 19q25 22 25 68q0 11 -3 20z" />
    <glyph glyph-name="otilde" unicode="&#xf5;" horiz-adv-x="522" 
d="M390 748q-2 -30 -29 -69q-25 -35 -52 -53q-16 -1 -49 -6q-55 -11 -54 -11q-13 0 -24 6t-27 -8q-46 -39 -57 -39q-6 0 -8 4q-7 14 -7 30q0 40 36 80t69 47q6 1 29 -2h77q11 6 40 28q18 13 28 13q6 0 11 -2q18 -10 17 -18zM469 171q-8 -7 -19 -24l-17 -28q-18 -25 -51 -61
q-37 -38 -55 -48q-19 -1 -57 -4q-1 0 -27 -12q-4 -2 -16 3q-15 6 -20 6q-12 -6 -36 -9l-15.5 7.5t-20.5 6.5q-135 119 -127 190v110q0 6 25 46t30 45q54 42 85 51q17 4 77 4h74q8 -8 27 -15q28 -11 32 -13q9 -6 22 -16q7 -13 26 -26q36 -24 44 -31q28 -66 28 -120
q0 -31 -9 -62zM355 166q-1 21 -14 58q9 16 9 36q0 33 -21.5 67.5t-52.5 55.5q-15 4 -62 21q-16 6 -26 4q-25 -6 -31 -35q-23 -25 -37 -73q-3 -11 6 -46l12 -40q5 -23 2 -42t-3 -21q2 -8 15 -16q7 -4 14 -9q5 -15 15 -35q7 -8 18 -10q18 -4 21 -5q12 -6 24.5 -12.5t21.5 -4.5
q28 5 67 19q25 22 25 68q0 11 -3 20z" />
    <glyph glyph-name="odieresis" unicode="&#xf6;" horiz-adv-x="522" 
d="M362 743q19 -1 19 -28q0 -25 -16 -52q-18 -30 -45 -40q-67 11 -67 53q0 28 31 49t78 18zM219 737q22 -13 22 -36q0 -19 -17 -51q-24 -47 -25 -50q-4 -5 -7 -11q-6 -7 -12 -7q-40 0 -53 59q-3 14 12 39q14 21 27 42q10 19 39 19q8 0 14 -4zM469 171q-8 -7 -19 -24l-17 -28
q-18 -25 -51 -61q-37 -38 -55 -48q-19 -1 -57 -4q-1 0 -27 -12q-4 -2 -16 3q-15 6 -20 6q-12 -6 -36 -9l-15.5 7.5t-20.5 6.5q-135 119 -127 190v110q0 6 25 46t30 45q54 42 85 51q17 4 77 4h74q8 -8 27 -15q28 -11 32 -13q9 -6 22 -16q7 -13 26 -26q36 -24 44 -31
q28 -66 28 -120q0 -31 -9 -62zM355 166q-1 21 -14 58q9 16 9 36q0 33 -21.5 67.5t-52.5 55.5q-15 4 -62 21q-16 6 -26 4q-25 -6 -31 -35q-23 -25 -37 -73q-3 -11 6 -46l12 -40q5 -23 2 -42t-3 -21q2 -8 15 -16q7 -4 14 -9q5 -15 15 -35q7 -8 18 -10q18 -4 21 -5
q12 -6 24.5 -12.5t21.5 -4.5q28 5 67 19q25 22 25 68q0 11 -3 20z" />
    <glyph glyph-name="divide" unicode="&#xf7;" horiz-adv-x="470" 
d="M310 457l-31 -53q6 -21 -21.5 -56.5t-55.5 -35.5q-9 0 -17 4q-6 11 -23 32q-20 10 -40 21q-28 17 -28 36q0 6 2 12q9 20 38 41q9 3 18 16q0 27 14 52q16 29 38 29q9 0 18 -6q84 -47 88 -92zM403 238q0 -18 -18 -36.5t-35 -21.5q-24 3 -72 5q-20 -5 -40 -9q-34 -8 -53 -4
q-6 0 -23 -8t-26 -10q-3 0 -37 15q-8 4 -31 5t-37 11q-22 9 -22 32q0 22 18 38q6 6 17 6q3 0 27.5 -6t41.5 -6q28 7 81 15q19 1 36 -2q21 -3 27 -4q10 0 30.5 4.5t27.5 4.5q43 3 58 -1q30 -7 30 -28zM310 0q-23 -11 -52 -38q-10 -22 -37 -40.5t-43 -19.5q-26 -4 -41 14
q-9 10 -22.5 41t-24.5 43q-2 2 -2 4q0 8 25 27q30 24 33 27q27 33 34 40q21 22 36 26q10 2 35 -10q30 -15 47 -45q14 -26 14 -52q0 -10 -2 -17z" />
    <glyph glyph-name="oslash" unicode="&#xf8;" horiz-adv-x="504" 
d="M457 182q0 -41 -43 -98q-17 -27 -34 -53t-45 -31q-16 2 -49 1q-3 0 -19.5 -5.5t-18.5 -5.5h-96q-15 7 -45 38q-26 27 -36 27q-6 0 -19 -7t-19 -7q-12 0 -20 17q-7 14 -7 28q0 15 6 39q8 9 17 29q4 33 -16 88q-3 11 -4 33q0 25 5 36q11 27 12 41q1 9 7 17q8 2 22.5 28.5
t29.5 38.5q1 0 60 12q9 6 30 18q11 2 32 7l39 21q11 5 23 5q27 0 64 -30q29 -25 59 -50q5 0 17.5 5.5t18.5 5.5q3 0 6 -2q8 -3 16 -21t8 -34q0 -9 -4 -15q-16 -29 -16 -54q0 -11 19 -67v-55zM302 326q-4 21 -24 49q-22 33 -40 33q-16 0 -41 -20l-32 -26q-8 -1 -21 -12
q-13 -23 -13 -34v-51q1 -14 10.5 -26t20.5 -12t19 13q62 -2 121 86zM329 183q-4 8 -3 21q2 15 1 19t-14 8q-8 -5 -34 -44q-24 -34 -56 -44q-21 -4 -21 -21q0 -15 14 -30.5t32 -20.5q8 -3 17 -3q27 0 49 24t22 56q0 18 -7 35z" />
    <glyph glyph-name="ugrave" unicode="&#xf9;" horiz-adv-x="496" 
d="M329 639q-1 -34 -8 -74q-3 -4 -10 -4q-14 0 -29 10.5t-16 22.5q-2 34 -29 71q-33 47 -35 53q2 16 -17 32.5t-19 24.5q0 9 10 19q15 16 64 16q34 0 45.5 -11t30 -78t13.5 -82zM440 22q-22 -33 -68 -33q-41 0 -73 29q-7 7 -18.5 9.5t-24.5 0.5t-21 -8q-17 -12 -49 -18.5
t-49 -19.5q-2 1 -10.5 5t-12.5 4q-30 -1 -49 32q-12 27 -24 53q-1 -3 -2 27q6 11 6 23q0 10 -6 31t-5 32l2 56q2 44 0 49l-18 36q-8 8 -16 17q-15 15 -12 23q8 26 42 49q25 14 51 28q14 9 25 9q13 0 23 -12t19 -24q7 -7 13 -29q3 -12 -7 -33q-13 -25 -14 -34q-9 -83 -2 -148
q3 -21 24 -64q20 -39 62 -39q38 0 61 28q9 11 11 50q1 34 -3 47t-9 27q-3 10 -2 30l3 85q0 10 -14 32.5t-14 32.5q0 16 24 23l51 16q10 3 16 0q14 -9 34 -4q17 3 22 -2q11 -12 11 -36q0 -18 -6 -40l-2 -70q0 3 7 -27q-5 -19 -3 -56.5t-2 -54.5q-3 -13 -3 -22q0 -10 5 -24
q9 -22 13 -38q0 -1 8 -16t8 -23q0 -5 -2 -9z" />
    <glyph glyph-name="uacute" unicode="&#xfa;" horiz-adv-x="496" 
d="M267 815q2 -9 2 -17q0 -22 -19 -47q-24 -31 -28 -42q-15 -11 -26 -36q-15 -34 -34 -59q-7 -9 -25 -9q-29 0 -33 17t-3 25q4 15 31.5 91t35.5 91q15 29 40 29q19 0 39 -16q17 -14 20 -27zM440 22q-22 -33 -68 -33q-41 0 -73 29q-7 7 -18.5 9.5t-24.5 0.5t-21 -8
q-17 -12 -49 -18.5t-49 -19.5q-2 1 -10.5 5t-12.5 4q-30 -1 -49 32q-12 27 -24 53q-1 -3 -2 27q6 11 6 23q0 10 -6 31t-5 32l2 56q2 44 0 49l-18 36q-8 8 -16 17q-15 15 -12 23q8 26 42 49q25 14 51 28q14 9 25 9q13 0 23 -12t19 -24q7 -7 13 -29q3 -12 -7 -33
q-13 -25 -14 -34q-9 -83 -2 -148q3 -21 24 -64q20 -39 62 -39q38 0 61 28q9 11 11 50q1 34 -3 47t-9 27q-3 10 -2 30l3 85q0 10 -14 32.5t-14 32.5q0 16 24 23l51 16q10 3 16 0q14 -9 34 -4q17 3 22 -2q11 -12 11 -36q0 -18 -6 -40l-2 -70q0 3 7 -27q-5 -19 -3 -56.5
t-2 -54.5q-3 -13 -3 -22q0 -10 5 -24q9 -22 13 -38q0 -1 8 -16t8 -23q0 -5 -2 -9z" />
    <glyph glyph-name="ucircumflex" unicode="&#xfb;" horiz-adv-x="496" 
d="M307 562l-17 30q-11 5 -36 54q-24 45 -37 45q-10 0 -49 -69q-43 -76 -49 -82q-23 17 -23 34q0 32 53 114t71 82q13 0 44 -49q27 -42 40 -72q26 -52 26 -71q0 -16 -23 -16zM440 22q-22 -33 -68 -33q-41 0 -73 29q-7 7 -18.5 9.5t-24.5 0.5t-21 -8q-17 -12 -49 -18.5
t-49 -19.5q-2 1 -10.5 5t-12.5 4q-30 -1 -49 32q-12 27 -24 53q-1 -3 -2 27q6 11 6 23q0 10 -6 31t-5 32l2 56q2 44 0 49l-18 36q-8 8 -16 17q-15 15 -12 23q8 26 42 49q25 14 51 28q14 9 25 9q13 0 23 -12t19 -24q7 -7 13 -29q3 -12 -7 -33q-13 -25 -14 -34q-9 -83 -2 -148
q3 -21 24 -64q20 -39 62 -39q38 0 61 28q9 11 11 50q1 34 -3 47t-9 27q-3 10 -2 30l3 85q0 10 -14 32.5t-14 32.5q0 16 24 23l51 16q10 3 16 0q14 -9 34 -4q17 3 22 -2q11 -12 11 -36q0 -18 -6 -40l-2 -70q0 3 7 -27q-5 -19 -3 -56.5t-2 -54.5q-3 -13 -3 -22q0 -10 5 -24
q9 -22 13 -38q0 -1 8 -16t8 -23q0 -5 -2 -9z" />
    <glyph glyph-name="udieresis" unicode="&#xfc;" horiz-adv-x="496" 
d="M362 743q19 -1 19 -28q0 -25 -16 -52q-18 -30 -45 -40q-67 11 -67 53q0 28 31 49t78 18zM219 737q22 -13 22 -36q0 -19 -17 -51q-24 -47 -25 -50q-4 -5 -7 -11q-6 -7 -12 -7q-40 0 -53 59q-3 14 12 39q14 21 27 42q10 19 39 19q8 0 14 -4zM440 22q-22 -33 -68 -33
q-41 0 -73 29q-7 7 -18.5 9.5t-24.5 0.5t-21 -8q-17 -12 -49 -18.5t-49 -19.5q-2 1 -10.5 5t-12.5 4q-30 -1 -49 32q-12 27 -24 53q-1 -3 -2 27q6 11 6 23q0 10 -6 31t-5 32l2 56q2 44 0 49l-18 36q-8 8 -16 17q-15 15 -12 23q8 26 42 49q25 14 51 28q14 9 25 9q13 0 23 -12
t19 -24q7 -7 13 -29q3 -12 -7 -33q-13 -25 -14 -34q-9 -83 -2 -148q3 -21 24 -64q20 -39 62 -39q38 0 61 28q9 11 11 50q1 34 -3 47t-9 27q-3 10 -2 30l3 85q0 10 -14 32.5t-14 32.5q0 16 24 23l51 16q10 3 16 0q14 -9 34 -4q17 3 22 -2q11 -12 11 -36q0 -18 -6 -40l-2 -70
q0 3 7 -27q-5 -19 -3 -56.5t-2 -54.5q-3 -13 -3 -22q0 -10 5 -24q9 -22 13 -38q0 -1 8 -16t8 -23q0 -5 -2 -9z" />
    <glyph glyph-name="yacute" unicode="&#xfd;" horiz-adv-x="489" 
d="M437 385q-51 -34 -74 -143q-8 -8 -25 -29q-5 -15 -22 -41q3 -12 -37 -110q-5 -55 -40 -116q-47 -83 -49 -91q-2 -3 5 -15t5 -18q-1 -5 -13.5 -22t-21.5 -23q-15 -10 -43 -2q-15 -1 -44 0q-4 1 -13.5 9.5t-11.5 15.5q-3 13 3 17q84 54 96 133q6 9 21 28q4 5 1 17
q-3 13 0 18q12 24 12 38q0 13 -12 32q0 18 -20 60q-17 35 -24 43t-25 48.5t-33 55.5q-5 14 -20 36q-57 62 -57 100q0 31 45 37q19 2 37 2q83 0 104 -39q9 -16 9 -34q0 3 -10 -59q-2 -7 38 -57q5 -10 14 -39q4 -14 20 -15q60 78 60 115q0 17 -9 32q-11 23 -11 36q0 23 30 37
q19 2 57 7q3 0 13.5 5.5t17.5 5.5q11 0 19 -14q14 2 23.5 -8.5t9.5 -24.5q0 -26 -25 -28zM327 815q2 -9 2 -17q0 -22 -19 -47q-24 -31 -28 -42q-14 -11 -26 -36q-15 -34 -34 -59q-7 -9 -24 -9q-30 0 -34 17t-2 25q3 15 31 91t35 91q16 29 41 29q19 0 37 -15t21 -28z" />
    <glyph glyph-name="thorn" unicode="&#xfe;" horiz-adv-x="546" 
d="M476 189q-13 -11 -42 -45q-6 -25 -25 -58q-36 -27 -95 -57q-10 0 -29 -4q-6 -3 -14 -3q-1 0 -33 8q-13 3 -24 3q-56 0 -56 -87v-76q0 -20 13 -30q32 -25 46 -40q-11 -28 -19.5 -35t-31.5 -7h-57q-16 0 -38.5 -7t-43.5 -4q-7 1 -20.5 16t-18.5 28q-3 8 12 22q20 17 22 23
q4 18 11 52q1 4 7 18t6 16v392q0 7 -2 21.5t-2 23.5q0 24 13 50q2 2 -4 9t-6 13q0 4 5 9v33q0 6 -15 104q-42 25 -39 39q8 35 52 58q38 16 75 33q3 2 15 1q14 0 20.5 -5t9.5 -22l-2 -47q0 -1 1.5 -3t1.5 -4v-65q0 -2 -3 -10t-3 -12q-7 -40 -7 -96l-7 -17q15 -12 24 -12
q14 0 43.5 17t37.5 18q13 -4 35 -4q6 3 20 8q8 2 28.5 -3t42 -9t32.5 -22q13 -3 30 -31q11 -22 23 -44q20 -33 20 -71q0 4 -9 -85zM379 204v60q0 21 -39 69q-37 45 -55 53q-13 6 -38 6q-41 0 -70 -15q-34 -18 -30 -51l-4 -102q-1 -24 8 -92q8 -9 30 -34q10 -12 55 -12
q28 0 35 11q4 -1 10 -1q24 0 52 28q24 25 33 50q13 37 13 30z" />
    <glyph glyph-name="ydieresis" unicode="&#xff;" horiz-adv-x="489" 
d="M362 743q19 -1 19 -28q0 -25 -16 -52q-18 -30 -45 -40q-67 11 -67 53q0 28 31 49t78 18zM219 737q22 -13 22 -36q0 -19 -17 -51q-24 -47 -25 -50q-4 -5 -7 -11q-6 -7 -12 -7q-40 0 -53 59q-3 14 12 39q14 21 27 42q10 19 39 19q8 0 14 -4zM437 385q-51 -34 -74 -143
q-8 -8 -25 -29q-5 -15 -22 -41q3 -12 -37 -110q-5 -55 -40 -116q-47 -83 -49 -91q-2 -3 5 -15t5 -18q-1 -5 -13.5 -22t-21.5 -23q-15 -10 -43 -2q-15 -1 -44 0q-4 1 -13.5 9.5t-11.5 15.5q-3 13 3 17q84 54 96 133q6 9 21 28q4 5 1 17q-3 13 0 18q12 24 12 38q0 13 -12 32
q0 18 -20 60q-17 35 -24 43t-25 48.5t-33 55.5q-5 14 -20 36q-57 62 -57 100q0 31 45 37q19 2 37 2q83 0 104 -39q9 -16 9 -34q0 3 -10 -59q-2 -7 38 -57q5 -10 14 -39q4 -14 20 -15q60 78 60 115q0 17 -9 32q-11 23 -11 36q0 23 30 37q19 2 57 7q3 0 13.5 5.5t17.5 5.5
q11 0 19 -14q14 2 23.5 -8.5t9.5 -24.5q0 -26 -25 -28z" />
    <glyph glyph-name="dotlessi" unicode="&#x131;" horiz-adv-x="255" 
d="M217 61q8 -18 -6 -36q-7 -8 -17 -12.5t-18 -7.5h-74q-10 0 -26.5 -5.5t-25.5 -5.5q-23 0 -50 28q-3 3 -2 30q62 44 62 106v99q0 48 -40 97q-2 41 34 72q9 -3 24 12q18 20 26 23q20 7 33 -3q30 -24 30 -69q0 -11 -2 -25.5t-2 -17.5v-63q0 -2 3.5 -7t3.5 -7q4 -17 4 -28
q0 -9 -3 -17.5t-3 -12.5v-59q0 -32 13 -44q23 -21 36 -47z" />
    <glyph glyph-name="OE" unicode="&#x152;" horiz-adv-x="971" 
d="M898 125q0 -32 -9 -46q-5 -8 -19 -15.5t-19 -16.5q-22 -41 -41 -53.5t-62 -12.5h-77q-5 0 -27 6.5t-26 6.5h-83q-9 -5 -17 -5q-3 0 -15 6t-16 7q-14 3 -79 3q-7 0 -29 -13q10 -1 -57 -1q-6 -1 -12 -1q-28 0 -69 29q-25 18 -50 37q-17 4 -51 17q-30 15 -75 75
q-39 52 -55 91q-3 42 -7 96q-1 4 -4 14t-3 16q0 52 25 121q23 63 56 110q4 2 59 45q34 27 67 23q22 18 35 23l52 26q14 8 27 16q18 9 53 9q18 0 34 -7h8q9 0 25.5 2.5t24.5 2.5q25 0 76.5 -7.5t77.5 -7.5q19 0 42 5.5t42 5.5q16 0 47.5 2.5t47.5 2.5q14 0 33 -5
q26 -21 26 -37q0 -12 -19 -55q-22 -47 -34 -47q-24 0 -31 31q-16 12 -31 24q-12 7 -42 7q-22 0 -33 16q-11 1 -22 4t-24 3q-18 0 -33 -5q-2 -4 -20 -33q-8 -14 -8 -37q0 -10 12 -27t12 -27t-3.5 -30.5t-3.5 -30.5q0 -34 12.5 -48.5t43.5 -14.5q19 0 43 12q17 -2 24 -6
q11 5 36 13q10 1 28 16t29 15t17.5 -11.5t6.5 -23.5q0 -10 -5.5 -30.5t-5.5 -30.5q0 -8 6 -20.5t6 -19.5q0 -6 -6 -15.5t-11 -9.5q-21 0 -58 22t-44 40q-6 -2 -11 -2q-8 0 -18 6t-17 6q-9 0 -23 -9q-41 1 -45 -13l-6 -50q-1 -4 -8.5 -15t-7.5 -17q0 -8 15 -25q0 -5 -2 -26.5
t-2 -24.5q0 -8 -7.5 -21t-7.5 -31q0 -42 59 -96q26 0 47 11q12 0 22 -5t21 -5q22 0 32 12q7 7 15 30q15 6 62 44q40 33 59 33q25 -20 25 -53zM444 338v75q0 15 -7.5 39t-6.5 37l4 95q-2 61 -35 61q-6 0 -18.5 -2t-17.5 -3l-71 -4q-43 -2 -66 -25q-11 -12 -38 -61
q-43 -81 -43 -128q0 -15 7.5 -41.5t7.5 -40.5v-63q8 -26 25 -71q9 -8 24 -27q11 -29 21 -57q23 -41 78 -41q4 0 20 3q10 2 19 -1q58 35 73 73q10 26 10 103q0 14 7 40.5t7 38.5z" />
    <glyph glyph-name="oe" unicode="&#x153;" horiz-adv-x="787" 
d="M736 373q0 -49 -80 -75q-23 -19 -38 -24l-14 1q-31 0 -46 -8q-18 -14 -37 -28q-11 -1 -23 -2q-8 -1 -21 -13q-1 -25 -7 -50q5 -33 35.5 -53.5t65.5 -20.5q21 0 50 11h62l19 -18q-19 -65 -119 -80q-7 -1 -23.5 -8.5t-25.5 -7.5q-43 0 -79 21q-39 21 -57 58l-33 -36
q-22 -22 -38 -30q-32 -2 -43 -3q-22 -3 -41 -13q-23 7 -36 9q-20 -9 -32 -9q-5 0 -19 7t-21 7q-128 113 -128 184l1 116q43 77 72 104q45 43 115 43l104 -1q9 -8 46 -23q33 -13 40 -29q22 25 69 50q65 34 75 41q15 -2 54 -12q34 -9 54 -9q11 0 33 -4q66 -51 66 -95zM557 342
q0 19 -17.5 37t-36.5 18l-14 -3l-14 -13q-5 -19 -15 -54q9 -25 13 -48l10 -1q12 0 43 26t31 38zM358 146q0 11 -6 38l-5 9q-5 35 -3 36v65q-15 46 -59 80.5t-91 34.5q-29 0 -37 -36q-38 -42 -38 -83q0 -22 11 -54.5t11 -53.5q0 -15 -4 -31q3 -13 29 -25q7 -11 15 -35
q3 -3 40 -17.5t41 -14.5q96 0 96 87z" />
    <glyph glyph-name="Scaron" unicode="&#x160;" horiz-adv-x="643" 
d="M452 939q8 -16 -5 -36.5t-11 -28.5q-18 -26 -54 -61q-43 -43 -62 -43q-25 0 -77 61.5t-52 91.5q0 15 21 25q11 -7 58 -54q41 -41 52 -41q14 0 40 32q18 23 21 26q14 15 27 18zM538 575q-14 -30 -33 -30q-17 0 -46 28q-34 32 -45 37q-23 43 -77 43q-6 0 -11 -1h-53
q-6 2 -11 2q-17 0 -33 -26q-10 -22 -21 -43q-15 -24 -15 -45q0 -38 53 -70q34 -19 69 -38q11 1 31 -4q31 -20 122 -69q6 -3 22 -31q0 -11 4 -30q3 -7 11.5 -22.5t8.5 -17.5v-100q0 -44 -38 -93q-34 -44 -68 -57q-20 -8 -60 -19q-21 -3 -63 -12q-4 -1 -11 -1q-18 0 -55 6.5
t-36 6.5h-73q-11 3 -34 9q-16 3 -23 5q-15 6 -21 18q-20 37 -20.5 54.5t-2.5 51.5q-1 6 -10 24q-8 15 -5 22q18 52 38 52q16 0 36.5 -16.5t32.5 -37.5q18 -15 50 -49q23 -29 43 -33q21 1 59 -2l16 -6q13 -5 22 -5q6 0 10 2q29 10 75 31q14 11 31 46q4 8 4 14t-5 16t-6 14
q-8 26 -28 52q-15 19 -31 37q-13 -1 -34 6q-25 9 -29 10q-11 -3 -31 1q-19 12 -47 42q-24 26 -40 33q-46 19 -79 77q-28 46 -36 95q-1 4 9.5 16.5t11.5 14.5q0 10 7 26q41 52 74 65q12 4 36 24.5t35 22.5q23 -1 67 -1q14 3 27 5q27 5 43 5q9 0 19.5 -3t14.5 -3q22 1 66 -6
q13 -5 35 -17q27 -16 28 -23q2 -17 8 -41l8 -20q7 -17 7 -28q0 -8 -3 -14z" />
    <glyph glyph-name="scaron" unicode="&#x161;" horiz-adv-x="386" 
d="M308 769q9 -16 -4.5 -36.5t-11.5 -28.5q-18 -26 -54 -61q-43 -43 -62 -43q-25 0 -77 61.5t-52 91.5q0 15 22 25q10 -7 57 -53q41 -41 52 -41q14 0 40 31q19 23 21 26q14 15 27 18zM316 172q6 -51 -8 -92q-9 -27 -32 -38q-49 -23 -66 -35q-38 1 -75 -17q-17 -8 -62 -5
q-15 9 -39 30q-41 51 -41 77q0 22 23 36q4 3 25 1q47 -2 67 -23q5 -34 37 -34q19 0 35 20q5 7 5 15q0 24 -41 60q-30 27 -71 72q-25 27 -31 45q-1 2 4 25q5 27 6 37q2 51 49 88q40 31 83 34q24 1 60.5 -17.5t58.5 -41.5q3 -14 10 -44q6 -24 -3 -48q-6 -19 -20 -22
q-26 -6 -46 27q-13 27 -27 54q-10 18 -42 18q-43 0 -43 -29q0 -41 65 -98q10 -2 28 -8q21 -10 32 -17q23 -14 37 -32q10 -13 22 -38z" />
    <glyph glyph-name="Ydieresis" unicode="&#x178;" horiz-adv-x="585" 
d="M382 922q19 -1 19 -28q0 -25 -16 -52q-18 -30 -45 -41q-67 11 -67 53q0 28 31.5 49.5t77.5 18.5zM239 916q22 -13 22 -36q0 -19 -17 -52q-24 -46 -25 -49q-3 -6 -7.5 -12t-11.5 -6q-40 -1 -53 59q-3 14 12 39q14 21 27 42q11 18 39 18q8 0 14 -3zM516 678
q-13 -23 -54 -31q-37 -7 -42 -32l-12 -55q-5 -21 -17 -37l-32 -36q-27 -35 -27 -59q0 -2 -8 -16t-10 -21q-7 -20 -10 -62t-7 -85q0 -14 7 -40q3 -8 -1 -43q-3 -33 5 -51q6 -13 34 -26q34 -15 40 -21q19 -16 19 -44q0 -7 -2 -11q-9 -11 -40 -5q-16 -4 -49 -12h-183
q-7 0 -18.5 -2t-16.5 -2q-21 0 -38 25q-5 7 3 24q11 25 48.5 45t44.5 30q9 14 9 41t7 37q-3 11 -3 25q0 6 3 39q2 26 0 45q-5 11 -14 32q-3 23 -17 66q-11 31 -23 63q-15 40 -41 65q-4 18 -20 49q-17 22 -30 35q-23 24 -35 24q-27 2 -27 30q0 24 13 48q5 8 16 9.5t21 2.5
h128q27 0 52 -23q9 -9 9 -18q0 -8 -8 -19q-11 -17 -12 -20t-1 -10q0 -43 20 -54q-8 -4 -5 -10q12 -27 34 -77q3 -12 6 -23q6 -15 17 -17q-2 0 20 5q83 91 83 170q0 14 -3 27q-25 26 -25 43q0 35 97 35q22 0 52 -2q9 -1 21.5 -8t10.5 -13q12 -1 14 -12q2 -10 -3 -18z" />
    <glyph glyph-name="Zcaron" unicode="&#x17d;" horiz-adv-x="861" 
d="M543 939q9 -16 -4 -36.5t-12 -28.5q-18 -26 -53 -61q-44 -43 -63 -43q-25 0 -76.5 61.5t-51.5 91.5q0 15 21 25q10 -7 58 -54q41 -41 51 -41q14 0 40 32q19 23 21 26q15 15 27 18zM800 671q0 -33 -49 -73q-62 -51 -87 -102q-2 -5 -16 -12.5t-18 -11.5q-45 -41 -102 -102
q-6 -6 -25 -19q-14 -9 -17 -18q-8 -28 -22 -44q-1 -2 -31 -30q-9 -2 -18 -5q-17 -5 -22 -15q-2 -5 -19 -52q-3 -8 -18 -17q-19 -12 -21 -14q-11 -15 -40 -50q-2 -2 -2 -5q0 -8 27 -20q22 -10 45 -10.5t33 -4.5q59 -4 75 -3l134 16q1 0 14.5 7.5t20.5 6.5q47 54 76 68
q2 1 45 -2q3 0 16 -9q5 -7 0 -15q-15 -18 -38 -56q-15 -35 -21 -47q-13 -22 -29 -27q-20 -1 -62 -4q-3 -1 -17.5 -8t-18.5 -4q-27 12 -44 12q-10 0 -52 -12q-3 -1 -24 6q-24 9 -36 9h-72q-3 0 -12 9h-52q-4 0 -23 4.5t-34 4.5h-106q-20 4 -51 -23.5t-39 -27.5
q-14 0 -28.5 20t-17.5 36q0 21 -4 62q0 2 -5 16q-4 10 -2 15q2 18 11 51q10 23 42 23q21 0 40 -9q28 -11 30 -10q11 7 32 19q25 11 45.5 30.5t65.5 58.5q9 4 24 14q8 6 16 21t14 21q35 37 42 46q14 20 16 46q28 30 56 59q36 41 41 66q1 4 21.5 14.5t23.5 21.5q8 35 -14 38
q-19 -13 -41 -13q-16 0 -53 12t-62 12q-13 0 -26 -3q-24 -12 -76 -32q-47 -12 -95 -29q-13 -5 -39.5 -35t-42.5 -30q-12 0 -25 13q-3 4 0 17q2 13 9.5 20t21.5 28q1 9 1 27q0 6 13 18t15 17t3 27q0 15 14 22q21 -2 41 12q28 19 32 20q8 3 18 3q13 0 47 -10q31 -10 50 -9
q9 1 25 -7l16 -8h56q-2 0 23 -5q10 -2 17 -2q8 0 15.5 3.5t12.5 3.5h190q6 -2 14 -2q13 0 35 6.5t28 6.5q9 1 35.5 -8t28.5 -18t2 -16z" />
    <glyph glyph-name="zcaron" unicode="&#x17e;" horiz-adv-x="455" 
d="M334 769q9 -16 -4 -36.5t-12 -28.5q-18 -26 -54 -61q-43 -43 -62 -43q-25 0 -77 61.5t-52 91.5q0 15 22 25q10 -7 57 -53q42 -41 52 -41q14 0 40 31q19 23 21 26q14 15 27 18zM357 130q14 -13 14 -31q0 -27 -31 -60q-27 -28 -55 -42q-3 -1 -12 1q-12 2 -11 2h-77
q-29 0 -36 4.5t-21 5.5q2 -1 -27 -10h-28h-53q-22 19 -22 42q0 9 5 27q62 55 92 92q15 18 38 63q28 53 30 56t16 15q11 8 10 15q-3 28 -46 28h-20q-12 -1 -17 -1q-15 6 -45 13q-9 -1 -26 -2q-13 11 -13 28q0 25 24.5 48.5t51.5 23.5q16 0 28 -10q3 -3 25 8q10 5 32 0
q12 -3 25 -3q15 0 46 4t47 4q29 0 50 -10q-6 -20 -21 -57q-10 -9 -35 -38q-3 -9 -10 -26q-15 -14 -41 -46q-27 -42 -54 -83q-29 -47 -25 -63q33 -6 50 -13q11 -5 25 -5h60q4 -2 8 -2q9 0 23.5 12t19.5 12q3 0 6 -2z" />
    <glyph glyph-name="florin" unicode="&#x192;" horiz-adv-x="340" 
d="M321 689q2 -4 -0.5 -12.5t-4.5 -15.5q-4 -36 -34 -36q-16 0 -52 16q-13 6 -25 6q-17 0 -48 -17q0 -11 -5.5 -51.5t-5.5 -60.5q0 -46 25 -48q20 -1 58 -8q9 5 17 5q19 0 30 -22.5t7 -40.5q-7 -13 -23 -13q-7 0 -25 3.5t-28 3.5q-22 0 -41.5 -20.5t-19.5 -44.5q0 -7 2 -14
v-145q0 -23 12 -57q-12 -30 -5 -39t-1 -27.5t3 -55.5l-2 -6q-1 -38 -11 -46l-16 -21q-16 -25 -34.5 -52t-38.5 -33q-16 -7 -33 -13q-26 -11 -39 -10q-61 0 -88 43q-2 4 0.5 12.5t4.5 15.5q4 36 34 36q16 0 52 -16q13 -6 25 -6q17 0 48 17q0 11 5 52q2 14 -9 55q-2 68 -2 87
q0 8 -3 22.5t-3 16.5q2 6 4.5 17.5t2.5 42.5v71q0 97 -22 98q-3 7 -8 21q-3 7 -3 15q0 16 16 45q18 33 22 48q0 2 2 50q1 38 11 46l16 21q16 25 34.5 52t38.5 33q16 7 33 13q26 11 39 10q61 0 88 -43z" />
    <glyph glyph-name="circumflex" unicode="&#x2c6;" horiz-adv-x="366" 
d="M268 562l-17 30q-11 5 -37 54q-23 45 -37 45q-9 0 -48 -69q-43 -76 -50 -82q-22 17 -22 34q0 32 53 114t71 82q12 0 44 -49q27 -42 40 -72q25 -52 25 -71q0 -16 -22 -16z" />
    <glyph glyph-name="tilde" unicode="&#x2dc;" horiz-adv-x="479" 
d="M390 748q-2 -30 -29 -69q-25 -35 -52 -53q-16 -1 -49 -6q-55 -11 -54 -11q-13 0 -24 6t-27 -8q-46 -39 -57 -39q-6 0 -8 4q-7 14 -7 30q0 40 36 80t69 47q6 1 29 -2h77q11 6 40 28q18 13 28 13q6 0 11 -2q18 -10 17 -18z" />
    <glyph glyph-name="endash" unicode="&#x2013;" 
d="M461 272q24 -9 24 -25q0 -19 -24.5 -38.5t-46.5 -22.5q-29 4 -88 7q-3 0 -38.5 -6t-56.5 -6q-12 0 -21 2q-6 1 -26 -7q-23 -9 -35 -10q-3 0 -43 17q-10 4 -40 6q-26 1 -43 12q-24 10 -24 30q0 25 26 42q9 7 22 6q24 -7 83 -14q5 0 44.5 6t56.5 7q23 0 43 -3q26 -5 33 -5
q13 -1 38.5 3t33.5 5q62 1 82 -6z" />
    <glyph glyph-name="emdash" unicode="&#x2014;" horiz-adv-x="719" 
d="M653 239q0 -18 -32.5 -38t-61.5 -22q-39 4 -119 7q-2 0 -49.5 -6.5t-76.5 -6.5q-16 0 -27 2q-9 1 -36 -7q-30 -8 -47 -9q-3 -1 -57 16q-13 4 -53 6q-35 2 -57 13q-32 9 -32 30q0 24 34 42q12 6 30 5q31 -6 110 -14q7 0 59.5 6t75.5 7q30 1 58 -3q34 -4 44 -5q17 0 50.5 4
t45.5 4q82 2 111.5 -6t29.5 -25z" />
    <glyph glyph-name="quoteleft" unicode="&#x2018;" horiz-adv-x="463" 
d="M295 339q-6 -2 -38 -21q-27 -15 -38 -15q-3 0 -5 2q0 -1 -9 -7q-1 -1 -26 -9h-50q-56 19 -88 86q-26 52 -30 111q1 0 18 53q1 15 10 58q9 9 24 26q18 26 48 39q28 8 55 17q17 -16 35.5 -47.5t15.5 -39.5q-2 -5 -11.5 -7.5t-11.5 -5t-37 -34.5q-24 -22 -24 -39q0 -9 5 -17
q14 -23 43 -23q9 0 25.5 2.5t23.5 2.5q30 0 51 -33.5t21 -66.5q0 -19 -7 -32z" />
    <glyph glyph-name="quoteright" unicode="&#x2019;" horiz-adv-x="493" 
d="M435 449q-1 1 -18 -52q0 -16 -9 -58q-9 -9 -24 -27q-18 -26 -47 -36.5t-56 -18.5q-17 15 -36 46.5t-15 40.5q2 4 11.5 7t12.5 7q1 0 36 33q24 22 24 39q0 8 -5 16q-14 23 -44 23q-8 0 -24.5 -2t-23.5 -2q-30 0 -53 35q-19 31 -19 64q0 19 6 33q6 2 39 20q27 15 38 15
q3 0 5 -1l9 6q1 1 26 10h49q56 -20 89 -86q26 -52 29 -112z" />
    <glyph glyph-name="quotesinglbase" unicode="&#x201a;" horiz-adv-x="493" 
d="M439 208q-1 1 -18 -52q0 -16 -10 -58q-9 -9 -23 -27q-18 -26 -49 -38q-27 -9 -55 -18q-16 16 -35 47.5t-15 40.5q2 4 11.5 6.5t12.5 6.5q1 1 36 34q24 22 24 39q0 8 -5 16q-14 23 -44 23q-8 0 -24.5 -2t-23.5 -2q-31 0 -53 35q-20 31 -20 64q0 19 7 33q6 2 39 20
q27 15 37 15q4 0 6 -1l8 6q2 1 26 9h50q56 -19 89 -85q26 -52 29 -112z" />
    <glyph glyph-name="quotedblleft" unicode="&#x201c;" horiz-adv-x="795" 
d="M627 339q-5 -2 -38 -21q-27 -15 -38 -15q-3 0 -5 2q0 -1 -9 -7q-1 -1 -26 -9h-49q-56 19 -89 86q-26 52 -29 111l18 53q0 15 9 58q9 9 24 26q18 26 48 39q28 8 55 17q17 -16 35.5 -47.5t15.5 -39.5q-2 -5 -11.5 -7.5t-11.5 -5t-37 -34.5q-24 -22 -24 -39q0 -9 5 -17
q14 -23 44 -23q8 0 24.5 2.5t23.5 2.5q30 0 53 -35q19 -32 19 -65q0 -19 -7 -32zM311 568q-18 3 -58.5 -15.5t-42.5 -50.5q-2 -24 41 -65q6 -9 12 -17q12 -15 26 -15q4 -8 -4.5 -26.5t-17.5 -29.5q-24 -28 -32 -37q-20 -20 -36 -28q-23 3 -75 14q-13 15 -44 49q-5 6 -33 28
q-18 16 -23 29q0 9 -3 26q-16 17 -16 34q0 10 6 19q7 6 18 21q16 53 42 65q19 9 28.5 33.5t18.5 30.5q5 3 21 3q13 0 32.5 12t29.5 14q6 1 18 -2.5t17 -3.5q6 0 10 3q16 9 29 9q21 0 32 -20.5t11 -46.5q0 -21 -7 -33z" />
    <glyph glyph-name="quotedblright" unicode="&#x201d;" horiz-adv-x="845" 
d="M750 432q-16 -53 -42 -65q-19 -10 -28.5 -34t-18.5 -30q-5 -3 -19.5 -3t-34 -12.5t-29.5 -14.5q-6 0 -18 3.5t-17 3.5q-6 0 -10 -3q-16 -10 -29 -10q-21 0 -33 22q-10 19 -10 45q0 21 7 33q18 -2 60 17q39 18 41 50q2 24 -41 64l-12 18q-12 15 -26 14q-4 9 5 29
q8 17 17 27q23 28 32 37q20 21 36 28q23 -2 75 -14q13 -14 44 -49q5 -5 33 -28q18 -15 23 -29q0 -8 2 -26q17 -16 17 -33q0 -10 -7 -18t-17 -22zM435 449q-1 1 -18 -52q0 -16 -9 -58q-9 -9 -24 -27q-18 -26 -47 -36.5t-56 -18.5q-17 15 -36 46.5t-15 40.5q2 4 11.5 7t12.5 7
q1 0 36 33q24 22 24 39q0 8 -5 16q-14 23 -44 23q-8 0 -24.5 -2t-23.5 -2q-30 0 -53 35q-19 31 -19 64q0 19 6 33q6 2 39 20q27 15 38 15q3 0 5 -1l9 6q1 1 26 10h49q56 -20 89 -86q26 -52 29 -112z" />
    <glyph glyph-name="quotedblbase" unicode="&#x201e;" horiz-adv-x="845" 
d="M737 187q-16 -53 -42 -65q-20 -10 -29 -34t-19 -30q-4 -3 -21 -3q-12 0 -32 -12t-30 -14q-5 -1 -17 2.5t-18 3.5q-5 0 -10 -3q-15 -10 -29 -10q-20 0 -31.5 21t-11.5 47q0 21 8 33q17 -3 60 17q38 17 41 49q1 24 -41 65q-6 8 -12 17q-12 15 -27 15q-3 8 6 28q7 17 17 28
q23 28 32 37q20 20 36 28q23 -3 74 -14q13 -15 45 -50q5 -5 32 -28q19 -15 24 -28q0 -9 2 -27q17 -16 17 -33q0 -10 -7 -17.5t-17 -22.5zM422 205q-1 0 -18 -53q0 -16 -10 -58q-9 -9 -24 -26q-17 -26 -48 -39q-27 -9 -55 -17q-17 15 -35.5 47t-15.5 40q2 5 12 7.5t13 6.5
q0 1 35 33q24 22 24 39q0 9 -5 17q-14 23 -43 23q-9 0 -25 -2.5t-23 -2.5q-31 0 -53 35q-20 32 -20 65q0 19 7 32q6 2 38 20q27 16 38 16q3 0 6 -2q-1 0 8 7q2 1 26 9h50q56 -19 89 -86q25 -52 29 -111z" />
    <glyph glyph-name="dagger" unicode="&#x2020;" horiz-adv-x="476" 
d="M429 454q0 -33 -32 -49q-28 4 -84 15q-4 1 -20 6q-12 5 -20 5q-18 0 -31.5 -20t-13.5 -38q0 -15 8 -36q12 -34 13 -35l-1 -14q0 -9 3 -24t3 -23q0 -10 -5.5 -28t-6.5 -27q-9 -17 -9 -58q0 -14 -2.5 -45.5t-2.5 -49.5q0 -7 -5.5 -20t-6.5 -18q3 -9 2 -15v-8
q-10 -15 -22 -15q-29 0 -29 50q0 23 -16 75q2 14 2 25q0 15 -4.5 77.5t-5.5 65.5t-6 10.5t-5 12.5q40 92 40 111q0 17 -20 32t-37 15q-8 0 -101 -19q-23 22 -23 49q0 32 32 52l10 1q19 1 50 -12t45 -13q19 0 48 29q1 5 1 12q0 20 -11.5 56t-11.5 55t15 45q5 1 23 7
q14 5 24 5q48 0 48 -61q0 -20 -17 -56.5t-17 -48.5q0 -18 18 -30q11 -17 25 -17q13 0 47.5 15t57.5 14l12 -1q14 -11 28 -23q11 -11 11 -36z" />
    <glyph glyph-name="daggerdbl" unicode="&#x2021;" horiz-adv-x="476" 
d="M429 454q0 -33 -32 -49q-28 4 -84 15q-4 1 -20 6q-12 5 -20 5q-18 0 -31.5 -20t-13.5 -38q0 -15 8 -36q12 -34 13 -35l-1 -14q0 -9 3 -24t3 -23q0 -10 8 -58q-8 -72 -8 -82q0 -8 -3 -23t-3 -24l1 -14q-1 -1 -13 -35q-8 -21 -8 -36q0 -18 13.5 -38t31.5 -20q8 0 20 5
q16 5 20 6q56 11 84 15q32 -16 32 -49q0 -25 -11 -36q-14 -12 -28 -23l-12 -1q-23 -1 -57.5 14t-47.5 15q-14 0 -25 -17q-18 -12 -18 -30q0 -12 17 -48.5t17 -56.5q0 -61 -48 -61q-10 0 -24 5q-18 6 -23 7q-15 26 -15 45t11.5 55t11.5 56q0 7 -1 12q-29 29 -48 29
q-14 0 -45 -13t-50 -12l-10 1q-32 20 -32 52q0 27 23 49q93 -19 101 -19q17 0 37 15t20 32q0 19 -40 111q0 5 5 12.5t6 10.5t-12 72q1 7 1 14q0 6 -1 13q13 56 27 115t14 78q0 17 -20 32t-37 15q-8 0 -101 -19q-23 22 -23 49q0 32 32 52l10 1q19 1 50 -12t45 -13q19 0 48 29
q1 5 1 12q0 20 -11.5 56t-11.5 55t15 45q5 1 23 7q14 5 24 5q48 0 48 -61q0 -20 -17 -56.5t-17 -48.5q0 -18 18 -30q11 -17 25 -17q13 0 47.5 15t57.5 14l12 -1q14 -11 28 -23q11 -11 11 -36z" />
    <glyph glyph-name="bullet" unicode="&#x2022;" horiz-adv-x="479" 
d="M431 307q2 -2 -4 -20q-7 -21 -7 -28q0 -3 1 -6q17 -34 17 -59q0 -18 -9.5 -35.5t-18.5 -33.5q-11 -20 -58 -52t-82 -44q-15 -7 -36 -7q-20 0 -36 8q-34 9 -68 19q-60 19 -86 46q-10 11 -22 52q-8 25 -15 50q-2 3 -2 9q0 8 5 33t4 37q-2 44 12.5 61t85.5 56q43 24 76 28
q16 2 31 2q109 0 212 -116z" />
    <glyph glyph-name="ellipsis" unicode="&#x2026;" horiz-adv-x="901" 
d="M717 4q-13 -2 -36 -3q-13 3 -42 41q-9 10 -26 27q-9 10 -9 31q0 30 11 50q4 7 16 7h15q13 8 38 40q21 27 32 27q6 0 12 -8q20 -12 72 -96q19 -31 19 -32q0 -20 -39.5 -54t-62.5 -30zM488 170q8 -14 8 -30q0 -22 -19 -58q-22 -42 -25 -52q-1 -4 -13 -10.5t-17 -3.5
q-38 0 -73 34.5t-31 70.5q2 26 20 57q22 37 54 51q4 2 8 2q11 0 30.5 -18.5t31.5 -15.5q8 2 26 -27zM234 135q0 -2 -19 -33q-35 -56 -43 -67q-14 -20 -29 -29q-6 -8 -13 -8q-10 0 -32 27q-24 32 -37 40h-15q-12 0 -16 7q-12 20 -12 50q0 21 9.5 30t25.5 28.5t19 23.5
q13 15 24 17q12 -3 36 -3q23 5 62.5 -29.5t39.5 -53.5z" />
    <glyph glyph-name="perthousand" unicode="&#x2030;" horiz-adv-x="1203" 
d="M1112 120q1 -16 5 -41.5t4 -36.5q0 -28 -24 -42q-1 1 -3 1q-7 0 -28 -12q-24 -14 -31 -17q-32 -8 -96 -25q-26 8 -32 6q-16 -6 -34 -6q-30 0 -55 17q-12 8 -20 58q-3 16 -12 35q-9 16 -9 24q0 5 3 11t24.5 27.5t32.5 22.5q6 7 20 20q29 21 37 33q3 4 17 8q22 3 64 14
q8 6 29 15q16 3 43 -17q22 -16 34 -31q1 -9 7 -28q11 -11 24 -36zM733 119q1 -16 5.5 -41.5t4.5 -35.5q0 -28 -25 -42q-1 1 -3 1q-6 0 -27 -12q-25 -15 -32 -17q-32 -8 -96 -26q-25 9 -32 7q-15 -7 -33 -7q-30 0 -56 17q-12 9 -20 59q-2 15 -11 33t-9 25q0 5 2.5 11.5t24 28
t32.5 22.5q6 7 20 19q29 22 38 33q3 4 16 8q23 4 64 14q8 7 29 16q16 3 43 -17q22 -16 34 -31q1 -10 7 -28q12 -11 24 -37zM452 435q-5 -11 -12 -33q-3 -23 -5 -45q-4 -30 -12 -47q-15 -32 -41 -89q0 -22 -7 -68q-17 -37 -38 -102q-11 -14 -25 -43q-2 -12 -2 -43
q1 -27 -4 -39.5t-17 -13.5q-28 -5 -36 13q-6 10 -6 22q0 30 40 73q2 10 9 27q14 21 16 35v61q0 7 12 17.5t13 14.5q1 18 4 48q1 7 16 22t15 25q0 82 31 164q-2 8 -2 26q4 17 16 28q5 5 15 7q12 3 19 -3q1 -60 1 -57zM308 388q1 -15 5 -41t4 -36q0 -28 -24 -42q-1 1 -3 1
q-7 0 -28 -12q-24 -14 -31 -17q-32 -8 -96 -26q-25 9 -32 7q-16 -7 -33 -7q-31 0 -56 17q-12 9 -20 59q-3 15 -11.5 33t-8.5 25q0 5 2.5 11.5t24 28t32.5 22.5q6 7 20 19q29 22 37 33q3 4 17 8q22 4 64 14q8 7 29 16q16 3 43 -17q22 -16 34 -31q1 -10 7 -28q11 -11 24 -37z
M991 23q12 11 12 40q0 36 -12 51q-22 29 -62 29q-13 0 -23 -5q-19 -11 -19 -43q0 -47 41 -64q11 -7 28 -15q16 -6 35 7zM613 23q11 10 11 40q0 35 -12 51q-21 29 -61 29q-14 0 -23 -6q-19 -11 -19 -42q0 -48 40 -65l28 -14q16 -6 36 7zM187 292q12 10 12 40q0 35 -12 51
q-22 29 -62 29q-13 0 -23 -6q-19 -11 -19 -42q0 -48 41 -65l28 -14q16 -6 35 7z" />
    <glyph glyph-name="guilsinglleft" unicode="&#x2039;" horiz-adv-x="327" 
d="M244 355q0 -22 -49.5 -63t-70.5 -46q1 -5 -3.5 -18t-4.5 -22q0 -23 26 -48q50 -48 50 -58q-1 -15 23.5 -25.5t24.5 -17.5q0 -10 -7 -22q-10 -14 -25 -14q-13 0 -28.5 12t-78.5 72.5t-72 72.5q-19 26 -19 42q0 8 11.5 28.5t11.5 42.5q0 8 37 44q21 20 43 40
q9 11 36.5 29.5t38.5 18.5q17 0 36.5 -25.5t19.5 -42.5z" />
    <glyph glyph-name="guilsinglright" unicode="&#x203a;" horiz-adv-x="320" 
d="M299 178q-9 -12 -71.5 -72.5t-78.5 -72.5t-29 -12q-14 0 -23 13t-9 23q0 7 24.5 17.5t24.5 25.5q0 10 49 58q27 25 27 48q0 9 -4.5 22t-3.5 18q-22 5 -69 45q-52 42 -52 64q0 17 20 42.5t37 25.5q10 0 38 -18.5t37 -29.5q21 -20 43 -40q37 -36 37 -44q0 -22 11 -42.5
t11 -28.5q0 -16 -19 -42z" />
    <glyph glyph-name="Euro" unicode="&#x20ac;" horiz-adv-x="608" 
d="M534 636q14 -20 14 -45q0 -30 -21 -75l-2 -22q-2 -20 -11 -27q2 0 -13 -1q-9 -1 -12 7q-12 33 -25.5 64.5t-33.5 43.5q-6 13 -22 28q-14 3 -32 8q-22 11 -41 11q-18 0 -40 -11q-11 2 -63 -72l-22 -26q-16 -22 -17 -39q-5 -6 -11 -11q-8 -9 -8 -12l1 -30q60 -5 80 -4
q20 0 35 5.5t26.5 5t36 3t33.5 3.5q58 1 76 -5t18 -17q0 -16 -29 -34t-52 -21q-27 4 -82 6q-36 -1 -105 10l-43 -6q0 -2 -6.5 -15t-6.5 -23q0 -12 9 -25q24 3 37 4q22 0 40 -3q24 -3 30 -4q12 0 37 3t33 4q59 1 76.5 -5t17.5 -17q0 -16 -28.5 -34t-51.5 -21q-27 4 -83 6
l-33 -5q-28 -5 -49 -4q1 -3 -3 -9.5t-4 -10.5t3 -7q3 -12 8 -29q59 -97 102 -97q13 0 27 8q9 4 29 11q14 3 29 6.5t31 32.5q15 10 42 29q21 16 28 3q4 -8 4 -17q0 -16 -16 -39q-18 -26 -69 -72q-25 -22 -81 -32q-43 -9 -40 -9q-15 0 -26 7q-16 2 -42 8q-29 12 -43 23
q-10 8 -47 30q-26 16 -32 27q-7 22 -30 68q-4 15 -14 40q-6 10 -8 19q-3 1 -9 5q-38 14 -38 56q0 18 13 25q10 5 23 5q6 5 18 9v21q-3 -1 -6 -1q-5 0 -23 12q-14 6 -14 19q0 15 15 34t30 27q5 3 14 4l2 10q6 7 16 23q16 35 41 70q12 8 30 30q1 7 5 23q11 7 33 23q8 9 23 23
q14 7 38 14.5t27 9.5q12 7 19 7q3 0 8.5 -3t11.5 -1q3 1 16.5 8.5t18.5 5.5q9 4 24 4q6 -5 13 -10q11 -9 18 -9h40q10 2 20 2q45 0 68 -34z" />
    <glyph glyph-name="trademark" unicode="&#x2122;" horiz-adv-x="848" 
d="M836 336q1 -18 -65 -19q-102 -1 -39 -2q-32 1 -33 9q0 3 4 20t6 20q-2 21 13 49t14 41q-1 18 -2 22q-2 9 -10 19q-6 2 -11 2q-13 0 -28 -26q-17 -32 -31 -41q-3 -24 -13 -49q-14 -35 -31 -35t-45 46t-29.5 66t-21.5 50l-11 5q-6 -13 -18 -23q-10 -57 -8 -80
q1 -21 22.5 -44.5t21.5 -31.5q1 -15 -21 -18q-30 -4 -33 -5q-15 3 -37 2l-37 -2q-5 10 -11 23q-1 8 21 62t22 96q0 21 -5 42q1 2 6.5 43t4.5 43q0 9 -23 24.5t-24 33.5q-2 29 46 29q19 0 22 -2l23 10q8 -4 53 -6q36 -1 37 -14q0 -10 -16.5 -30t-15.5 -34q1 -19 20.5 -49.5
t23.5 -47.5q1 -6 15.5 -26.5t18.5 -20.5q18 1 28 6q7 19 13.5 38t20.5 34q8 9 22 33.5t14 33.5q-1 4 -15 18.5t-15 27.5q-1 12 7.5 21.5t20.5 9.5l83 1q11 0 23 -11t12 -22q2 -16 -39 -40q8 -21 17 -63q1 -9 -4.5 -23.5t-5.5 -22.5l6 -74q1 -11 7 -32.5t7 -31.5
q1 -18 22 -38zM363 665q0 -28 -5 -41q-9 -18 -17 -35l-15 -1q-16 -1 -29 29t-27 30q-8 0 -24 -7t-17 -14q-2 -16 -1 -106q1 -91 3 -99q-3 -10 -3 -15q0 -17 34.5 -25t34.5 -41q0 -10 -10 -30h-69q-6 0 -22 5.5t-25 5.5q-13 0 -38.5 -3t-37.5 -3q-7 0 -14 7q-10 10 -10 11
l-2 11q0 14 11 29q10 1 28 9t30 10q-7 9 -6.5 33.5t-4.5 34.5q5 29 5 30v128q0 4 -4 16q-11 6 -25 6q-19 0 -33 -21.5t-10 -40.5q-22 -17 -34 -17q-23 0 -23 73q0 26 2 52q6 8 12 15t14 7q33 0 39 -5q0 -6 6 -6q4 0 12.5 2.5t10.5 2.5q7 0 45 4q28 3 45 -1l13 10
q37 -8 69 -7l32 1l13 12q5 0 16.5 -4.5t16.5 -4.5q13 0 14 -19q0 4 0 -28z" />
  </font>
</defs>
</svg>
